{
.appVersion = "1211";
copyright = "Copyright 2019 Google Inc. All Rights Reserved.";
customParameters = (
{
name = openTypeOS2VendorID;
value = GOOG;
},
{
name = glyphOrder;
value = (
.notdef,
NULL,
CR,
space,
adakbindiguru,
bindiguru,
visargaguru,
aguru,
aaguru,
iguru,
iiguru,
uguru,
uuguru,
eeguru,
aiguru,
ooguru,
auguru,
kaguru,
khaguru,
gaguru,
ghaguru,
ngaguru,
caguru,
chaguru,
jaguru,
jhaguru,
nyaguru,
ttaguru,
tthaguru,
ddaguru,
ddhaguru,
nnaguru,
taguru,
thaguru,
daguru,
dhaguru,
naguru,
paguru,
phaguru,
baguru,
bhaguru,
maguru,
yaguru,
raguru,
laguru,
lanuktaguru,
vaguru,
sanuktaguru,
saguru,
haguru,
nuktaguru,
aamatraguru,
imatraguru,
iimatraguru,
umatraguru,
uumatraguru,
eematraguru,
aimatraguru,
oomatraguru,
aumatraguru,
halantguru,
udaatguru,
khanuktaguru,
ganuktaguru,
januktaguru,
rraguru,
phanuktaguru,
zeroguru,
oneguru,
twoguru,
threeguru,
fourguru,
fiveguru,
sixguru,
sevenguru,
eightguru,
nineguru,
tippiguru,
addakguru,
iriguru,
uraguru,
ekonkarguru,
yakashguru,
uni262C,
unuktaguru,
uunuktaguru,
kanuktaguru,
ghanuktaguru,
nganuktaguru,
canuktaguru,
chanuktaguru,
jhanuktaguru,
nyanuktaguru,
ttanuktaguru,
tthanuktaguru,
ddhanuktaguru,
nnanuktaguru,
tanuktaguru,
thanuktaguru,
danuktaguru,
dhanuktaguru,
nanuktaguru,
panuktaguru,
banuktaguru,
bhanuktaguru,
manuktaguru,
yanuktaguru,
ranuktaguru,
vanuktaguru,
hanuktaguru,
rasubscriptguru,
hasubscriptguru,
vasubscriptguru,
kaprehalfguru,
khaprehalfguru,
gaprehalfguru,
ghaprehalfguru,
ngaprehalfguru,
caprehalfguru,
chaprehalfguru,
japrehalfguru,
jhaprehalfguru,
nyaprehalfguru,
ttaprehalfguru,
tthaprehalfguru,
ddaprehalfguru,
ddhaprehalfguru,
nnaprehalfguru,
taprehalfguru,
thaprehalfguru,
daprehalfguru,
dhaprehalfguru,
naprehalfguru,
paprehalfguru,
phaprehalfguru,
baprehalfguru,
bhaprehalfguru,
maprehalfguru,
yaprehalfguru,
raprehalfguru,
laprehalfguru,
vaprehalfguru,
saprehalfguru,
haprehalfguru,
kanuktaprehalfguru,
khanuktaprehalfguru,
ganuktaprehalfguru,
ghanuktaprehalfguru,
nganuktaprehalfguru,

glyphs = (
{
glyphname = .notdef;
lastChange = "2019-02-21 10:42:34 +0000";
layers = (
{
layerId = UUID0;
paths = (
{
closed = 1;
nodes = (
"505 0 LINE",
"505 714 LINE",
"94 714 LINE",
"94 0 LINE"
);
},
{
closed = 1;
nodes = (
"145 663 LINE",
"454 663 LINE",
"454 51 LINE",
"145 51 LINE"
);
}
);
width = 600;
},
{
layerId = "397B4BA1-1DC1-423A-91EE-9CBCF179C3D0";
paths = (
{
closed = 1;
nodes = (
"505 0 LINE",
"505 714 LINE",
"94 714 LINE",
"94 0 LINE"
);
},
{
closed = 1;
nodes = (
"145 663 LINE",
"454 663 LINE",
"454 51 LINE",
"145 51 LINE"
);
}
);
width = 600;
},
{
layerId = "AD832606-5186-48BF-AC4A-95D20F9D6762";
paths = (
{
closed = 1;
nodes = (
"505 0 LINE",
"505 714 LINE",
"94 714 LINE",
"94 0 LINE"
);
},
{
closed = 1;
nodes = (
"145 663 LINE",
"454 663 LINE",
"454 51 LINE",
"145 51 LINE"
);
}
);
width = 600;
},
{
layerId = "F506C8C4-888D-41F0-91C9-49F2C7D2D9C4";
paths = (
{
closed = 1;
nodes = (
"505 0 LINE",
"505 714 LINE",
"94 714 LINE",
"94 0 LINE"
);
},
{
closed = 1;
nodes = (
"145 663 LINE",
"454 663 LINE",
"454 51 LINE",
"145 51 LINE"
);
}
);
width = 600;
},
{
layerId = "C86CFEE0-D181-456A-AA08-2B118FAF25CE";
paths = (
{
closed = 1;
nodes = (
"505 0 LINE",
"505 714 LINE",
"94 714 LINE",
"94 0 LINE"
);
},
{
closed = 1;
nodes = (
"145 663 LINE",
"454 663 LINE",
"454 51 LINE",
"145 51 LINE"
);
}
);
width = 600;
},
{
layerId = "CBEC276F-1F9B-404D-BC73-2CB92054D876";
paths = (
{
closed = 1;
nodes = (
"505 0 LINE",
"505 714 LINE",
"94 714 LINE",
"94 0 LINE"
);
},
{
closed = 1;
nodes = (
"145 663 LINE",
"454 663 LINE",
"454 51 LINE",
"145 51 LINE"
);
}
);
width = 600;
},
{
layerId = "04B5D069-3E89-43E6-853C-EFCF876AEDC5";
paths = (
{
closed = 1;
nodes = (
"505 0 LINE",
"505 714 LINE",
"94 714 LINE",
"94 0 LINE"
);
},
{
closed = 1;
nodes = (
"145 663 LINE",
"454 663 LINE",
"454 51 LINE",
"145 51 LINE"
);
}
);
width = 600;
}
);
},
{
glyphname = adakbindiguru;
lastChange = "2019-02-21 10:44:12 +0000";
layers = (
{
layerId = UUID0;
paths = (
{
closed = 1;
nodes = (
"-9 671 OFFCURVE",
"45 753 OFFCURVE",
"57 858 CURVE",
"-16 868 LINE",
"-24 778 OFFCURVE",
"-61 738 OFFCURVE",
"-130 738 CURVE SMOOTH",
"-198 738 OFFCURVE",
"-233 777 OFFCURVE",
"-244 868 CURVE",
"-316 858 LINE",
"-307 752 OFFCURVE",
"-250 671 OFFCURVE",
"-129 671 CURVE SMOOTH"
);
},
{
closed = 1;
nodes = (
"-100 788 OFFCURVE",
"-78 808 OFFCURVE",
"-78 842 CURVE SMOOTH",
"-78 876 OFFCURVE",
"-101 896 OFFCURVE",
"-130 896 CURVE SMOOTH",
"-159 896 OFFCURVE",
"-182 876 OFFCURVE",
"-182 842 CURVE SMOOTH",
"-182 808 OFFCURVE",
"-159 788 OFFCURVE",
"-130 788 CURVE SMOOTH"
);
}
);
width = 0;
},
{
layerId = "397B4BA1-1DC1-423A-91EE-9CBCF179C3D0";
paths = (
{
closed = 1;
nodes = (
"1 661 OFFCURVE",
"60 749 OFFCURVE",
"74 858 CURVE",
"-37 875 LINE",
"-51 789 OFFCURVE",
"-85 755 OFFCURVE",
"-147 755 CURVE SMOOTH",
"-212 755 OFFCURVE",
"-243 791 OFFCURVE",
"-256 875 CURVE",
"-368 858 LINE",
"-354 749 OFFCURVE",
"-296 661 OFFCURVE",
"-146 661 CURVE SMOOTH"
);
},
{
closed = 1;
nodes = (
"-108 785 OFFCURVE",
"-85 809 OFFCURVE",
"-85 841 CURVE SMOOTH",
"-85 873 OFFCURVE",
"-108 896 OFFCURVE",
"-147 896 CURVE SMOOTH",
"-185 896 OFFCURVE",
"-210 873 OFFCURVE",
"-210 841 CURVE SMOOTH",
"-210 809 OFFCURVE",
"-188 785 OFFCURVE",
"-147 785 CURVE SMOOTH"
);
}
);
width = 0;
},
{
layerId = "AD832606-5186-48BF-AC4A-95D20F9D6762";
paths = (
{
closed = 1;
nodes = (
"-19 683 OFFCURVE",
"31 739 OFFCURVE",
"46 847 CURVE",
"20 850 LINE",
"7 757 OFFCURVE",
"-27 708 OFFCURVE",
"-112 708 CURVE SMOOTH",
"-199 708 OFFCURVE",
"-233 757 OFFCURVE",
"-246 850 CURVE",
"-272 847 LINE",
"-257 739 OFFCURVE",
"-207 683 OFFCURVE",
"-112 683 CURVE SMOOTH"
);
},
{
closed = 1;
nodes = (
"-96 797 OFFCURVE",
"-83 809 OFFCURVE",
"-83 835 CURVE SMOOTH",
"-83 858 OFFCURVE",
"-94 873 OFFCURVE",
"-113 873 CURVE SMOOTH",
"-131 873 OFFCURVE",
"-144 859 OFFCURVE",
"-144 835 CURVE SMOOTH",
"-144 810 OFFCURVE",
"-129 797 OFFCURVE",
"-113 797 CURVE SMOOTH"
);
}
);
width = 0;
},
{
layerId = "F506C8C4-888D-41F0-91C9-49F2C7D2D9C4";
paths = (
{
closed = 1;
nodes = (
"-16 648 OFFCURVE",
"64 724 OFFCURVE",
"82 858 CURVE",
"-55 877 LINE",
"-66 788 OFFCURVE",
"-96 755 OFFCURVE",
"-157 755 CURVE SMOOTH",
"-216 755 OFFCURVE",
"-247 788 OFFCURVE",
"-259 877 CURVE",
"-396 858 LINE",
"-378 723 OFFCURVE",
"-297 648 OFFCURVE",
"-157 648 CURVE SMOOTH"
);
},
{
closed = 1;
nodes = (
"-114 777 OFFCURVE",
"-89 802 OFFCURVE",
"-89 837 CURVE SMOOTH",
"-89 872 OFFCURVE",
"-114 896 OFFCURVE",
"-157 896 CURVE SMOOTH",
"-199 896 OFFCURVE",
"-225 872 OFFCURVE",
"-225 837 CURVE SMOOTH",
"-225 802 OFFCURVE",
"-202 777 OFFCURVE",
"-157 777 CURVE SMOOTH"
);
}
);
width = 0;
},
{
layerId = "C86CFEE0-D181-456A-AA08-2B118FAF25CE";
paths = (
{
closed = 1;
nodes = (
"-17 683 OFFCURVE",
"19 739 OFFCURVE",
"31 847 CURVE",
"5 850 LINE",
"-5 757 OFFCURVE",
"-30 708 OFFCURVE",
"-90 708 CURVE SMOOTH",
"-149 708 OFFCURVE",
"-175 757 OFFCURVE",
"-185 850 CURVE",
"-211 847 LINE",
"-199 739 OFFCURVE",
"-163 683 OFFCURVE",
"-90 683 CURVE SMOOTH"
);
},
{
closed = 1;
nodes = (
"-76 797 OFFCURVE",
"-64 809 OFFCURVE",
"-64 835 CURVE SMOOTH",
"-64 861 OFFCURVE",
"-75 873 OFFCURVE",
"-90 873 CURVE SMOOTH",
"-104 873 OFFCURVE",
"-117 860 OFFCURVE",
"-117 835 CURVE SMOOTH",
"-117 809 OFFCURVE",
"-103 797 OFFCURVE",
"-90 797 CURVE SMOOTH"
);
}
);
width = 0;
},
{
layerId = "CBEC276F-1F9B-404D-BC73-2CB92054D876";
paths = (
{
closed = 1;
nodes = (
"-1 651 OFFCURVE",
"68 728 OFFCURVE",
"84 862 CURVE",
"-42 876 LINE",
"-49 786 OFFCURVE",
"-74 753 OFFCURVE",
"-130 753 CURVE SMOOTH",
"-182 753 OFFCURVE",
"-210 786 OFFCURVE",
"-218 876 CURVE",
"-343 862 LINE",
"-327 727 OFFCURVE",
"-257 651 OFFCURVE",
"-130 651 CURVE SMOOTH"
);
},
{
closed = 1;
nodes = (
"-92 779 OFFCURVE",
"-72 803 OFFCURVE",
"-72 838 CURVE SMOOTH",
"-72 873 OFFCURVE",
"-92 896 OFFCURVE",
"-131 896 CURVE SMOOTH",
"-167 896 OFFCURVE",
"-188 873 OFFCURVE",
"-188 838 CURVE SMOOTH",
"-188 803 OFFCURVE",
"-171 779 OFFCURVE",
"-131 779 CURVE SMOOTH"
);
}
);
width = 0;
},
{
layerId = "04B5D069-3E89-43E6-853C-EFCF876AEDC5";
paths = (
{
closed = 1;
nodes = (
"0 673 OFFCURVE",
"36 755 OFFCURVE",
"45 860 CURVE",
"-21 867 LINE",
"-29 775 OFFCURVE",
"-50 736 OFFCURVE",
"-103 736 CURVE SMOOTH",
"-156 736 OFFCURVE",
"-176 775 OFFCURVE",
"-185 867 CURVE",
"-251 860 LINE",
"-242 754 OFFCURVE",
"-204 673 OFFCURVE",
"-102 673 CURVE SMOOTH"
);
},
{
closed = 1;
nodes = (
"-76 790 OFFCURVE",
"-59 809 OFFCURVE",
"-59 842 CURVE SMOOTH",
"-59 876 OFFCURVE",
"-76 895 OFFCURVE",
"-103 895 CURVE SMOOTH",
"-128 895 OFFCURVE",
"-146 876 OFFCURVE",
"-146 842 CURVE SMOOTH",
"-146 809 OFFCURVE",
"-129 790 OFFCURVE",
"-103 790 CURVE SMOOTH"
);
}
);
width = 0;
}
);
unicode = 0A01;
},
{
glyphname = bindiguru;
lastChange = "2019-02-21 10:44:12 +0000";
layers = (
{
layerId = UUID0;
paths = (
{
closed = 1;
nodes = (
"-98 721 OFFCURVE",
"-75 742 OFFCURVE",
"-75 778 CURVE SMOOTH",
"-75 814 OFFCURVE",
"-100 835 OFFCURVE",
"-130 835 CURVE SMOOTH",
"-160 835 OFFCURVE",
"-185 814 OFFCURVE",
"-185 778 CURVE SMOOTH",
"-185 742 OFFCURVE",
"-160 721 OFFCURVE",
"-130 721 CURVE SMOOTH"
);
}
);
width = 0;
},
{
layerId = "397B4BA1-1DC1-423A-91EE-9CBCF179C3D0";
paths = (
{
closed = 1;
nodes = (
"-98 704 OFFCURVE",
"-69 732 OFFCURVE",
"-69 776 CURVE SMOOTH",
"-69 819 OFFCURVE",
"-98 848 OFFCURVE",
"-147 848 CURVE SMOOTH",
"-197 848 OFFCURVE",
"-226 819 OFFCURVE",
"-226 776 CURVE SMOOTH",
"-226 732 OFFCURVE",
"-197 704 OFFCURVE",
"-147 704 CURVE SMOOTH"
);
}
);
width = 0;
},
{
layerId = "AD832606-5186-48BF-AC4A-95D20F9D6762";
paths = (
{
closed = 1;
nodes = (
"-96 740 OFFCURVE",
"-83 752 OFFCURVE",
"-83 778 CURVE SMOOTH",
"-83 801 OFFCURVE",
"-94 816 OFFCURVE",
"-113 816 CURVE SMOOTH",
"-131 816 OFFCURVE",
"-144 802 OFFCURVE",
"-144 778 CURVE SMOOTH",
"-144 753 OFFCURVE",
"-129 740 OFFCURVE",
"-113 740 CURVE SMOOTH"
);
}
);
width = 0;
},
{
layerId = "F506C8C4-888D-41F0-91C9-49F2C7D2D9C4";
paths = (
{
closed = 1;
nodes = (
"-102 695 OFFCURVE",
"-70 726 OFFCURVE",
"-70 776 CURVE SMOOTH",
"-70 824 OFFCURVE",
"-102 857 OFFCURVE",
"-158 857 CURVE SMOOTH",
"-215 857 OFFCURVE",
"-247 824 OFFCURVE",
"-247 776 CURVE SMOOTH",
"-247 726 OFFCURVE",
"-215 695 OFFCURVE",
"-158 695 CURVE SMOOTH"
);
}
);
width = 0;
},
{
layerId = "C86CFEE0-D181-456A-AA08-2B118FAF25CE";
paths = (
{
closed = 1;
nodes = (
"-76 738 OFFCURVE",
"-64 749 OFFCURVE",
"-64 776 CURVE SMOOTH",
"-64 800 OFFCURVE",
"-75 814 OFFCURVE",
"-90 814 CURVE SMOOTH",
"-104 814 OFFCURVE",
"-117 801 OFFCURVE",
"-117 776 CURVE SMOOTH",
"-117 750 OFFCURVE",
"-103 738 OFFCURVE",
"-91 738 CURVE SMOOTH"
);
}
);
width = 0;
},
{
layerId = "CBEC276F-1F9B-404D-BC73-2CB92054D876";
paths = (
{
closed = 1;
nodes = (
"-80 700 OFFCURVE",
"-53 732 OFFCURVE",
"-53 778 CURVE SMOOTH",
"-53 823 OFFCURVE",
"-80 856 OFFCURVE",
"-129 856 CURVE SMOOTH",
"-179 856 OFFCURVE",
"-206 823 OFFCURVE",
"-206 778 CURVE SMOOTH",
"-206 732 OFFCURVE",
"-179 700 OFFCURVE",
"-129 700 CURVE SMOOTH"
);
}
);
width = 0;
},
{
layerId = "04B5D069-3E89-43E6-853C-EFCF876AEDC5";
paths = (
{
closed = 1;
nodes = (
"-69 723 OFFCURVE",
"-52 745 OFFCURVE",
"-52 778 CURVE SMOOTH",
"-52 810 OFFCURVE",
"-69 833 OFFCURVE",
"-101 833 CURVE SMOOTH",
"-132 833 OFFCURVE",
"-150 810 OFFCURVE",
"-150 778 CURVE SMOOTH",
"-150 745 OFFCURVE",
"-132 723 OFFCURVE",
"-101 723 CURVE SMOOTH"
);
}
);
width = 0;
}
);
unicode = 0A02;
},
{
glyphname = visargaguru;
lastChange = "2019-02-21 10:42:34 +0000";
layers = (
{
layerId = UUID0;
paths = (
{
closed = 1;
nodes = (
"288 362 OFFCURVE",
"344 410 OFFCURVE",
"344 492 CURVE SMOOTH",
"344 572 OFFCURVE",
"288 622 OFFCURVE",
"203 622 CURVE SMOOTH",
"117 622 OFFCURVE",
"62 569 OFFCURVE",
"62 492 CURVE SMOOTH",
"62 411 OFFCURVE",
"117 362 OFFCURVE",
"203 362 CURVE SMOOTH"
);
},
{
closed = 1;
nodes = (
"158 425 OFFCURVE",
"134 453 OFFCURVE",
"134 492 CURVE SMOOTH",
"134 530 OFFCURVE",
"158 559 OFFCURVE",
"203 559 CURVE SMOOTH",
"247 559 OFFCURVE",
"272 530 OFFCURVE",
"272 492 CURVE SMOOTH",
"272 454 OFFCURVE",
"247 425 OFFCURVE",
"203 425 CURVE SMOOTH"
);
},
{
closed = 1;
nodes = (
"288 0 OFFCURVE",
"344 48 OFFCURVE",
"344 130 CURVE SMOOTH",
"344 211 OFFCURVE",
"288 260 OFFCURVE",
"203 260 CURVE SMOOTH",
"117 260 OFFCURVE",
"62 208 OFFCURVE",
"62 130 CURVE SMOOTH",
"62 50 OFFCURVE",
"117 0 OFFCURVE",
"203 0 CURVE SMOOTH"
);
},
{
closed = 1;
nodes = (
"158 63 OFFCURVE",
"134 92 OFFCURVE",
"134 130 CURVE SMOOTH",
"134 168 OFFCURVE",
"158 197 OFFCURVE",
"203 197 CURVE SMOOTH",
"247 197 OFFCURVE",
"272 168 OFFCURVE",
"272 130 CURVE SMOOTH",
"272 92 OFFCURVE",
"247 63 OFFCURVE",
"203 63 CURVE SMOOTH"
);
}
);
width = 405;
},
{
layerId = "397B4BA1-1DC1-423A-91EE-9CBCF179C3D0";
paths = (
{
closed = 1;
nodes = (
"325 336 OFFCURVE",
"392 389 OFFCURVE",
"392 479 CURVE SMOOTH",
"392 567 OFFCURVE",
"325 622 OFFCURVE",
"223 622 CURVE SMOOTH",
"120 622 OFFCURVE",
"54 564 OFFCURVE",
"54 479 CURVE SMOOTH",
"54 391 OFFCURVE",
"120 336 OFFCURVE",
"223 336 CURVE SMOOTH"
);
},
{
closed = 1;
nodes = (
"188 430 OFFCURVE",
"169 451 OFFCURVE",
"169 479 CURVE SMOOTH",
"169 507 OFFCURVE",
"188 528 OFFCURVE",
"223 528 CURVE SMOOTH",
"257 528 OFFCURVE",
"277 507 OFFCURVE",
"277 479 CURVE SMOOTH",
"277 452 OFFCURVE",
"257 430 OFFCURVE",
"223 430 CURVE SMOOTH"
);
},
{
closed = 1;
nodes = (
"325 0 OFFCURVE",
"392 53 OFFCURVE",
"392 143 CURVE SMOOTH",
"392 231 OFFCURVE",
"325 286 OFFCURVE",
"223 286 CURVE SMOOTH",
"120 286 OFFCURVE",
"54 228 OFFCURVE",
"54 143 CURVE SMOOTH",
"54 55 OFFCURVE",
"120 0 OFFCURVE",
"223 0 CURVE SMOOTH"
);
},
{
closed = 1;
nodes = (
"188 94 OFFCURVE",
"169 115 OFFCURVE",
"169 143 CURVE SMOOTH",
"169 170 OFFCURVE",
"188 192 OFFCURVE",
"223 192 CURVE SMOOTH",
"257 192 OFFCURVE",
"277 170 OFFCURVE",
"277 143 CURVE SMOOTH",
"277 115 OFFCURVE",
"257 94 OFFCURVE",
"223 94 CURVE SMOOTH"
);
}
);
width = 445;
},
{
layerId = "AD832606-5186-48BF-AC4A-95D20F9D6762";
paths = (
{
closed = 1;
nodes = (
"280 366 OFFCURVE",
"334 419 OFFCURVE",
"334 494 CURVE SMOOTH",
"334 571 OFFCURVE",
"279 622 OFFCURVE",
"200 622 CURVE SMOOTH",
"121 622 OFFCURVE",
"66 571 OFFCURVE",
"66 494 CURVE SMOOTH",
"66 417 OFFCURVE",
"121 366 OFFCURVE",
"200 366 CURVE SMOOTH"
);
},
{
closed = 1;
nodes = (
"131 392 OFFCURVE",
"93 436 OFFCURVE",
"93 494 CURVE SMOOTH",
"93 552 OFFCURVE",
"131 596 OFFCURVE",
"200 596 CURVE SMOOTH",
"269 596 OFFCURVE",
"307 552 OFFCURVE",
"307 494 CURVE SMOOTH",
"307 436 OFFCURVE",
"269 392 OFFCURVE",
"200 392 CURVE SMOOTH"
);
},
{
closed = 1;
nodes = (
"280 0 OFFCURVE",
"334 53 OFFCURVE",
"334 128 CURVE SMOOTH",
"334 205 OFFCURVE",
"273 256 OFFCURVE",
"200 256 CURVE SMOOTH",
"121 256 OFFCURVE",
"66 205 OFFCURVE",
"66 128 CURVE SMOOTH",
"66 51 OFFCURVE",
"121 0 OFFCURVE",
"200 0 CURVE SMOOTH"
);
},
{
closed = 1;
nodes = (
"131 26 OFFCURVE",
"93 70 OFFCURVE",
"93 128 CURVE SMOOTH",
"93 186 OFFCURVE",
"131 230 OFFCURVE",
"200 230 CURVE SMOOTH",
"269 230 OFFCURVE",
"307 186 OFFCURVE",
"307 128 CURVE SMOOTH",
"307 70 OFFCURVE",
"269 26 OFFCURVE",
"200 26 CURVE SMOOTH"
);
}
);
width = 400;
},
{
layerId = "F506C8C4-888D-41F0-91C9-49F2C7D2D9C4";
paths = (
{
closed = 1;
nodes = (
"341 328 OFFCURVE",
"408 381 OFFCURVE",
"408 475 CURVE SMOOTH",
"408 566 OFFCURVE",
"341 622 OFFCURVE",
"228 622 CURVE SMOOTH",
"114 622 OFFCURVE",
"47 564 OFFCURVE",
"47 475 CURVE SMOOTH",
"47 383 OFFCURVE",
"114 328 OFFCURVE",
"228 328 CURVE SMOOTH"
);
},
{
closed = 1;
nodes = (
"203 434 OFFCURVE",
"186 449 OFFCURVE",
"186 475 CURVE SMOOTH",
"186 501 OFFCURVE",
"201 516 OFFCURVE",
"228 516 CURVE SMOOTH",
"254 516 OFFCURVE",
"269 501 OFFCURVE",
"269 475 CURVE SMOOTH",
"269 450 OFFCURVE",
"254 434 OFFCURVE",
"228 434 CURVE SMOOTH"
);
},
{
closed = 1;
nodes = (
"341 0 OFFCURVE",
"408 53 OFFCURVE",
"408 147 CURVE SMOOTH",
"408 238 OFFCURVE",
"341 294 OFFCURVE",
"228 294 CURVE SMOOTH",
"114 294 OFFCURVE",
"47 236 OFFCURVE",
"47 147 CURVE SMOOTH",
"47 55 OFFCURVE",
"114 0 OFFCURVE",
"228 0 CURVE SMOOTH"
);
},
{
closed = 1;
nodes = (
"203 106 OFFCURVE",
"186 121 OFFCURVE",
"186 147 CURVE SMOOTH",
"186 173 OFFCURVE",
"201 188 OFFCURVE",
"228 188 CURVE SMOOTH",
"254 188 OFFCURVE",
"269 173 OFFCURVE",
"269 147 CURVE SMOOTH",
"269 122 OFFCURVE",
"254 106 OFFCURVE",
"228 106 CURVE SMOOTH"
);
}
);
width = 455;
},
{
layerId = "C86CFEE0-D181-456A-AA08-2B118FAF25CE";
paths = (
{
closed = 1;
nodes = (
"218 366 OFFCURVE",
"259 411 OFFCURVE",
"259 494 CURVE SMOOTH",
"259 577 OFFCURVE",
"218 622 OFFCURVE",
"156 622 CURVE SMOOTH",
"94 622 OFFCURVE",
"53 577 OFFCURVE",
"53 494 CURVE SMOOTH",
"53 411 OFFCURVE",
"94 366 OFFCURVE",
"156 366 CURVE SMOOTH"
);
},
{
closed = 1;
nodes = (
"99 392 OFFCURVE",
"79 438 OFFCURVE",
"79 494 CURVE SMOOTH",
"79 550 OFFCURVE",
"99 596 OFFCURVE",
"156 596 CURVE SMOOTH",
"213 596 OFFCURVE",
"233 550 OFFCURVE",
"233 494 CURVE SMOOTH",
"233 438 OFFCURVE",
"213 392 OFFCURVE",
"156 392 CURVE SMOOTH"
);
},
{
closed = 1;
nodes = (
"218 0 OFFCURVE",
"259 45 OFFCURVE",
"259 128 CURVE SMOOTH",
"259 211 OFFCURVE",
"218 256 OFFCURVE",
"156 256 CURVE SMOOTH",
"94 256 OFFCURVE",
"53 211 OFFCURVE",
"53 128 CURVE SMOOTH",
"53 45 OFFCURVE",
"94 0 OFFCURVE",
"156 0 CURVE SMOOTH"
);
},
{
closed = 1;
nodes = (
"99 26 OFFCURVE",
"79 72 OFFCURVE",
"79 128 CURVE SMOOTH",
"79 184 OFFCURVE",
"99 230 OFFCURVE",
"156 230 CURVE SMOOTH",
"213 230 OFFCURVE",
"233 184 OFFCURVE",
"233 128 CURVE SMOOTH",
"233 72 OFFCURVE",
"213 26 OFFCURVE",
"156 26 CURVE SMOOTH"
);
}
);
width = 312;
},
{
layerId = "CBEC276F-1F9B-404D-BC73-2CB92054D876";
paths = (
{
closed = 1;
nodes = (
"307 330 OFFCURVE",
"362 388 OFFCURVE",
"362 476 CURVE SMOOTH",
"362 564 OFFCURVE",
"307 622 OFFCURVE",
"201 622 CURVE SMOOTH",
"95 622 OFFCURVE",
"40 564 OFFCURVE",
"40 476 CURVE SMOOTH",
"40 388 OFFCURVE",
"95 330 OFFCURVE",
"201 330 CURVE SMOOTH"
);
},
{
closed = 1;
nodes = (
"176 429 OFFCURVE",
"166 450 OFFCURVE",
"166 476 CURVE SMOOTH",
"166 502 OFFCURVE",
"176 523 OFFCURVE",
"201 523 CURVE SMOOTH",
"226 523 OFFCURVE",
"236 502 OFFCURVE",
"236 476 CURVE SMOOTH",
"236 450 OFFCURVE",
"226 429 OFFCURVE",
"201 429 CURVE SMOOTH"
);
},
{
closed = 1;
nodes = (
"307 0 OFFCURVE",
"362 58 OFFCURVE",
"362 146 CURVE SMOOTH",
"362 234 OFFCURVE",
"307 292 OFFCURVE",
"201 292 CURVE SMOOTH",
"95 292 OFFCURVE",
"40 234 OFFCURVE",
"40 146 CURVE SMOOTH",
"40 58 OFFCURVE",
"95 0 OFFCURVE",
"201 0 CURVE SMOOTH"
);
},
{
closed = 1;
nodes = (
"176 99 OFFCURVE",
"166 120 OFFCURVE",
"166 146 CURVE SMOOTH",
"166 172 OFFCURVE",
"176 193 OFFCURVE",
"201 193 CURVE SMOOTH",
"226 193 OFFCURVE",
"236 172 OFFCURVE",
"236 146 CURVE SMOOTH",
"236 120 OFFCURVE",
"226 99 OFFCURVE",
"201 99 CURVE SMOOTH"
);
}
);
width = 402;
},
{
layerId = "04B5D069-3E89-43E6-853C-EFCF876AEDC5";
paths = (
{
closed = 1;
nodes = (
"226 364 OFFCURVE",
"269 408 OFFCURVE",
"269 493 CURVE SMOOTH",
"269 578 OFFCURVE",
"226 622 OFFCURVE",
"157 622 CURVE SMOOTH",
"88 622 OFFCURVE",
"45 578 OFFCURVE",
"45 493 CURVE SMOOTH",
"45 408 OFFCURVE",
"88 364 OFFCURVE",
"157 364 CURVE SMOOTH"
);
},
{
closed = 1;
nodes = (
"129 425 OFFCURVE",
"112 445 OFFCURVE",
"112 493 CURVE SMOOTH",
"112 541 OFFCURVE",
"129 561 OFFCURVE",
"157 561 CURVE SMOOTH",
"185 561 OFFCURVE",
"202 541 OFFCURVE",
"202 493 CURVE SMOOTH",
"202 445 OFFCURVE",
"185 425 OFFCURVE",
"157 425 CURVE SMOOTH"
);
},
{
closed = 1;
nodes = (
"226 0 OFFCURVE",
"269 44 OFFCURVE",
"269 129 CURVE SMOOTH",
"269 214 OFFCURVE",
"226 258 OFFCURVE",
"157 258 CURVE SMOOTH",
"88 258 OFFCURVE",
"45 214 OFFCURVE",
"45 129 CURVE SMOOTH",
"45 44 OFFCURVE",
"88 0 OFFCURVE",
"157 0 CURVE SMOOTH"
);
},
{
closed = 1;
nodes = (
"129 61 OFFCURVE",
"112 81 OFFCURVE",
"112 129 CURVE SMOOTH",
"112 177 OFFCURVE",
"129 197 OFFCURVE",
"157 197 CURVE SMOOTH",
"185 197 OFFCURVE",
"202 177 OFFCURVE",
"202 129 CURVE SMOOTH",
"202 81 OFFCURVE",
"185 61 OFFCURVE",
"157 61 CURVE SMOOTH"
);
}
);
width = 314;
}
);
unicode = 0A03;
},
{
glyphname = aguru;
lastChange = "2019-02-21 10:44:12 +0000";
layers = (
{
layerId = UUID0;
paths = (
{
closed = 1;
nodes = (
"653 0 LINE",
"653 551 LINE",
"749 551 LINE",
"749 622 LINE",
"572 622 LINE",
"572 405 LINE",
"584 433 LINE",
"509 416 OFFCURVE",
"443 383 OFFCURVE",
"407 353 CURVE",
"424 339 LINE",
"424 402 OFFCURVE",
"401 509 OFFCURVE",
"374 554 CURVE",
"289 536 OFFCURVE",
"196 485 OFFCURVE",
"173 456 CURVE",
"186 445 LINE",
"186 506 OFFCURVE",
"163 581 OFFCURVE",
"144 622 CURVE",
"-7 622 LINE",
"-7 551 LINE",
"120 551 LINE",
"77 558 LINE",
"91 547 OFFCURVE",
"114 503 OFFCURVE",
"118 419 CURVE",
"83 381 OFFCURVE",
"56 320 OFFCURVE",
"56 271 CURVE SMOOTH",
"56 226 OFFCURVE",
"76 212 OFFCURVE",
"104 212 CURVE SMOOTH",
"165 212 OFFCURVE",
"189 297 OFFCURVE",
"189 422 CURVE",
"175 379 LINE",
"208 410 OFFCURVE",
"281 453 OFFCURVE",
"348 473 CURVE",
"316 478 LINE",
"337 451 OFFCURVE",
"354 379 OFFCURVE",
"356 317 CURVE",
"320 278 OFFCURVE",
"292 217 OFFCURVE",
"292 166 CURVE SMOOTH",
"292 122 OFFCURVE",
"313 108 OFFCURVE",
"341 108 CURVE SMOOTH",
"399 108 OFFCURVE",
"425 191 OFFCURVE",
"425 305 CURVE",
"406 271 LINE",
"458 313 OFFCURVE",
"513 339 OFFCURVE",
"584 356 CURVE",
"572 373 LINE",
"572 0 LINE"
);
}
);
width = 742;
},
{
layerId = "397B4BA1-1DC1-423A-91EE-9CBCF179C3D0";
paths = (
{
closed = 1;
nodes = (
"740 0 LINE",
"740 512 LINE",
"828 512 LINE",
"828 622 LINE",
"606 622 LINE",
"606 406 LINE",
"616 437 LINE",
"550 419 OFFCURVE",
"476 381 OFFCURVE",
"431 338 CURVE",
"485 363 LINE",
"485 415 OFFCURVE",
"456 526 OFFCURVE",
"432 563 CURVE",
"336 546 OFFCURVE",
"232 490 OFFCURVE",
"180 442 CURVE",
"231 455 LINE",
"231 510 OFFCURVE",
"211 586 OFFCURVE",
"195 622 CURVE",
"-7 622 LINE",
"-7 512 LINE",
"123 512 LINE",
"81 551 LINE",
"94 533 OFFCURVE",
"113 485 OFFCURVE",
"115 412 CURVE",
"78 372 OFFCURVE",
"50 325 OFFCURVE",
"50 275 CURVE SMOOTH",
"50 218 OFFCURVE",
"86 195 OFFCURVE",
"128 195 CURVE SMOOTH",
"207 195 OFFCURVE",
"238 264 OFFCURVE",
"239 378 CURVE",
"227 362 LINE",
"260 385 OFFCURVE",
"318 418 OFFCURVE",
"357 428 CURVE",
"341 429 LINE",
"352 420 OFFCURVE",
"369 354 OFFCURVE",
"370 307 CURVE",
"324 261 OFFCURVE",
"306 206 OFFCURVE",
"306 175 CURVE SMOOTH",
"306 114 OFFCURVE",
"342 91 OFFCURVE",
"384 91 CURVE SMOOTH",
"457 91 OFFCURVE",
"493 154 OFFCURVE",
"495 276 CURVE",
"482 259 LINE",
"523 287 OFFCURVE",
"573 307 OFFCURVE",
"616 318 CURVE",
"606 352 LINE",
"606 0 LINE"
);
}
);
width = 820;
},
{
layerId = "AD832606-5186-48BF-AC4A-95D20F9D6762";
paths = (
{
closed = 1;
nodes = (
"605 0 LINE",
"605 596 LINE",
"712 596 LINE",
"712 622 LINE",
"579 622 LINE",
"579 427 LINE",
"591 435 LINE",
"488 417 OFFCURVE",
"409 365 OFFCURVE",
"380 331 CURVE",
"394 333 LINE",
"393 405 OFFCURVE",
"370 493 OFFCURVE",
"342 549 CURVE",
"250 522 OFFCURVE",
"174 472 OFFCURVE",
"139 431 CURVE",
"151 432 LINE",
"151 490 OFFCURVE",
"129 570 OFFCURVE",
"102 622 CURVE",
"-7 622 LINE",
"-7 596 LINE",
"109 596 LINE",
"80 608 LINE",
"107 557 OFFCURVE",
"126 492 OFFCURVE",
"128 423 CURVE",
"91 369 OFFCURVE",
"64 304 OFFCURVE",
"64 260 CURVE SMOOTH",
"64 247 OFFCURVE",
"70 237 OFFCURVE",
"80 237 CURVE SMOOTH",
"108 237 OFFCURVE",
"139 314 OFFCURVE",
"150 412 CURVE",
"141 400 LINE",
"192 455 OFFCURVE",
"266 497 OFFCURVE",
"342 520 CURVE",
"320 525 LINE",
"345 491 OFFCURVE",
"369 386 OFFCURVE",
"369 323 CURVE",
"332 269 OFFCURVE",
"305 204 OFFCURVE",
"305 160 CURVE SMOOTH",
"305 147 OFFCURVE",
"311 137 OFFCURVE",
"321 137 CURVE SMOOTH",
"348 137 OFFCURVE",
"381 214 OFFCURVE",
"392 312 CURVE",
"383 300 LINE",
"430 349 OFFCURVE",
"502 392 OFFCURVE",
"591 408 CURVE",
"579 415 LINE",
"579 0 LINE"
);
}
);
width = 705;
},
{
layerId = "F506C8C4-888D-41F0-91C9-49F2C7D2D9C4";
paths = (
{
closed = 1;
nodes = (
"803 0 LINE",
"803 484 LINE",
"880 484 LINE",
"880 622 LINE",
"626 622 LINE",
"626 428 LINE",
"645 449 LINE",
"561 432 OFFCURVE",
"482 379 OFFCURVE",
"439 340 CURVE",
"550 342 LINE",
"550 430 OFFCURVE",
"514 536 OFFCURVE",
"491 577 CURVE",
"369 560 OFFCURVE",
"249 499 OFFCURVE",
"185 437 CURVE",
"276 434 LINE",
"276 491 OFFCURVE",
"253 586 OFFCURVE",
"237 622 CURVE",
"-7 622 LINE",
"-7 484 LINE",
"133 484 LINE",
"70 547 LINE",
"88 515 OFFCURVE",
"105 462 OFFCURVE",
"107 411 CURVE",
"59 365 OFFCURVE",
"42 322 OFFCURVE",
"42 273 CURVE SMOOTH",
"42 223 OFFCURVE",
"70 177 OFFCURVE",
"140 177 CURVE SMOOTH",
"215 177 OFFCURVE",
"281 222 OFFCURVE",
"281 390 CURVE",
"216 300 LINE",
"279 355 OFFCURVE",
"353 393 OFFCURVE",
"417 409 CURVE",
"342 466 LINE",
"366 422 OFFCURVE",
"380 363 OFFCURVE",
"381 317 CURVE",
"333 271 OFFCURVE",
"316 232 OFFCURVE",
"316 180 CURVE SMOOTH",
"316 130 OFFCURVE",
"344 84 OFFCURVE",
"414 84 CURVE SMOOTH",
"489 84 OFFCURVE",
"555 129 OFFCURVE",
"555 297 CURVE",
"506 222 LINE",
"547 259 OFFCURVE",
"604 287 OFFCURVE",
"647 298 CURVE",
"626 374 LINE",
"626 0 LINE"
);
}
);
width = 873;
},
{
layerId = "C86CFEE0-D181-456A-AA08-2B118FAF25CE";
paths = (
{
closed = 1;
nodes = (
"455 0 LINE",
"455 596 LINE",
"539 596 LINE",
"539 622 LINE",
"429 622 LINE",
"429 437 LINE",
"444 445 LINE",
"388 431 OFFCURVE",
"316 378 OFFCURVE",
"285 331 CURVE",
"295 325 LINE",
"293 405 OFFCURVE",
"268 504 OFFCURVE",
"249 548 CURVE",
"188 521 OFFCURVE",
"131 470 OFFCURVE",
"102 426 CURVE",
"113 422 LINE",
"111 490 OFFCURVE",
"92 573 OFFCURVE",
"74 622 CURVE",
"-7 622 LINE",
"-7 596 LINE",
"77 596 LINE",
"52 604 LINE",
"70 559 OFFCURVE",
"87 483 OFFCURVE",
"89 414 CURVE",
"68 365 OFFCURVE",
"49 305 OFFCURVE",
"49 264 CURVE SMOOTH",
"49 242 OFFCURVE",
"57 237 OFFCURVE",
"66 237 CURVE SMOOTH",
"89 237 OFFCURVE",
"109 307 OFFCURVE",
"115 412 CURVE",
"104 389 LINE",
"136 444 OFFCURVE",
"195 496 OFFCURVE",
"247 518 CURVE",
"227 530 LINE",
"246 498 OFFCURVE",
"270 386 OFFCURVE",
"271 317 CURVE",
"250 268 OFFCURVE",
"231 208 OFFCURVE",
"231 167 CURVE SMOOTH",
"231 145 OFFCURVE",
"239 140 OFFCURVE",
"248 140 CURVE SMOOTH",
"271 140 OFFCURVE",
"291 210 OFFCURVE",
"297 315 CURVE",
"286 292 LINE",
"321 352 OFFCURVE",
"391 406 OFFCURVE",
"444 419 CURVE",
"429 425 LINE",
"429 0 LINE"
);
}
);
width = 532;
},
{
layerId = "CBEC276F-1F9B-404D-BC73-2CB92054D876";
paths = (
{
closed = 1;
nodes = (
"655 0 LINE",
"655 489 LINE",
"716 489 LINE",
"716 622 LINE",
"505 622 LINE",
"505 406 LINE",
"526 437 LINE",
"482 429 OFFCURVE",
"422 404 OFFCURVE",
"381 368 CURVE",
"451 366 LINE",
"451 431 OFFCURVE",
"428 537 OFFCURVE",
"405 576 CURVE",
"306 557 OFFCURVE",
"213 515 OFFCURVE",
"155 462 CURVE",
"233 458 LINE",
"233 515 OFFCURVE",
"218 586 OFFCURVE",
"206 622 CURVE",
"-7 622 LINE",
"-7 489 LINE",
"122 489 LINE",
"74 515 LINE",
"84 497 OFFCURVE",
"90 458 OFFCURVE",
"90 432 CURVE",
"50 380 OFFCURVE",
"30 320 OFFCURVE",
"30 272 CURVE SMOOTH",
"30 209 OFFCURVE",
"64 177 OFFCURVE",
"115 177 CURVE SMOOTH",
"189 177 OFFCURVE",
"235 241 OFFCURVE",
"235 399 CURVE",
"195 330 LINE",
"240 375 OFFCURVE",
"299 410 OFFCURVE",
"351 425 CURVE",
"295 434 LINE",
"302 409 OFFCURVE",
"308 366 OFFCURVE",
"308 340 CURVE",
"268 288 OFFCURVE",
"248 228 OFFCURVE",
"248 180 CURVE SMOOTH",
"248 117 OFFCURVE",
"282 85 OFFCURVE",
"333 85 CURVE SMOOTH",
"407 85 OFFCURVE",
"453 149 OFFCURVE",
"453 307 CURVE",
"413 229 LINE",
"441 262 OFFCURVE",
"504 285 OFFCURVE",
"542 296 CURVE",
"505 352 LINE",
"505 0 LINE"
);
}
);
width = 709;
},
{
layerId = "04B5D069-3E89-43E6-853C-EFCF876AEDC5";
paths = (
{
closed = 1;
nodes = (
"502 0 LINE",
"502 554 LINE",
"574 554 LINE",
"574 622 LINE",
"427 622 LINE",
"427 405 LINE",
"431 439 LINE",
"390 422 OFFCURVE",
"343 392 OFFCURVE",
"303 347 CURVE",
"329 336 LINE",
"329 415 OFFCURVE",
"306 504 OFFCURVE",
"284 555 CURVE",
"229 532 OFFCURVE",
"166 488 OFFCURVE",
"130 450 CURVE",
"153 438 LINE",
"152 507 OFFCURVE",
"134 581 OFFCURVE",
"120 622 CURVE",
"-7 622 LINE",
"-7 554 LINE",
"88 554 LINE",
"55 562 LINE",
"69 532 OFFCURVE",
"80 486 OFFCURVE",
"86 418 CURVE",
"54 363 OFFCURVE",
"40 307 OFFCURVE",
"40 272 CURVE SMOOTH",
"40 225 OFFCURVE",
"65 213 OFFCURVE",
"86 213 CURVE SMOOTH",
"132 213 OFFCURVE",
"155 294 OFFCURVE",
"155 424 CURVE",
"143 375 LINE",
"167 408 OFFCURVE",
"221 447 OFFCURVE",
"259 467 CURVE",
"228 479 LINE",
"241 452 OFFCURVE",
"260 387 OFFCURVE",
"262 316 CURVE",
"230 261 OFFCURVE",
"216 205 OFFCURVE",
"216 170 CURVE SMOOTH",
"216 123 OFFCURVE",
"241 111 OFFCURVE",
"261 111 CURVE SMOOTH",
"307 111 OFFCURVE",
"331 190 OFFCURVE",
"331 321 CURVE",
"318 274 LINE",
"350 319 OFFCURVE",
"402 352 OFFCURVE",
"436 364 CURVE",
"427 374 LINE",
"427 0 LINE"
);
}
);
width = 567;
}
);
unicode = 0A05;
},
{
glyphname = aaguru;
lastChange = "2019-02-21 10:44:12 +0000";
layers = (
{
components = (
{
name = aguru;
}
);
layerId = UUID0;
paths = (
{
closed = 1;
nodes = (
"896 261 LINE",
"896 551 LINE",
"984 551 LINE",
"984 622 LINE",
"735 622 LINE",
"735 551 LINE",
"815 551 LINE",
"815 261 LINE"
);
}
);
width = 977;
},
{
components = (
{
name = aguru;
}
);
layerId = "397B4BA1-1DC1-423A-91EE-9CBCF179C3D0";
paths = (
{
closed = 1;
nodes = (
"1013 242 LINE",
"1013 512 LINE",
"1086 512 LINE",
"1086 622 LINE",
"813 622 LINE",
"813 512 LINE",
"879 512 LINE",
"879 242 LINE"
);
}
);
width = 1079;
},
{
components = (
{
name = aguru;
}
);
layerId = "AD832606-5186-48BF-AC4A-95D20F9D6762";
paths = (
{
closed = 1;
nodes = (
"813 261 LINE",
"813 596 LINE",
"911 596 LINE",
"911 622 LINE",
"698 622 LINE",
"698 596 LINE",
"787 596 LINE",
"787 261 LINE"
);
}
);
width = 904;
},
{
components = (
{
name = aguru;
}
);
layerId = "F506C8C4-888D-41F0-91C9-49F2C7D2D9C4";
paths = (
{
closed = 1;
nodes = (
"1101 242 LINE",
"1101 484 LINE",
"1166 484 LINE",
"1166 622 LINE",
"864 622 LINE",
"864 484 LINE",
"924 484 LINE",
"924 242 LINE"
);
}
);
width = 1159;
},
{
components = (
{
name = aguru;
}
);
layerId = "C86CFEE0-D181-456A-AA08-2B118FAF25CE";
paths = (
{
closed = 1;
nodes = (
"623 261 LINE",
"623 596 LINE",
"702 596 LINE",
"702 622 LINE",
"525 622 LINE",
"525 596 LINE",
"597 596 LINE",
"597 261 LINE"
);
}
);
width = 695;
},
{
components = (
{
name = aguru;
}
);
layerId = "CBEC276F-1F9B-404D-BC73-2CB92054D876";
paths = (
{
closed = 1;
nodes = (
"901 242 LINE",
"901 489 LINE",
"954 489 LINE",
"954 622 LINE",
"702 622 LINE",
"702 489 LINE",
"751 489 LINE",
"751 242 LINE"
);
}
);
width = 947;
},
{
components = (
{
alignment = -1;
name = aguru;
}
);
layerId = "04B5D069-3E89-43E6-853C-EFCF876AEDC5";
paths = (
{
closed = 1;
nodes = (
"694 261 LINE",
"694 554 LINE",
"757 554 LINE",
"757 622 LINE",
"560 622 LINE",
"560 554 LINE",
"619 554 LINE",
"619 261 LINE"
);
}
);
width = 750;
}
);
unicode = 0A06;
},
{
glyphname = ooguru;
lastChange = "2019-02-21 10:44:12 +0000";
layers = (
{
layerId = UUID0;
paths = (
{
closed = 1;
nodes = (
"495 0 OFFCURVE",
"563 66 OFFCURVE",
"563 175 CURVE SMOOTH",
"563 232 OFFCURVE",
"532 304 OFFCURVE",
"431 331 CURVE",
"418 309 LINE",
"534 325 OFFCURVE",
"629 394 OFFCURVE",
"629 577 CURVE",
"629 591 LINE",
"548 574 LINE",
"548 563 LINE",
"548 478 OFFCURVE",
"528 423 OFFCURVE",
"469 391 CURVE SMOOTH",
"430 370 OFFCURVE",
"383 362 OFFCURVE",
"281 362 CURVE SMOOTH",
"120 362 LINE",
"130 291 LINE",
"265 291 LINE SMOOTH",
"376 291 OFFCURVE",
"405 281 OFFCURVE",
"437 261 CURVE SMOOTH",
"466 243 OFFCURVE",
"481 213 OFFCURVE",
"481 176 CURVE SMOOTH",
"481 107 OFFCURVE",
"443 73 OFFCURVE",
"355 73 CURVE SMOOTH",
"253 73 OFFCURVE",
"148 133 OFFCURVE",
"148 424 CURVE SMOOTH",
"148 597 OFFCURVE",
"179 692 OFFCURVE",
"252 737 CURVE SMOOTH",
"293 762 OFFCURVE",
"351 772 OFFCURVE",
"463 772 CURVE SMOOTH",
"603 772 LINE",
"607 843 LINE",
"454 843 LINE SMOOTH",
"339 843 OFFCURVE",
"266 833 OFFCURVE",
"204 794 CURVE SMOOTH",
"107 733 OFFCURVE",
"66 619 OFFCURVE",
"66 421 CURVE SMOOTH",
"66 127 OFFCURVE",
"181 0 OFFCURVE",
"359 0 CURVE SMOOTH"
);
},
{
closed = 1;
nodes = (
"679 551 LINE",
"679 622 LINE",
"-7 622 LINE",
"-7 551 LINE"
);
}
);
width = 662;
},
{
layerId = "397B4BA1-1DC1-423A-91EE-9CBCF179C3D0";
paths = (
{
closed = 1;
nodes = (
"541 0 OFFCURVE",
"618 66 OFFCURVE",
"618 175 CURVE SMOOTH",
"618 232 OFFCURVE",
"586 313 OFFCURVE",
"457 338 CURVE",
"453 298 LINE",
"586 324 OFFCURVE",
"684 399 OFFCURVE",
"684 570 CURVE",
"684 601 LINE",
"549 591 LINE",
"549 549 LINE",
"549 484 OFFCURVE",
"533 434 OFFCURVE",
"475 406 CURVE SMOOTH",
"440 389 OFFCURVE",
"401 381 OFFCURVE",
"315 381 CURVE SMOOTH",
"148 381 LINE",
"158 271 LINE",
"288 271 LINE SMOOTH",
"390 271 OFFCURVE",
"416 264 OFFCURVE",
"444 249 CURVE SMOOTH",
"468 236 OFFCURVE",
"482 214 OFFCURVE",
"482 187 CURVE SMOOTH",
"482 136 OFFCURVE",
"449 110 OFFCURVE",
"373 110 CURVE SMOOTH",
"276 110 OFFCURVE",
"191 167 OFFCURVE",
"191 408 CURVE SMOOTH",
"191 555 OFFCURVE",
"202 629 OFFCURVE",
"250 678 CURVE SMOOTH",
"310 739 OFFCURVE",
"402 739 OFFCURVE",
"508 739 CURVE SMOOTH",
"618 739 LINE",
"625 849 LINE",
"511 849 LINE SMOOTH",
"320 849 OFFCURVE",
"255 829 OFFCURVE",
"189 783 CURVE SMOOTH",
"98 719 OFFCURVE",
"57 605 OFFCURVE",
"57 421 CURVE SMOOTH",
"57 127 OFFCURVE",
"179 0 OFFCURVE",
"389 0 CURVE SMOOTH"
);
},
{
closed = 1;
nodes = (
"735 512 LINE",
"735 622 LINE",
"-7 622 LINE",
"-7 512 LINE"
);
}
);
width = 708;
},
{
layerId = "AD832606-5186-48BF-AC4A-95D20F9D6762";
paths = (
{
closed = 1;
nodes = (
"441 0 OFFCURVE",
"508 59 OFFCURVE",
"508 168 CURVE SMOOTH",
"508 269 OFFCURVE",
"448 331 OFFCURVE",
"338 345 CURVE",
"336 341 LINE",
"473 351 OFFCURVE",
"574 408 OFFCURVE",
"574 586 CURVE",
"574 605 LINE",
"548 600 LINE",
"548 578 LINE",
"548 486 OFFCURVE",
"516 432 OFFCURVE",
"462 400 CURVE SMOOTH",
"416 372 OFFCURVE",
"358 359 OFFCURVE",
"245 359 CURVE SMOOTH",
"88 359 LINE",
"98 333 LINE",
"238 333 LINE SMOOTH",
"323 333 OFFCURVE",
"367 323 OFFCURVE",
"403 304 CURVE SMOOTH",
"456 276 OFFCURVE",
"481 234 OFFCURVE",
"481 167 CURVE SMOOTH",
"481 74 OFFCURVE",
"424 26 OFFCURVE",
"331 26 CURVE SMOOTH",
"202 26 OFFCURVE",
"101 130 OFFCURVE",
"101 419 CURVE SMOOTH",
"101 585 OFFCURVE",
"136 701 OFFCURVE",
"219 762 CURVE SMOOTH",
"265 797 OFFCURVE",
"319 814 OFFCURVE",
"433 814 CURVE SMOOTH",
"570 814 LINE",
"572 840 LINE",
"435 840 LINE SMOOTH",
"315 840 OFFCURVE",
"256 822 OFFCURVE",
"202 782 CURVE SMOOTH",
"117 719 OFFCURVE",
"74 602 OFFCURVE",
"74 419 CURVE SMOOTH",
"74 123 OFFCURVE",
"181 0 OFFCURVE",
"332 0 CURVE SMOOTH"
);
},
{
closed = 1;
nodes = (
"634 596 LINE",
"634 622 LINE",
"-7 622 LINE",
"-7 596 LINE"
);
}
);
width = 617;
},
{
layerId = "F506C8C4-888D-41F0-91C9-49F2C7D2D9C4";
paths = (
{
closed = 1;
nodes = (
"564 0 OFFCURVE",
"644 62 OFFCURVE",
"644 170 CURVE SMOOTH",
"644 245 OFFCURVE",
"591 317 OFFCURVE",
"459 338 CURVE",
"473 277 LINE",
"634 317 OFFCURVE",
"710 392 OFFCURVE",
"710 550 CURVE",
"710 574 LINE",
"533 566 LINE",
"533 540 LINE",
"533 470 OFFCURVE",
"514 427 OFFCURVE",
"472 403 CURVE SMOOTH",
"440 385 OFFCURVE",
"406 378 OFFCURVE",
"320 378 CURVE SMOOTH",
"151 378 LINE",
"161 242 LINE",
"331 242 LINE SMOOTH",
"395 242 OFFCURVE",
"421 238 OFFCURVE",
"438 230 CURVE SMOOTH",
"456 222 OFFCURVE",
"465 208 OFFCURVE",
"465 189 CURVE SMOOTH",
"465 161 OFFCURVE",
"443 138 OFFCURVE",
"377 138 CURVE SMOOTH",
"268 138 OFFCURVE",
"216 211 OFFCURVE",
"216 412 CURVE SMOOTH",
"216 540 OFFCURVE",
"225 618 OFFCURVE",
"273 663 CURVE SMOOTH",
"310 698 OFFCURVE",
"358 715 OFFCURVE",
"504 715 CURVE SMOOTH",
"645 715 LINE",
"654 854 LINE",
"512 854 LINE SMOOTH",
"327 854 OFFCURVE",
"252 832 OFFCURVE",
"184 786 CURVE SMOOTH",
"88 721 OFFCURVE",
"39 622 OFFCURVE",
"39 421 CURVE SMOOTH",
"39 134 OFFCURVE",
"163 0 OFFCURVE",
"391 0 CURVE SMOOTH"
);
},
{
closed = 1;
nodes = (
"764 484 LINE",
"764 622 LINE",
"-7 622 LINE",
"-7 484 LINE"
);
}
);
width = 723;
},
{
layerId = "C86CFEE0-D181-456A-AA08-2B118FAF25CE";
paths = (
{
closed = 1;
nodes = (
"345 0 OFFCURVE",
"387 63 OFFCURVE",
"387 155 CURVE SMOOTH",
"387 259 OFFCURVE",
"323 340 OFFCURVE",
"191 348 CURVE",
"190 337 LINE",
"329 340 OFFCURVE",
"439 399 OFFCURVE",
"439 605 CURVE",
"439 611 LINE",
"413 613 LINE",
"413 592 LINE",
"413 496 OFFCURVE",
"381 430 OFFCURVE",
"325 396 CURVE SMOOTH",
"288 373 OFFCURVE",
"250 359 OFFCURVE",
"160 359 CURVE SMOOTH",
"83 359 LINE",
"81 333 LINE",
"138 333 LINE SMOOTH",
"198 333 OFFCURVE",
"229 326 OFFCURVE",
"262 311 CURVE SMOOTH",
"316 286 OFFCURVE",
"360 239 OFFCURVE",
"360 154 CURVE SMOOTH",
"360 81 OFFCURVE",
"334 26 OFFCURVE",
"252 26 CURVE SMOOTH",
"159 26 OFFCURVE",
"90 124 OFFCURVE",
"90 404 CURVE SMOOTH",
"90 594 OFFCURVE",
"112 710 OFFCURVE",
"183 768 CURVE SMOOTH",
"221 800 OFFCURVE",
"266 814 OFFCURVE",
"358 814 CURVE SMOOTH",
"430 814 LINE",
"433 840 LINE",
"355 840 LINE SMOOTH",
"260 840 OFFCURVE",
"207 823 OFFCURVE",
"166 788 CURVE SMOOTH",
"83 719 OFFCURVE",
"64 589 OFFCURVE",
"64 404 CURVE SMOOTH",
"64 111 OFFCURVE",
"139 0 OFFCURVE",
"253 0 CURVE SMOOTH"
);
},
{
closed = 1;
nodes = (
"496 596 LINE",
"496 622 LINE",
"-7 622 LINE",
"-7 596 LINE"
);
}
);
width = 473;
},
{
layerId = "CBEC276F-1F9B-404D-BC73-2CB92054D876";
paths = (
{
closed = 1;
nodes = (
"450 0 OFFCURVE",
"508 73 OFFCURVE",
"508 171 CURVE SMOOTH",
"508 252 OFFCURVE",
"455 327 OFFCURVE",
"343 336 CURVE",
"297 277 LINE",
"500 303 OFFCURVE",
"557 390 OFFCURVE",
"557 566 CURVE",
"557 597 LINE",
"406 569 LINE",
"406 538 LINE",
"405 471 OFFCURVE",
"390 428 OFFCURVE",
"356 403 CURVE SMOOTH",
"328 383 OFFCURVE",
"301 376 OFFCURVE",
"212 376 CURVE SMOOTH",
"135 376 LINE",
"143 245 LINE",
"222 245 LINE SMOOTH",
"291 245 OFFCURVE",
"313 241 OFFCURVE",
"330 232 CURVE SMOOTH",
"350 222 OFFCURVE",
"358 205 OFFCURVE",
"358 183 CURVE SMOOTH",
"358 158 OFFCURVE",
"343 132 OFFCURVE",
"294 132 CURVE SMOOTH",
"215 132 OFFCURVE",
"186 195 OFFCURVE",
"186 404 CURVE SMOOTH",
"186 568 OFFCURVE",
"203 655 OFFCURVE",
"264 693 CURVE SMOOTH",
"289 709 OFFCURVE",
"322 720 OFFCURVE",
"409 720 CURVE SMOOTH",
"507 720 LINE",
"514 854 LINE",
"423 854 LINE SMOOTH",
"294 854 OFFCURVE",
"226 833 OFFCURVE",
"172 796 CURVE SMOOTH",
"75 730 OFFCURVE",
"36 622 OFFCURVE",
"36 404 CURVE SMOOTH",
"36 125 OFFCURVE",
"126 0 OFFCURVE",
"302 0 CURVE SMOOTH"
);
},
{
closed = 1;
nodes = (
"593 489 LINE",
"593 622 LINE",
"-7 622 LINE",
"-7 489 LINE"
);
}
);
width = 566;
},
{
layerId = "04B5D069-3E89-43E6-853C-EFCF876AEDC5";
paths = (
{
closed = 1;
nodes = (
"375 0 OFFCURVE",
"427 66 OFFCURVE",
"427 163 CURVE SMOOTH",
"427 246 OFFCURVE",
"378 319 OFFCURVE",
"266 331 CURVE",
"256 305 LINE",
"397 324 OFFCURVE",
"479 398 OFFCURVE",
"479 583 CURVE",
"479 603 LINE",
"404 589 LINE",
"404 563 LINE",
"404 464 OFFCURVE",
"369 417 OFFCURVE",
"320 388 CURVE SMOOTH",
"285 367 OFFCURVE",
"242 361 OFFCURVE",
"184 361 CURVE SMOOTH",
"93 361 LINE",
"109 293 LINE",
"157 293 LINE SMOOTH",
"227 293 OFFCURVE",
"254 287 OFFCURVE",
"284 273 CURVE SMOOTH",
"326 253 OFFCURVE",
"350 217 OFFCURVE",
"350 161 CURVE SMOOTH",
"350 103 OFFCURVE",
"322 69 OFFCURVE",
"264 69 CURVE SMOOTH",
"192 69 OFFCURVE",
"126 120 OFFCURVE",
"126 405 CURVE SMOOTH",
"126 593 OFFCURVE",
"146 692 OFFCURVE",
"209 738 CURVE SMOOTH",
"243 763 OFFCURVE",
"283 775 OFFCURVE",
"369 775 CURVE SMOOTH",
"468 775 LINE",
"471 843 LINE",
"367 843 LINE SMOOTH",
"258 843 OFFCURVE",
"205 824 OFFCURVE",
"162 792 CURVE SMOOTH",
"69 723 OFFCURVE",
"51 591 OFFCURVE",
"51 405 CURVE SMOOTH",
"51 102 OFFCURVE",
"135 0 OFFCURVE",
"270 0 CURVE SMOOTH"
);
},
{
closed = 1;
nodes = (
"522 554 LINE",
"522 622 LINE",
"-7 622 LINE",
"-7 554 LINE"
);
}
);
width = 501;
}
);
unicode = 0A13;
},
{
glyphname = kaguru;
lastChange = "2019-02-21 10:44:12 +0000";
layers = (
{
layerId = UUID0;
paths = (
{
closed = 1;
nodes = (
"569 0 LINE",
"558 102 OFFCURVE",
"535 223 OFFCURVE",
"471 309 CURVE",
"458 326 LINE",
"403 400 OFFCURVE",
"333 441 OFFCURVE",
"230 441 CURVE SMOOTH",
"122 441 OFFCURVE",
"35 379 OFFCURVE",
"35 268 CURVE SMOOTH",
"35 159 OFFCURVE",
"110 94 OFFCURVE",
"229 94 CURVE SMOOTH",
"335 94 OFFCURVE",
"413 146 OFFCURVE",
"462 221 CURVE",
"475 243 LINE",
"519 307 OFFCURVE",
"535 385 OFFCURVE",
"535 458 CURVE SMOOTH",
"535 486 OFFCURVE",
"530 531 OFFCURVE",
"526 551 CURVE",
"629 551 LINE",
"629 622 LINE",
"-7 622 LINE",
"-7 551 LINE",
"445 551 LINE",
"450 526 OFFCURVE",
"455 485 OFFCURVE",
"455 458 CURVE SMOOTH",
"455 414 OFFCURVE",
"450 359 OFFCURVE",
"430 312 CURVE",
"423 286 LINE",
"388 222 OFFCURVE",
"328 166 OFFCURVE",
"230 166 CURVE SMOOTH",
"165 166 OFFCURVE",
"117 200 OFFCURVE",
"117 267 CURVE SMOOTH",
"117 336 OFFCURVE",
"167 370 OFFCURVE",
"237 370 CURVE SMOOTH",
"317 370 OFFCURVE",
"379 327 OFFCURVE",
"425 254 CURVE",
"435 230 LINE",
"464 168 OFFCURVE",
"481 91 OFFCURVE",
"488 0 CURVE"
);
}
);
width = 622;
},
{
layerId = "397B4BA1-1DC1-423A-91EE-9CBCF179C3D0";
paths = (
{
closed = 1;
nodes = (
"617 0 LINE",
"605 101 OFFCURVE",
"580 220 OFFCURVE",
"509 305 CURVE",
"495 319 LINE",
"429 396 OFFCURVE",
"357 436 OFFCURVE",
"244 436 CURVE SMOOTH",
"122 436 OFFCURVE",
"29 369 OFFCURVE",
"29 249 CURVE SMOOTH",
"29 131 OFFCURVE",
"114 62 OFFCURVE",
"245 62 CURVE SMOOTH",
"362 62 OFFCURVE",
"448 115 OFFCURVE",
"502 193 CURVE",
"517 212 LINE",
"565 277 OFFCURVE",
"583 355 OFFCURVE",
"583 430 CURVE SMOOTH",
"583 454 OFFCURVE",
"580 494 OFFCURVE",
"576 512 CURVE",
"666 512 LINE",
"666 622 LINE",
"-7 622 LINE",
"-7 512 LINE",
"440 512 LINE",
"445 493 OFFCURVE",
"449 468 OFFCURVE",
"449 437 CURVE SMOOTH",
"449 397 OFFCURVE",
"445 348 OFFCURVE",
"428 305 CURVE",
"422 281 LINE",
"393 223 OFFCURVE",
"342 172 OFFCURVE",
"260 172 CURVE SMOOTH",
"203 172 OFFCURVE",
"165 198 OFFCURVE",
"165 248 CURVE SMOOTH",
"165 300 OFFCURVE",
"205 325 OFFCURVE",
"268 325 CURVE SMOOTH",
"336 325 OFFCURVE",
"389 287 OFFCURVE",
"429 223 CURVE",
"437 203 LINE",
"461 148 OFFCURVE",
"477 80 OFFCURVE",
"482 0 CURVE"
);
}
);
width = 658;
},
{
guideLines = (
{
position = "{395, 287}";
}
);
layerId = "AD832606-5186-48BF-AC4A-95D20F9D6762";
paths = (
{
closed = 1;
nodes = (
"519 0 LINE",
"509 117 OFFCURVE",
"487 222 OFFCURVE",
"445 303 CURVE",
"440 311 LINE",
"390 400 OFFCURVE",
"317 453 OFFCURVE",
"215 453 CURVE SMOOTH",
"114 453 OFFCURVE",
"43 394 OFFCURVE",
"43 290 CURVE SMOOTH",
"43 201 OFFCURVE",
"101 129 OFFCURVE",
"213 129 CURVE SMOOTH",
"317 129 OFFCURVE",
"397 175 OFFCURVE",
"444 271 CURVE",
"449 282 LINE",
"473 334 OFFCURVE",
"485 400 OFFCURVE",
"485 476 CURVE SMOOTH",
"485 517 OFFCURVE",
"478 562 OFFCURVE",
"470 596 CURVE",
"589 596 LINE",
"589 622 LINE",
"-7 622 LINE",
"-7 596 LINE",
"443 596 LINE",
"453 562 OFFCURVE",
"459 507 OFFCURVE",
"459 476 CURVE SMOOTH",
"459 410 OFFCURVE",
"451 354 OFFCURVE",
"433 307 CURVE",
"427 293 LINE",
"385 200 OFFCURVE",
"313 155 OFFCURVE",
"213 155 CURVE SMOOTH",
"129 155 OFFCURVE",
"71 202 OFFCURVE",
"71 290 CURVE SMOOTH",
"71 377 OFFCURVE",
"125 427 OFFCURVE",
"215 427 CURVE SMOOTH",
"313 427 OFFCURVE",
"382 372 OFFCURVE",
"428 281 CURVE",
"433 271 LINE",
"466 199 OFFCURVE",
"483 105 OFFCURVE",
"492 0 CURVE"
);
}
);
width = 582;
},
{
guideLines = (
{
position = "{423, 252}";
}
);
layerId = "F506C8C4-888D-41F0-91C9-49F2C7D2D9C4";
paths = (
{
closed = 1;
nodes = (
"655 0 LINE",
"646 132 OFFCURVE",
"611 235 OFFCURVE",
"532 320 CURVE",
"491 341 LINE",
"428 405 OFFCURVE",
"360 434 OFFCURVE",
"253 434 CURVE SMOOTH",
"110 434 OFFCURVE",
"23 365 OFFCURVE",
"23 242 CURVE SMOOTH",
"23 121 OFFCURVE",
"116 49 OFFCURVE",
"260 49 CURVE SMOOTH",
"374 49 OFFCURVE",
"462 95 OFFCURVE",
"526 181 CURVE",
"551 203 LINE",
"599 266 OFFCURVE",
"623 337 OFFCURVE",
"623 432 CURVE SMOOTH",
"623 449 OFFCURVE",
"622 467 OFFCURVE",
"620 484 CURVE",
"696 484 LINE",
"696 622 LINE",
"-7 622 LINE",
"-7 484 LINE",
"445 484 LINE",
"448 470 OFFCURVE",
"450 452 OFFCURVE",
"450 435 CURVE SMOOTH",
"450 407 OFFCURVE",
"447 369 OFFCURVE",
"439 339 CURVE",
"413 278 LINE",
"386 227 OFFCURVE",
"342 188 OFFCURVE",
"277 188 CURVE SMOOTH",
"217 188 OFFCURVE",
"200 216 OFFCURVE",
"200 243 CURVE SMOOTH",
"200 280 OFFCURVE",
"233 296 OFFCURVE",
"277 296 CURVE SMOOTH",
"343 296 OFFCURVE",
"389 259 OFFCURVE",
"422 210 CURVE",
"441 172 LINE",
"461 124 OFFCURVE",
"476 62 OFFCURVE",
"478 0 CURVE"
);
}
);
width = 689;
},
{
guideLines = (
{
position = "{264, 291}";
}
);
layerId = "C86CFEE0-D181-456A-AA08-2B118FAF25CE";
paths = (
{
closed = 1;
nodes = (
"391 0 LINE",
"391 110 OFFCURVE",
"375 221 OFFCURVE",
"338 308 CURVE",
"331 320 LINE",
"295 402 OFFCURVE",
"245 453 OFFCURVE",
"172 453 CURVE SMOOTH",
"89 453 OFFCURVE",
"37 389 OFFCURVE",
"37 291 CURVE SMOOTH",
"37 200 OFFCURVE",
"79 129 OFFCURVE",
"173 129 CURVE SMOOTH",
"253 129 OFFCURVE",
"306 183 OFFCURVE",
"337 271 CURVE",
"342 284 LINE",
"359 336 OFFCURVE",
"366 391 OFFCURVE",
"366 458 CURVE SMOOTH",
"366 504 OFFCURVE",
"360 554 OFFCURVE",
"351 596 CURVE",
"453 596 LINE",
"453 622 LINE",
"-7 622 LINE",
"-7 596 LINE",
"325 596 LINE",
"333 565 OFFCURVE",
"340 516 OFFCURVE",
"340 459 CURVE SMOOTH",
"340 407 OFFCURVE",
"335 356 OFFCURVE",
"325 313 CURVE",
"320 299 LINE",
"296 213 OFFCURVE",
"248 155 OFFCURVE",
"172 155 CURVE SMOOTH",
"99 155 OFFCURVE",
"64 206 OFFCURVE",
"64 291 CURVE SMOOTH",
"64 372 OFFCURVE",
"101 427 OFFCURVE",
"173 427 CURVE SMOOTH",
"245 427 OFFCURVE",
"289 367 OFFCURVE",
"321 281 CURVE",
"325 271 LINE",
"352 194 OFFCURVE",
"364 95.007 OFFCURVE",
"364 0 CURVE"
);
}
);
width = 446;
},
{
guideLines = (
{
position = "{312, 245}";
}
);
layerId = "CBEC276F-1F9B-404D-BC73-2CB92054D876";
paths = (
{
closed = 1;
nodes = (
"508 0 LINE",
"502 127 OFFCURVE",
"479 228 OFFCURVE",
"426 310 CURVE",
"383 330 LINE",
"336 397 OFFCURVE",
"289 434 OFFCURVE",
"207 434 CURVE SMOOTH",
"97 434 OFFCURVE",
"19 365 OFFCURVE",
"19 246 CURVE SMOOTH",
"19 101 OFFCURVE",
"117 51 OFFCURVE",
"210 51 CURVE SMOOTH",
"299 51 OFFCURVE",
"354 96 OFFCURVE",
"390 161 CURVE",
"423 189 LINE",
"464 261 OFFCURVE",
"483 353 OFFCURVE",
"483 434 CURVE SMOOTH",
"483 452 OFFCURVE",
"482 476 OFFCURVE",
"480 489 CURVE",
"545 489 LINE",
"545 622 LINE",
"-7 622 LINE",
"-7 489 LINE",
"332 489 LINE",
"335 471 OFFCURVE",
"336 452 OFFCURVE",
"336 434 CURVE SMOOTH",
"336 406 OFFCURVE",
"333 358 OFFCURVE",
"328 326 CURVE",
"318 285 LINE",
"302 217 OFFCURVE",
"267 184 OFFCURVE",
"222 184 CURVE SMOOTH",
"181 184 OFFCURVE",
"169 213 OFFCURVE",
"169 242 CURVE SMOOTH",
"169 279 OFFCURVE",
"190 301 OFFCURVE",
"224 301 CURVE SMOOTH",
"269 301 OFFCURVE",
"302 265 OFFCURVE",
"320 207 CURVE",
"329 180 LINE",
"344 132 OFFCURVE",
"354 68 OFFCURVE",
"357 0 CURVE"
);
}
);
width = 538;
},
{
guideLines = (
{
position = "{247, 270}";
}
);
layerId = "04B5D069-3E89-43E6-853C-EFCF876AEDC5";
paths = (
{
closed = 1;
nodes = (
"426 0 LINE",
"420 112 OFFCURVE",
"400 227 OFFCURVE",
"354 314 CURVE",
"337 333 LINE",
"297 405 OFFCURVE",
"249 441 OFFCURVE",
"178 441 CURVE SMOOTH",
"92 441 OFFCURVE",
"26 378 OFFCURVE",
"26 270 CURVE SMOOTH",
"26 150 OFFCURVE",
"94 95 OFFCURVE",
"181 95 CURVE SMOOTH",
"256 95 OFFCURVE",
"312 139 OFFCURVE",
"344 214 CURVE",
"358 235 LINE",
"390 302 OFFCURVE",
"402 382 OFFCURVE",
"402 458 CURVE SMOOTH",
"402 487 OFFCURVE",
"397 532 OFFCURVE",
"393 554 CURVE",
"472 554 LINE",
"472 622 LINE",
"-7 622 LINE",
"-7 554 LINE",
"318 554 LINE",
"324 523 OFFCURVE",
"327 489 OFFCURVE",
"327 452 CURVE SMOOTH",
"327 407 OFFCURVE",
"324 363 OFFCURVE",
"316 324 CURVE",
"310 296 LINE",
"290 217 OFFCURVE",
"250 164 OFFCURVE",
"183 164 CURVE SMOOTH",
"139 164 OFFCURVE",
"101 188 OFFCURVE",
"101 269 CURVE SMOOTH",
"101 341 OFFCURVE",
"141 372 OFFCURVE",
"186 372 CURVE SMOOTH",
"246 372 OFFCURVE",
"286 319 OFFCURVE",
"311 246 CURVE",
"318 226 LINE",
"338 159 OFFCURVE",
"348 77 OFFCURVE",
"351 0 CURVE"
);
}
);
width = 465;
}
);
unicode = 0A15;
},
{
glyphname = khaguru;
lastChange = "2019-02-21 10:42:34 +0000";
layers = (
{
layerId = UUID0;
paths = (
{
closed = 1;
nodes = (
"509 0 LINE",
"509 551 LINE",
"605 551 LINE",
"605 622 LINE",
"428 622 LINE",
"428 239 LINE",
"429 251 LINE",
"381 222 OFFCURVE",
"338 206 OFFCURVE",
"284 206 CURVE SMOOTH",
"206 206 OFFCURVE",
"161 257 OFFCURVE",
"118 357 CURVE",
"114 313 LINE",
"158 344 OFFCURVE",
"188 389 OFFCURVE",
"188 460 CURVE SMOOTH",
"188 509 OFFCURVE",
"171 568 OFFCURVE",
"142 622 CURVE",
"-7 622 LINE",
"-7 551 LINE",
"84 551 LINE",
"99 525 OFFCURVE",
"108 488 OFFCURVE",
"108 459 CURVE SMOOTH",
"108 405 OFFCURVE",
"78 367 OFFCURVE",
"38 333 CURVE",
"88 210 OFFCURVE",
"166 132 OFFCURVE",
"284 132 CURVE SMOOTH",
"341 132 OFFCURVE",
"383 144 OFFCURVE",
"429 165 CURVE",
"428 180 LINE",
"428 0 LINE"
);
},
{
closed = 1;
nodes = (
"465 385 LINE",
"465 454 LINE",
"118 454 LINE",
"118 385 LINE"
);
}
);
width = 598;
},
{
layerId = "397B4BA1-1DC1-423A-91EE-9CBCF179C3D0";
paths = (
{
closed = 1;
nodes = (
"568 0 LINE",
"568 512 LINE",
"655 512 LINE",
"655 622 LINE",
"434 622 LINE",
"434 253 LINE",
"435 263 LINE",
"395 241 OFFCURVE",
"359 231 OFFCURVE",
"313 231 CURVE SMOOTH",
"246 231 OFFCURVE",
"194 274 OFFCURVE",
"168 374 CURVE",
"156 291 LINE",
"206 338 OFFCURVE",
"234 380 OFFCURVE",
"234 451 CURVE SMOOTH",
"234 507 OFFCURVE",
"218 567 OFFCURVE",
"188 622 CURVE",
"-7 622 LINE",
"-7 512 LINE",
"85 512 LINE",
"96 494 OFFCURVE",
"101 467 OFFCURVE",
"101 441 CURVE SMOOTH",
"101 387 OFFCURVE",
"67 351 OFFCURVE",
"31 327 CURVE",
"87 195 OFFCURVE",
"171 119 OFFCURVE",
"308 119 CURVE SMOOTH",
"351 119 OFFCURVE",
"391 123 OFFCURVE",
"435 139 CURVE",
"434 145 LINE",
"434 0 LINE"
);
},
{
closed = 1;
nodes = (
"497 377 LINE",
"497 478 LINE",
"147 478 LINE",
"171 377 LINE"
);
}
);
width = 648;
},
{
layerId = "AD832606-5186-48BF-AC4A-95D20F9D6762";
paths = (
{
closed = 1;
nodes = (
"445 0 LINE",
"445 596 LINE",
"552 596 LINE",
"552 622 LINE",
"419 622 LINE",
"419 227 LINE",
"421 246 LINE",
"373 207 OFFCURVE",
"321 194 OFFCURVE",
"271 194 CURVE SMOOTH",
"184 194 OFFCURVE",
"114 243 OFFCURVE",
"78 334 CURVE",
"77 322 LINE",
"122 370 OFFCURVE",
"150 414 OFFCURVE",
"150 479 CURVE SMOOTH",
"150 530 OFFCURVE",
"136 575 OFFCURVE",
"115 622 CURVE",
"-7 622 LINE",
"-7 596 LINE",
"95 596 LINE",
"111 564 OFFCURVE",
"123 527 OFFCURVE",
"123 479 CURVE SMOOTH",
"123 420 OFFCURVE",
"97 379 OFFCURVE",
"50 333 CURVE",
"102 209 OFFCURVE",
"183 168 OFFCURVE",
"271 168 CURVE SMOOTH",
"332 168 OFFCURVE",
"378 184 OFFCURVE",
"423 215 CURVE",
"419 221 LINE",
"419 0 LINE"
);
},
{
closed = 1;
nodes = (
"429 406 LINE",
"429 432 LINE",
"132 432 LINE",
"132 406 LINE"
);
}
);
width = 545;
},
{
layerId = "F506C8C4-888D-41F0-91C9-49F2C7D2D9C4";
paths = (
{
closed = 1;
nodes = (
"606 0 LINE",
"606 484 LINE",
"683 484 LINE",
"683 622 LINE",
"429 622 LINE",
"429 252 LINE",
"455 288 LINE",
"424 265 OFFCURVE",
"381 248 OFFCURVE",
"328 248 CURVE SMOOTH",
"274 248 OFFCURVE",
"237 278 OFFCURVE",
"214 334 CURVE",
"182 278 LINE",
"244 325 OFFCURVE",
"269 381 OFFCURVE",
"269 445 CURVE SMOOTH",
"269 504 OFFCURVE",
"249 562 OFFCURVE",
"220 622 CURVE",
"-7 622 LINE",
"-7 484 LINE",
"81 484 LINE",
"89 467 OFFCURVE",
"92 450 OFFCURVE",
"92 434 CURVE SMOOTH",
"92 387 OFFCURVE",
"66 359 OFFCURVE",
"25 330 CURVE",
"92 171 OFFCURVE",
"185 109 OFFCURVE",
"322 109 CURVE SMOOTH",
"379 109 OFFCURVE",
"417 116 OFFCURVE",
"457 135 CURVE",
"429 145 LINE",
"429 0 LINE"
);
},
{
closed = 1;
nodes = (
"500 368 LINE",
"500 492 LINE",
"150 492 LINE",
"174 368 LINE"
);
}
);
width = 676;
},
{
layerId = "C86CFEE0-D181-456A-AA08-2B118FAF25CE";
paths = (
{
closed = 1;
nodes = (
"343 0 LINE",
"343 596 LINE",
"427 596 LINE",
"427 622 LINE",
"317 622 LINE",
"317 233 LINE",
"328 252 LINE",
"292 213 OFFCURVE",
"255 194 OFFCURVE",
"209 194 CURVE SMOOTH",
"130 194 OFFCURVE",
"93 246 OFFCURVE",
"65 342 CURVE",
"59 319 LINE",
"99 372 OFFCURVE",
"119 408 OFFCURVE",
"119 474 CURVE SMOOTH",
"119 523 OFFCURVE",
"103 576 OFFCURVE",
"83 622 CURVE",
"-7 622 LINE",
"-7 596 LINE",
"65 596 LINE",
"79 567 OFFCURVE",
"92 520 OFFCURVE",
"92 474 CURVE SMOOTH",
"92 416 OFFCURVE",
"74 382 OFFCURVE",
"39 336 CURVE",
"75 219 OFFCURVE",
"124 168 OFFCURVE",
"208 168 CURVE SMOOTH",
"260 168 OFFCURVE",
"300 188 OFFCURVE",
"331 220 CURVE",
"317 227 LINE",
"317 0 LINE"
);
},
{
closed = 1;
nodes = (
"335 406 LINE",
"333 432 LINE",
"102 432 LINE",
"102 406 LINE"
);
}
);
width = 420;
},
{
layerId = "CBEC276F-1F9B-404D-BC73-2CB92054D876";
paths = (
{
closed = 1;
nodes = (
"473 0 LINE",
"473 489 LINE",
"534 489 LINE",
"534 622 LINE",
"323 622 LINE",
"323 246 LINE",
"329 265 LINE",
"316 254 OFFCURVE",
"292 242 OFFCURVE",
"258 242 CURVE SMOOTH",
"219 242 OFFCURVE",
"196 270 OFFCURVE",
"177 341 CURVE",
"148 266 LINE",
"194 307 OFFCURVE",
"224 358 OFFCURVE",
"224 434 CURVE SMOOTH",
"224 497 OFFCURVE",
"207 561 OFFCURVE",
"181 622 CURVE",
"-7 622 LINE",
"-7 489 LINE",
"66 489 LINE",
"72 472 OFFCURVE",
"74 454 OFFCURVE",
"74 433 CURVE SMOOTH",
"74 389 OFFCURVE",
"53 352 OFFCURVE",
"21 320 CURVE",
"65 173 OFFCURVE",
"139 109 OFFCURVE",
"256 109 CURVE SMOOTH",
"297 109 OFFCURVE",
"330 119 OFFCURVE",
"357 138 CURVE",
"323 155 LINE",
"323 0 LINE"
);
},
{
closed = 1;
nodes = (
"414 371 LINE",
"414 490 LINE",
"94 490 LINE",
"118 371 LINE"
);
}
);
width = 527;
},
{
layerId = "04B5D069-3E89-43E6-853C-EFCF876AEDC5";
paths = (
{
closed = 1;
nodes = (
"387 0 LINE",
"387 554 LINE",
"458 554 LINE",
"458 622 LINE",
"312 622 LINE",
"312 223 LINE",
"317 238 LINE",
"289 217 OFFCURVE",
"264 204 OFFCURVE",
"224 204 CURVE SMOOTH",
"162 204 OFFCURVE",
"128 257 OFFCURVE",
"104 355 CURVE",
"98 314 LINE",
"132 350 OFFCURVE",
"157 391 OFFCURVE",
"157 462 CURVE SMOOTH",
"157 512 OFFCURVE",
"141 569 OFFCURVE",
"120 622 CURVE",
"-7 622 LINE",
"-7 554 LINE",
"63 554 LINE",
"74 523 OFFCURVE",
"82 492 OFFCURVE",
"82 461 CURVE SMOOTH",
"82 409 OFFCURVE",
"57 370 OFFCURVE",
"28 333 CURVE",
"68 191 OFFCURVE",
"128 134 OFFCURVE",
"221 134 CURVE SMOOTH",
"265 134 OFFCURVE",
"297 145 OFFCURVE",
"324 163 CURVE",
"312 183 LINE",
"312 0 LINE"
);
},
{
closed = 1;
nodes = (
"338 387 LINE",
"338 453 LINE",
"96 453 LINE",
"105 387 LINE"
);
}
);
width = 451;
}
);
unicode = 0A16;
},
{
glyphname = gaguru;
lastChange = "2019-02-21 10:42:34 +0000";
layers = (
{
layerId = UUID0;
paths = (
{
closed = 1;
nodes = (
"376 0 OFFCURVE",
"432 54 OFFCURVE",
"432 170 CURVE SMOOTH",
"432 551 LINE",
"521 551 LINE",
"521 622 LINE",
"-7 622 LINE",
"-7 551 LINE",
"351 551 LINE",
"351 408 LINE",
"247 408 LINE SMOOTH",
"153 408 OFFCURVE",
"110 394 OFFCURVE",
"78 362 CURVE SMOOTH",
"54 338 OFFCURVE",
"37 302 OFFCURVE",
"37 258 CURVE SMOOTH",
"37 132 OFFCURVE",
"145 0 OFFCURVE",
"275 0 CURVE SMOOTH"
);
},
{
closed = 1;
nodes = (
"195 73 OFFCURVE",
"118 173 OFFCURVE",
"118 252 CURVE SMOOTH",
"118 276 OFFCURVE",
"123 296 OFFCURVE",
"137 311 CURVE SMOOTH",
"157 331 OFFCURVE",
"182 337 OFFCURVE",
"263 337 CURVE SMOOTH",
"351 337 LINE",
"351 176 LINE SMOOTH",
"351 124 OFFCURVE",
"345 107 OFFCURVE",
"334 94 CURVE SMOOTH",
"318 77 OFFCURVE",
"298 73 OFFCURVE",
"274 73 CURVE SMOOTH"
);
},
{
closed = 1;
nodes = (
"661 0 LINE",
"661 551 LINE",
"757 551 LINE",
"757 622 LINE",
"484 622 LINE",
"485 551 LINE",
"580 551 LINE",
"580 0 LINE"
);
}
);
width = 750;
},
{
layerId = "397B4BA1-1DC1-423A-91EE-9CBCF179C3D0";
paths = (
{
closed = 1;
nodes = (
"436 0 OFFCURVE",
"493 60 OFFCURVE",
"493 175 CURVE SMOOTH",
"493 512 LINE",
"581 512 LINE",
"581 622 LINE",
"-7 622 LINE",
"-7 512 LINE",
"359 512 LINE",
"359 420 LINE",
"261 420 LINE SMOOTH",
"162 420 OFFCURVE",
"109 402 OFFCURVE",
"76 370 CURVE SMOOTH",
"50 345 OFFCURVE",
"32 311 OFFCURVE",
"32 265 CURVE SMOOTH",
"32 122 OFFCURVE",
"155 0 OFFCURVE",
"312 0 CURVE SMOOTH"
);
},
{
closed = 1;
nodes = (
"237 110 OFFCURVE",
"167 184 OFFCURVE",
"167 246 CURVE SMOOTH",
"167 264 OFFCURVE",
"169 279 OFFCURVE",
"184 292 CURVE SMOOTH",
"197 303 OFFCURVE",
"219 310 OFFCURVE",
"281 310 CURVE SMOOTH",
"359 310 LINE",
"359 188 LINE SMOOTH",
"359 149 OFFCURVE",
"355 137 OFFCURVE",
"347 127 CURVE SMOOTH",
"336 114 OFFCURVE",
"318 110 OFFCURVE",
"303 110 CURVE SMOOTH"
);
},
{
closed = 1;
nodes = (
"756 0 LINE",
"756 512 LINE",
"844 512 LINE",
"844 622 LINE",
"535 622 LINE",
"535 512 LINE",
"622 512 LINE",
"622 0 LINE"
);
}
);
width = 836;
},
{
layerId = "AD832606-5186-48BF-AC4A-95D20F9D6762";
paths = (
{
closed = 1;
nodes = (
"359 0 OFFCURVE",
"384 62 OFFCURVE",
"384 137 CURVE SMOOTH",
"384 596 LINE",
"517 596 LINE",
"517 622 LINE",
"-7 622 LINE",
"-7 596 LINE",
"358 596 LINE",
"358 397 LINE",
"221 397 LINE SMOOTH",
"144 397 OFFCURVE",
"107 382 OFFCURVE",
"81 357 CURVE SMOOTH",
"57 333 OFFCURVE",
"46 300 OFFCURVE",
"46 261 CURVE SMOOTH",
"46 142 OFFCURVE",
"157 0 OFFCURVE",
"279 0 CURVE SMOOTH"
);
},
{
closed = 1;
nodes = (
"171 26 OFFCURVE",
"73 158 OFFCURVE",
"73 260 CURVE SMOOTH",
"73 294 OFFCURVE",
"81 321 OFFCURVE",
"101 340 CURVE SMOOTH",
"122 360 OFFCURVE",
"153 371 OFFCURVE",
"214 371 CURVE SMOOTH",
"358 371 LINE",
"358 145 LINE SMOOTH",
"358 104 OFFCURVE",
"353 69 OFFCURVE",
"334 48 CURVE SMOOTH",
"321 34 OFFCURVE",
"303 26 OFFCURVE",
"279 26 CURVE SMOOTH"
);
},
{
closed = 1;
nodes = (
"574 0 LINE",
"574 596 LINE",
"681 596 LINE",
"681 622 LINE",
"437 622 LINE",
"437 596 LINE",
"548 596 LINE",
"548 0 LINE"
);
}
);
width = 674;
},
{
layerId = "F506C8C4-888D-41F0-91C9-49F2C7D2D9C4";
paths = (
{
closed = 1;
nodes = (
"457 0 OFFCURVE",
"528 51 OFFCURVE",
"528 187 CURVE SMOOTH",
"528 484 LINE",
"598 484 LINE",
"598 622 LINE",
"-7 622 LINE",
"-7 484 LINE",
"354 484 LINE",
"354 425 LINE",
"273 425 LINE SMOOTH",
"172 425 OFFCURVE",
"113 410 OFFCURVE",
"72 374 CURVE SMOOTH",
"43 348 OFFCURVE",
"25 313 OFFCURVE",
"25 265 CURVE SMOOTH",
"25 112 OFFCURVE",
"163 0 OFFCURVE",
"323 0 CURVE SMOOTH"
);
},
{
closed = 1;
nodes = (
"260 139 OFFCURVE",
"203 202 OFFCURVE",
"203 248 CURVE SMOOTH",
"203 259 OFFCURVE",
"207 269 OFFCURVE",
"214 275 CURVE SMOOTH",
"224 284 OFFCURVE",
"236 287 OFFCURVE",
"266 287 CURVE SMOOTH",
"351 287 LINE",
"351 191 LINE SMOOTH",
"351 168 OFFCURVE",
"348 155 OFFCURVE",
"340 147 CURVE SMOOTH",
"334 142 OFFCURVE",
"328 139 OFFCURVE",
"315 139 CURVE SMOOTH"
);
},
{
closed = 1;
nodes = (
"817 0 LINE",
"817 484 LINE",
"894 484 LINE",
"894 622 LINE",
"572 622 LINE",
"572 484 LINE",
"640 484 LINE",
"640 0 LINE"
);
}
);
width = 887;
},
{
layerId = "C86CFEE0-D181-456A-AA08-2B118FAF25CE";
paths = (
{
closed = 1;
nodes = (
"275 0 OFFCURVE",
"294 51 OFFCURVE",
"294 106 CURVE SMOOTH",
"294 596 LINE",
"385 596 LINE",
"385 622 LINE",
"-7 622 LINE",
"-7 596 LINE",
"268 596 LINE",
"268 398 LINE",
"197 398 LINE SMOOTH",
"143 398 OFFCURVE",
"109 390 OFFCURVE",
"84 372 CURVE SMOOTH",
"54 350 OFFCURVE",
"39 314 OFFCURVE",
"39 260 CURVE SMOOTH",
"39 152 OFFCURVE",
"103 0 OFFCURVE",
"209 0 CURVE SMOOTH"
);
},
{
closed = 1;
nodes = (
"124 26 OFFCURVE",
"66 164 OFFCURVE",
"66 260 CURVE SMOOTH",
"66 305 OFFCURVE",
"77 334 OFFCURVE",
"100 351 CURVE SMOOTH",
"120 366 OFFCURVE",
"147 372 OFFCURVE",
"201 372 CURVE SMOOTH",
"268 372 LINE",
"268 116 LINE SMOOTH",
"268 79 OFFCURVE",
"263 56 OFFCURVE",
"250 42 CURVE SMOOTH",
"240 31 OFFCURVE",
"227 26 OFFCURVE",
"209 26 CURVE SMOOTH"
);
},
{
closed = 1;
nodes = (
"440 0 LINE",
"440 596 LINE",
"524 596 LINE",
"524 622 LINE",
"331 622 LINE",
"331 596 LINE",
"414 596 LINE",
"414 0 LINE"
);
}
);
width = 517;
},
{
layerId = "CBEC276F-1F9B-404D-BC73-2CB92054D876";
paths = (
{
closed = 1;
nodes = (
"367 0 OFFCURVE",
"422 53 OFFCURVE",
"422 149 CURVE SMOOTH",
"422 489 LINE",
"466 489 LINE",
"466 622 LINE",
"-7 622 LINE",
"-7 489 LINE",
"275 489 LINE",
"275 424 LINE",
"226 424 LINE SMOOTH",
"147 424 OFFCURVE",
"105 413 OFFCURVE",
"71 387 CURVE SMOOTH",
"40 364 OFFCURVE",
"22 328 OFFCURVE",
"22 277 CURVE SMOOTH",
"22 136 OFFCURVE",
"109 0 OFFCURVE",
"254 0 CURVE SMOOTH"
);
},
{
closed = 1;
nodes = (
"210 133 OFFCURVE",
"173 194 OFFCURVE",
"173 252 CURVE SMOOTH",
"173 267 OFFCURVE",
"177 277 OFFCURVE",
"185 283 CURVE SMOOTH",
"194 290 OFFCURVE",
"204 292 OFFCURVE",
"234 292 CURVE SMOOTH",
"272 292 LINE",
"272 172 LINE SMOOTH",
"272 153 OFFCURVE",
"270 144 OFFCURVE",
"265 139 CURVE SMOOTH",
"260 134 OFFCURVE",
"255 133 OFFCURVE",
"246 133 CURVE SMOOTH"
);
},
{
closed = 1;
nodes = (
"656 0 LINE",
"656 489 LINE",
"717 489 LINE",
"717 622 LINE",
"453 622 LINE",
"453 489 LINE",
"506 489 LINE",
"506 0 LINE"
);
}
);
width = 710;
},
{
layerId = "04B5D069-3E89-43E6-853C-EFCF876AEDC5";
paths = (
{
closed = 1;
nodes = (
"301 0 OFFCURVE",
"332 66 OFFCURVE",
"332 129 CURVE SMOOTH",
"332 554 LINE",
"395 554 LINE",
"395 622 LINE",
"-7 622 LINE",
"-7 554 LINE",
"257 554 LINE",
"257 405 LINE",
"205 405 LINE SMOOTH",
"135 405 OFFCURVE",
"102 396 OFFCURVE",
"75 377 CURVE SMOOTH",
"45 355 OFFCURVE",
"29 319 OFFCURVE",
"29 268 CURVE SMOOTH",
"29 132 OFFCURVE",
"106 0 OFFCURVE",
"213 0 CURVE SMOOTH"
);
},
{
closed = 1;
nodes = (
"150 69 OFFCURVE",
"104 178 OFFCURVE",
"104 262 CURVE SMOOTH",
"104 290 OFFCURVE",
"111 308 OFFCURVE",
"124 320 CURVE SMOOTH",
"139 333 OFFCURVE",
"160 337 OFFCURVE",
"205 337 CURVE SMOOTH",
"257 337 LINE",
"257 137 LINE SMOOTH",
"257 110 OFFCURVE",
"254 92 OFFCURVE",
"244 81 CURVE SMOOTH",
"236 72 OFFCURVE",
"227 69 OFFCURVE",
"212 69 CURVE SMOOTH"
);
},
{
closed = 1;
nodes = (
"507 0 LINE",
"507 554 LINE",
"578 554 LINE",
"578 622 LINE",
"366 622 LINE",
"366 554 LINE",
"432 554 LINE",
"432 0 LINE"
);
}
);
width = 571;
}
);
unicode = 0A17;
},
{
glyphname = ghaguru;
lastChange = "2019-02-21 10:42:34 +0000";
layers = (
{
layerId = UUID0;
paths = (
{
closed = 1;
nodes = (
"318 133 OFFCURVE",
"377 182 OFFCURVE",
"405 315 CURVE",
"352 327 LINE",
"358 222 OFFCURVE",
"400 133 OFFCURVE",
"514 133 CURVE SMOOTH",
"551 133 OFFCURVE",
"581 143 OFFCURVE",
"604 162 CURVE",
"589 240 LINE",
"573 219 OFFCURVE",
"553 206 OFFCURVE",
"520 206 CURVE SMOOTH",
"475 206 OFFCURVE",
"436 236 OFFCURVE",
"415 315 CURVE",
"427 384 OFFCURVE",
"436 454 OFFCURVE",
"436 508 CURVE SMOOTH",
"436 567 OFFCURVE",
"424 608 OFFCURVE",
"381 608 CURVE SMOOTH",
"343 608 OFFCURVE",
"326 570 OFFCURVE",
"326 509 CURVE SMOOTH",
"326 451 OFFCURVE",
"332 386 OFFCURVE",
"342 317 CURVE",
"322 238 OFFCURVE",
"283 206 OFFCURVE",
"235 206 CURVE SMOOTH",
"182 206 OFFCURVE",
"140 248 OFFCURVE",
"118 362 CURVE",
"107 309 LINE",
"159 342 OFFCURVE",
"188 389 OFFCURVE",
"188 460 CURVE SMOOTH",
"188 509 OFFCURVE",
"171 568 OFFCURVE",
"142 622 CURVE",
"-7 622 LINE",
"-7 551 LINE",
"120 551 LINE",
"72 568 LINE",
"94 544 OFFCURVE",
"108 495 OFFCURVE",
"108 459 CURVE SMOOTH",
"108 405 OFFCURVE",
"78 367 OFFCURVE",
"38 333 CURVE",
"83 199 OFFCURVE",
"124 133 OFFCURVE",
"229 133 CURVE SMOOTH"
);
},
{
closed = 1;
nodes = (
"668 0 LINE",
"668 551 LINE",
"764 551 LINE",
"764 622 LINE",
"587 622 LINE",
"587 0 LINE"
);
}
);
width = 757;
},
{
layerId = "397B4BA1-1DC1-423A-91EE-9CBCF179C3D0";
paths = (
{
closed = 1;
nodes = (
"356 133 OFFCURVE",
"420 182 OFFCURVE",
"453 315 CURVE",
"365 327 LINE",
"372 222 OFFCURVE",
"409 133 OFFCURVE",
"534 133 CURVE SMOOTH",
"576 133 OFFCURVE",
"609 143 OFFCURVE",
"635 162 CURVE",
"620 279 LINE",
"606 262 OFFCURVE",
"589 245 OFFCURVE",
"551 245 CURVE SMOOTH",
"519 245 OFFCURVE",
"490 262 OFFCURVE",
"475 315 CURVE",
"486 378 OFFCURVE",
"494 451 OFFCURVE",
"494 490 CURVE SMOOTH",
"494 558 OFFCURVE",
"474 608 OFFCURVE",
"412 608 CURVE SMOOTH",
"355 608 OFFCURVE",
"329 569 OFFCURVE",
"329 490 CURVE SMOOTH",
"329 451 OFFCURVE",
"337 386 OFFCURVE",
"347 317 CURVE",
"332 264 OFFCURVE",
"298 245 OFFCURVE",
"265 245 CURVE SMOOTH",
"212 245 OFFCURVE",
"191 291 OFFCURVE",
"157 376 CURVE",
"143 295 LINE",
"206 332 OFFCURVE",
"234 378 OFFCURVE",
"234 451 CURVE SMOOTH",
"234 507 OFFCURVE",
"218 568 OFFCURVE",
"188 622 CURVE",
"-7 622 LINE",
"-7 512 LINE",
"107 512 LINE",
"78 524 LINE",
"97 498 OFFCURVE",
"101 466 OFFCURVE",
"101 441 CURVE SMOOTH",
"101 393 OFFCURVE",
"72 354 OFFCURVE",
"31 327 CURVE",
"81 202 OFFCURVE",
"132 133 OFFCURVE",
"256 133 CURVE SMOOTH"
);
},
{
closed = 1;
nodes = (
"735 0 LINE",
"735 512 LINE",
"822 512 LINE",
"822 622 LINE",
"601 622 LINE",
"601 0 LINE"
);
}
);
width = 815;
},
{
layerId = "AD832606-5186-48BF-AC4A-95D20F9D6762";
paths = (
{
closed = 1;
nodes = (
"311 169 OFFCURVE",
"361 238 OFFCURVE",
"366 355 CURVE",
"348 355 LINE",
"353 225 OFFCURVE",
"406 169 OFFCURVE",
"492 169 CURVE SMOOTH",
"546 169 OFFCURVE",
"577 191 OFFCURVE",
"603 220 CURVE",
"588 238 LINE",
"564 212 OFFCURVE",
"536 195 OFFCURVE",
"492 195 CURVE SMOOTH",
"430 195 OFFCURVE",
"378 241 OFFCURVE",
"368 335 CURVE",
"373 409 OFFCURVE",
"379 478 OFFCURVE",
"379 529 CURVE SMOOTH",
"379 588 OFFCURVE",
"374 606 OFFCURVE",
"356 606 CURVE SMOOTH",
"340 606 OFFCURVE",
"333 587 OFFCURVE",
"333 529 CURVE SMOOTH",
"333 475 OFFCURVE",
"339 409 OFFCURVE",
"344 336 CURVE",
"334 253 OFFCURVE",
"295 195 OFFCURVE",
"220 195 CURVE SMOOTH",
"151 195 OFFCURVE",
"103 235 OFFCURVE",
"77 336 CURVE",
"77 322 LINE",
"122 370 OFFCURVE",
"150 414 OFFCURVE",
"150 479 CURVE SMOOTH",
"150 530 OFFCURVE",
"136 575 OFFCURVE",
"115 622 CURVE",
"-7 622 LINE",
"-7 596 LINE",
"115 596 LINE",
"89 606 LINE",
"111 568 OFFCURVE",
"123 527 OFFCURVE",
"123 479 CURVE SMOOTH",
"123 419 OFFCURVE",
"97 379 OFFCURVE",
"50 333 CURVE",
"84 208 OFFCURVE",
"144 169 OFFCURVE",
"220 169 CURVE SMOOTH"
);
},
{
closed = 1;
nodes = (
"606 0 LINE",
"606 596 LINE",
"713 596 LINE",
"713 622 LINE",
"580 622 LINE",
"580 0 LINE"
);
}
);
width = 706;
},
{
layerId = "F506C8C4-888D-41F0-91C9-49F2C7D2D9C4";
paths = (
{
closed = 1;
nodes = (
"420 115 OFFCURVE",
"472 195 OFFCURVE",
"501 308 CURVE",
"381 327 LINE",
"388 212 OFFCURVE",
"428 115 OFFCURVE",
"561 115 CURVE SMOOTH",
"605 115 OFFCURVE",
"642 127 OFFCURVE",
"668 146 CURVE",
"641 287 LINE",
"626 261 OFFCURVE",
"604 253 OFFCURVE",
"579 253 CURVE SMOOTH",
"548 253 OFFCURVE",
"528 273 OFFCURVE",
"516 311 CURVE",
"530 366 OFFCURVE",
"539 428 OFFCURVE",
"539 486 CURVE SMOOTH",
"539 565 OFFCURVE",
"506 611 OFFCURVE",
"439 611 CURVE SMOOTH",
"373 611 OFFCURVE",
"339 562 OFFCURVE",
"339 485 CURVE SMOOTH",
"339 434 OFFCURVE",
"347 371 OFFCURVE",
"363 313 CURVE",
"349 275 OFFCURVE",
"329 254 OFFCURVE",
"292 254 CURVE SMOOTH",
"252 254 OFFCURVE",
"228 285 OFFCURVE",
"212 336 CURVE",
"186 278 LINE",
"248 325 OFFCURVE",
"273 382 OFFCURVE",
"273 445 CURVE SMOOTH",
"273 505 OFFCURVE",
"253 562 OFFCURVE",
"224 622 CURVE",
"-7 622 LINE",
"-7 484 LINE",
"107 484 LINE",
"68 515 LINE",
"87 489 OFFCURVE",
"96 459 OFFCURVE",
"96 434 CURVE SMOOTH",
"96 387 OFFCURVE",
"70 359 OFFCURVE",
"29 330 CURVE",
"71 189 OFFCURVE",
"154 115 OFFCURVE",
"277 115 CURVE SMOOTH"
);
},
{
closed = 1;
nodes = (
"793 0 LINE",
"793 484 LINE",
"870 484 LINE",
"870 622 LINE",
"616 622 LINE",
"616 0 LINE"
);
}
);
width = 863;
},
{
layerId = "C86CFEE0-D181-456A-AA08-2B118FAF25CE";
paths = (
{
closed = 1;
nodes = (
"238 169 OFFCURVE",
"274 219 OFFCURVE",
"277 329 CURVE",
"261 329 LINE",
"266 209 OFFCURVE",
"300 169 OFFCURVE",
"368 169 CURVE SMOOTH",
"408 169 OFFCURVE",
"433 185 OFFCURVE",
"457 205 CURVE",
"446 231 LINE",
"426 209 OFFCURVE",
"401 195 OFFCURVE",
"368 195 CURVE SMOOTH",
"327 195 OFFCURVE",
"291 215 OFFCURVE",
"282 305 CURVE",
"288 382 OFFCURVE",
"291 453 OFFCURVE",
"291 527 CURVE SMOOTH",
"291 590 OFFCURVE",
"284 606 OFFCURVE",
"270 606 CURVE SMOOTH",
"257 606 OFFCURVE",
"249 591 OFFCURVE",
"249 527 CURVE SMOOTH",
"249 454 OFFCURVE",
"254 382 OFFCURVE",
"258 305 CURVE",
"247 229 OFFCURVE",
"217 195 OFFCURVE",
"167 195 CURVE SMOOTH",
"118 195 OFFCURVE",
"86 236 OFFCURVE",
"65 342 CURVE",
"59 319 LINE",
"99 372 OFFCURVE",
"119 408 OFFCURVE",
"119 474 CURVE SMOOTH",
"119 523 OFFCURVE",
"103 576 OFFCURVE",
"83 622 CURVE",
"-7 622 LINE",
"-7 596 LINE",
"88 596 LINE",
"63 600 LINE",
"79 567 OFFCURVE",
"92 520 OFFCURVE",
"92 474 CURVE SMOOTH",
"92 416 OFFCURVE",
"74 382 OFFCURVE",
"39 336 CURVE",
"66 207 OFFCURVE",
"107 169 OFFCURVE",
"167 169 CURVE SMOOTH"
);
},
{
closed = 1;
nodes = (
"464 0 LINE",
"464 596 LINE",
"548 596 LINE",
"548 622 LINE",
"438 622 LINE",
"438 0 LINE"
);
}
);
width = 541;
},
{
layerId = "CBEC276F-1F9B-404D-BC73-2CB92054D876";
paths = (
{
closed = 1;
nodes = (
"334 115 OFFCURVE",
"406 194 OFFCURVE",
"417 327 CURVE",
"307 327 LINE",
"322 202 OFFCURVE",
"356 115 OFFCURVE",
"465 115 CURVE SMOOTH",
"490 115 OFFCURVE",
"521 125 OFFCURVE",
"541 144 CURVE",
"528 285 LINE",
"509 259 OFFCURVE",
"497 249 OFFCURVE",
"476 249 CURVE SMOOTH",
"459 249 OFFCURVE",
"436 261 OFFCURVE",
"434 304 CURVE",
"446 371 OFFCURVE",
"454 427 OFFCURVE",
"454 483 CURVE SMOOTH",
"454 563 OFFCURVE",
"423 608 OFFCURVE",
"365 608 CURVE SMOOTH",
"307 608 OFFCURVE",
"270 566 OFFCURVE",
"270 486 CURVE SMOOTH",
"270 429 OFFCURVE",
"278 371 OFFCURVE",
"290 301 CURVE",
"285 273 OFFCURVE",
"265 249 OFFCURVE",
"236 249 CURVE SMOOTH",
"202 249 OFFCURVE",
"184 283 OFFCURVE",
"181 343 CURVE",
"148 266 LINE",
"194 307 OFFCURVE",
"224 358 OFFCURVE",
"224 434 CURVE SMOOTH",
"224 497 OFFCURVE",
"207 561 OFFCURVE",
"181 622 CURVE",
"-7 622 LINE",
"-7 489 LINE",
"82 489 LINE",
"62 499 LINE",
"72 479 OFFCURVE",
"74 454 OFFCURVE",
"74 433 CURVE SMOOTH",
"74 389 OFFCURVE",
"53 352 OFFCURVE",
"21 320 CURVE",
"57 171 OFFCURVE",
"125 115 OFFCURVE",
"224 115 CURVE SMOOTH"
);
},
{
closed = 1;
nodes = (
"667 0 LINE",
"667 489 LINE",
"728 489 LINE",
"728 622 LINE",
"517 622 LINE",
"517 0 LINE"
);
}
);
width = 721;
},
{
layerId = "04B5D069-3E89-43E6-853C-EFCF876AEDC5";
paths = (
{
closed = 1;
nodes = (
"243 135 OFFCURVE",
"295 170 OFFCURVE",
"311 288 CURVE",
"266 289 LINE",
"274 182 OFFCURVE",
"305 135 OFFCURVE",
"379 135 CURVE SMOOTH",
"407 135 OFFCURVE",
"429 142 OFFCURVE",
"450 162 CURVE",
"442 240 LINE",
"429 216 OFFCURVE",
"412 204 OFFCURVE",
"387 204 CURVE SMOOTH",
"359 204 OFFCURVE",
"330 220 OFFCURVE",
"321 288 CURVE",
"332 365 OFFCURVE",
"338 435 OFFCURVE",
"338 492 CURVE SMOOTH",
"338 575 OFFCURVE",
"328 608 OFFCURVE",
"288 608 CURVE SMOOTH",
"251 608 OFFCURVE",
"237 575 OFFCURVE",
"237 495 CURVE SMOOTH",
"237 435 OFFCURVE",
"244 365 OFFCURVE",
"254 288 CURVE",
"240 218 OFFCURVE",
"211 204 OFFCURVE",
"187 204 CURVE SMOOTH",
"145 204 OFFCURVE",
"123 248 OFFCURVE",
"102 360 CURVE",
"98 314 LINE",
"132 350 OFFCURVE",
"157 391 OFFCURVE",
"157 462 CURVE SMOOTH",
"157 512 OFFCURVE",
"141 569 OFFCURVE",
"120 622 CURVE",
"-7 622 LINE",
"-7 554 LINE",
"85 554 LINE",
"54 571 LINE",
"73 539 OFFCURVE",
"82 492 OFFCURVE",
"82 461 CURVE SMOOTH",
"82 409 OFFCURVE",
"57 370 OFFCURVE",
"28 333 CURVE",
"60 200 OFFCURVE",
"98 135 OFFCURVE",
"183 135 CURVE SMOOTH"
);
},
{
closed = 1;
nodes = (
"506 0 LINE",
"506 554 LINE",
"577 554 LINE",
"577 622 LINE",
"431 622 LINE",
"431 0 LINE"
);
}
);
width = 570;
}
);
unicode = 0A18;
},
{
glyphname = ngaguru;
lastChange = "2019-02-21 10:44:12 +0000";
layers = (
{
layerId = UUID0;
paths = (
{
closed = 1;
nodes = (
"496 13 LINE",
"480 48 OFFCURVE",
"458 91 OFFCURVE",
"429 132 CURVE SMOOTH",
"374 210 OFFCURVE",
"301 273 OFFCURVE",
"188 273 CURVE SMOOTH",
"90 273 OFFCURVE",
"42 222 OFFCURVE",
"42 164 CURVE SMOOTH",
"42 86 OFFCURVE",
"102 37 OFFCURVE",
"236 37 CURVE SMOOTH",
"423 37 OFFCURVE",
"542 154 OFFCURVE",
"542 278 CURVE SMOOTH",
"542 325 OFFCURVE",
"527 360 OFFCURVE",
"499 386 CURVE SMOOTH",
"464 418 OFFCURVE",
"418 433 OFFCURVE",
"323 433 CURVE SMOOTH",
"170 433 LINE",
"170 551 LINE",
"586 551 LINE",
"586 622 LINE",
"-7 622 LINE",
"-7 551 LINE",
"89 551 LINE",
"89 391 LINE",
"119 362 LINE",
"301 362 LINE SMOOTH",
"388 362 OFFCURVE",
"414 353 OFFCURVE",
"436 335 CURVE SMOOTH",
"453 321 OFFCURVE",
"461 299 OFFCURVE",
"461 275 CURVE SMOOTH",
"461 223 OFFCURVE",
"433 175 OFFCURVE",
"384 144 CURVE SMOOTH",
"346 120 OFFCURVE",
"297 106 OFFCURVE",
"238 106 CURVE SMOOTH",
"163 106 OFFCURVE",
"123 123 OFFCURVE",
"123 160 CURVE SMOOTH",
"123 186 OFFCURVE",
"145 202 OFFCURVE",
"188 202 CURVE SMOOTH",
"312 202 OFFCURVE",
"382 81 OFFCURVE",
"418 -8 CURVE"
);
}
);
width = 579;
},
{
layerId = "397B4BA1-1DC1-423A-91EE-9CBCF179C3D0";
paths = (
{
closed = 1;
nodes = (
"551 18 LINE",
"523 75 OFFCURVE",
"491 131 OFFCURVE",
"458 173 CURVE",
"394 251 OFFCURVE",
"322 302 OFFCURVE",
"209 302 CURVE SMOOTH",
"97 302 OFFCURVE",
"39 248 OFFCURVE",
"39 174 CURVE SMOOTH",
"39 84 OFFCURVE",
"112 28 OFFCURVE",
"261 28 CURVE SMOOTH",
"458 28 OFFCURVE",
"602 128 OFFCURVE",
"602 291 CURVE SMOOTH",
"602 342 OFFCURVE",
"577 378 OFFCURVE",
"555 396 CURVE SMOOTH",
"509 435 OFFCURVE",
"453 443 OFFCURVE",
"365 443 CURVE SMOOTH",
"217 443 LINE",
"217 512 LINE",
"643 512 LINE",
"643 622 LINE",
"-7 622 LINE",
"-7 512 LINE",
"83 512 LINE",
"83 368 LINE",
"118 333 LINE",
"349 333 LINE SMOOTH",
"411 333 OFFCURVE",
"430 330 OFFCURVE",
"447 317 CURVE SMOOTH",
"461 306 OFFCURVE",
"467 292 OFFCURVE",
"467 272 CURVE SMOOTH",
"467 239 OFFCURVE",
"451 207 OFFCURVE",
"416 180 CURVE SMOOTH",
"382 153 OFFCURVE",
"335 135 OFFCURVE",
"259 135 CURVE SMOOTH",
"198 135 OFFCURVE",
"170 147 OFFCURVE",
"170 171 CURVE SMOOTH",
"170 193 OFFCURVE",
"188 201 OFFCURVE",
"223 201 CURVE SMOOTH",
"291 201 OFFCURVE",
"370 148 OFFCURVE",
"436 -15 CURVE"
);
}
);
width = 635;
},
{
layerId = "AD832606-5186-48BF-AC4A-95D20F9D6762";
paths = (
{
closed = 1;
nodes = (
"460 0 LINE",
"441 42 OFFCURVE",
"419 83 OFFCURVE",
"394 118 CURVE",
"331 210 OFFCURVE",
"259 260 OFFCURVE",
"173 260 CURVE SMOOTH",
"99 260 OFFCURVE",
"51 218 OFFCURVE",
"51 155 CURVE SMOOTH",
"51 89 OFFCURVE",
"109 40 OFFCURVE",
"220 40 CURVE SMOOTH",
"373 40 OFFCURVE",
"491 149 OFFCURVE",
"491 281 CURVE SMOOTH",
"491 327 OFFCURVE",
"477 362 OFFCURVE",
"450 387 CURVE SMOOTH",
"418 417 OFFCURVE",
"375 431 OFFCURVE",
"288 431 CURVE SMOOTH",
"126 431 LINE",
"126 596 LINE",
"544 596 LINE",
"544 622 LINE",
"-7 622 LINE",
"-7 596 LINE",
"100 596 LINE",
"100 420 LINE",
"117 405 LINE",
"278 405 LINE SMOOTH",
"370 405 OFFCURVE",
"405 392 OFFCURVE",
"432 367 CURVE SMOOTH",
"454 347 OFFCURVE",
"464 318 OFFCURVE",
"464 281 CURVE SMOOTH",
"464 216 OFFCURVE",
"433 157 OFFCURVE",
"382 118 CURVE SMOOTH",
"338 84 OFFCURVE",
"284 66 OFFCURVE",
"221 66 CURVE SMOOTH",
"125 66 OFFCURVE",
"78 102 OFFCURVE",
"78 155 CURVE SMOOTH",
"78 206 OFFCURVE",
"119 234 OFFCURVE",
"174 234 CURVE SMOOTH",
"304 234 OFFCURVE",
"391 93 OFFCURVE",
"435 -7 CURVE"
);
}
);
width = 537;
},
{
layerId = "F506C8C4-888D-41F0-91C9-49F2C7D2D9C4";
paths = (
{
closed = 1;
nodes = (
"574 21 LINE",
"547 70 OFFCURVE",
"519 115 OFFCURVE",
"487 152 CURVE",
"404 247 OFFCURVE",
"333 288 OFFCURVE",
"207 288 CURVE SMOOTH",
"80 288 OFFCURVE",
"27 237 OFFCURVE",
"27 162 CURVE SMOOTH",
"27 46 OFFCURVE",
"155 18 OFFCURVE",
"272 18 CURVE SMOOTH",
"477 18 OFFCURVE",
"633 117 OFFCURVE",
"633 278 CURVE SMOOTH",
"633 327 OFFCURVE",
"614 365 OFFCURVE",
"580 392 CURVE SMOOTH",
"542 422 OFFCURVE",
"495 437 OFFCURVE",
"396 437 CURVE SMOOTH",
"250 437 LINE",
"250 484 LINE",
"665 484 LINE",
"665 622 LINE",
"-7 622 LINE",
"-7 484 LINE",
"76 484 LINE",
"76 349 LINE",
"121 304 LINE",
"383 304 LINE SMOOTH",
"415 304 OFFCURVE",
"430 301 OFFCURVE",
"443 291 CURVE SMOOTH",
"452 284 OFFCURVE",
"457 273 OFFCURVE",
"457 258 CURVE SMOOTH",
"457 220 OFFCURVE",
"439 194 OFFCURVE",
"407 172 CURVE",
"372 149 OFFCURVE",
"320 137 OFFCURVE",
"267 137 CURVE SMOOTH",
"218 137 OFFCURVE",
"202 145 OFFCURVE",
"202 159 CURVE SMOOTH",
"202 173 OFFCURVE",
"215 178 OFFCURVE",
"236 178 CURVE SMOOTH",
"295 178 OFFCURVE",
"366 128 OFFCURVE",
"427 -19 CURVE"
);
}
);
width = 658;
},
{
layerId = "C86CFEE0-D181-456A-AA08-2B118FAF25CE";
paths = (
{
closed = 1;
nodes = (
"360 1 LINE",
"348 48 OFFCURVE",
"334 89 OFFCURVE",
"318 125 CURVE",
"284 201 OFFCURVE",
"233 252 OFFCURVE",
"155 252 CURVE SMOOTH",
"84 252 OFFCURVE",
"44 209 OFFCURVE",
"44 150 CURVE SMOOTH",
"44 78 OFFCURVE",
"97 40 OFFCURVE",
"169 40 CURVE SMOOTH",
"287 40 OFFCURVE",
"372 144 OFFCURVE",
"372 275 CURVE SMOOTH",
"372 332 OFFCURVE",
"356 374 OFFCURVE",
"325 399 CURVE SMOOTH",
"298 422 OFFCURVE",
"264 431 OFFCURVE",
"198 431 CURVE SMOOTH",
"103 431 LINE",
"103 596 LINE",
"418 596 LINE",
"418 622 LINE",
"-7 622 LINE",
"-7 596 LINE",
"77 596 LINE",
"77 422 LINE",
"93 405 LINE",
"196 405 LINE SMOOTH",
"257 405 OFFCURVE",
"286 397 OFFCURVE",
"308 379 CURVE SMOOTH",
"333 358 OFFCURVE",
"345 325 OFFCURVE",
"345 275 CURVE SMOOTH",
"345 219 OFFCURVE",
"330 169 OFFCURVE",
"302 132 CURVE SMOOTH",
"271 91 OFFCURVE",
"226 66 OFFCURVE",
"169 66 CURVE SMOOTH",
"110 66 OFFCURVE",
"71 96 OFFCURVE",
"71 150 CURVE SMOOTH",
"71 190 OFFCURVE",
"95 226 OFFCURVE",
"155 226 CURVE SMOOTH",
"249 226 OFFCURVE",
"301 133 OFFCURVE",
"334 -5 CURVE"
);
}
);
width = 411;
},
{
layerId = "CBEC276F-1F9B-404D-BC73-2CB92054D876";
paths = (
{
closed = 1;
nodes = (
"482 11 LINE",
"458 78 OFFCURVE",
"430 131 OFFCURVE",
"401 173 CURVE",
"336 259 OFFCURVE",
"274 288 OFFCURVE",
"179 288 CURVE SMOOTH",
"70 288 OFFCURVE",
"20 235 OFFCURVE",
"20 162 CURVE SMOOTH",
"20 83 OFFCURVE",
"75 18 OFFCURVE",
"218 18 CURVE SMOOTH",
"371 18 OFFCURVE",
"506 112 OFFCURVE",
"506 264 CURVE SMOOTH",
"506 327 OFFCURVE",
"485 373 OFFCURVE",
"444 401 CURVE SMOOTH",
"409 426 OFFCURVE",
"367 437 OFFCURVE",
"284 437 CURVE SMOOTH",
"203 437 LINE",
"203 489 LINE",
"533 489 LINE",
"533 622 LINE",
"-7 622 LINE",
"-7 489 LINE",
"56 489 LINE",
"56 355 LINE",
"112 307 LINE",
"282 307 LINE SMOOTH",
"317 307 OFFCURVE",
"331 303 OFFCURVE",
"343 294 CURVE SMOOTH",
"353 286 OFFCURVE",
"358 274 OFFCURVE",
"358 255 CURVE SMOOTH",
"358 223 OFFCURVE",
"341 195 OFFCURVE",
"316 173 CURVE SMOOTH",
"290 151 OFFCURVE",
"252 137 OFFCURVE",
"216 137 CURVE SMOOTH",
"183 137 OFFCURVE",
"168 142 OFFCURVE",
"168 159 CURVE SMOOTH",
"168 175 OFFCURVE",
"184 180 OFFCURVE",
"202 180 CURVE SMOOTH",
"256 180 OFFCURVE",
"308 137 OFFCURVE",
"344 -14 CURVE"
);
}
);
width = 526;
},
{
layerId = "04B5D069-3E89-43E6-853C-EFCF876AEDC5";
paths = (
{
closed = 1;
nodes = (
"395 8 LINE",
"381 60 OFFCURVE",
"362 110 OFFCURVE",
"341 148 CURVE",
"302 223 OFFCURVE",
"247 268 OFFCURVE",
"162 268 CURVE SMOOTH",
"78 268 OFFCURVE",
"31 219 OFFCURVE",
"31 158 CURVE SMOOTH",
"31 86 OFFCURVE",
"79 37 OFFCURVE",
"181 37 CURVE SMOOTH",
"317 37 OFFCURVE",
"412 144 OFFCURVE",
"412 273 CURVE SMOOTH",
"412 329 OFFCURVE",
"395 367 OFFCURVE",
"365 393 CURVE SMOOTH",
"333 421 OFFCURVE",
"293 432 OFFCURVE",
"206 432 CURVE SMOOTH",
"143 432 LINE",
"143 554 LINE",
"448 554 LINE",
"448 622 LINE",
"-7 622 LINE",
"-7 554 LINE",
"68 554 LINE",
"68 393 LINE",
"92 364 LINE",
"197 364 LINE SMOOTH",
"262 364 OFFCURVE",
"288 358 OFFCURVE",
"310 340 CURVE SMOOTH",
"328 326 OFFCURVE",
"337 303 OFFCURVE",
"337 269 CURVE SMOOTH",
"337 230 OFFCURVE",
"326 190 OFFCURVE",
"297 156 CURVE",
"272 126 OFFCURVE",
"236 104 OFFCURVE",
"180 104 CURVE SMOOTH",
"132 104 OFFCURVE",
"105 121 OFFCURVE",
"105 156 CURVE SMOOTH",
"105 185 OFFCURVE",
"129 201 OFFCURVE",
"166 201 CURVE SMOOTH",
"250 201 OFFCURVE",
"299 120 OFFCURVE",
"322 -6 CURVE"
);
}
);
width = 441;
}
);
unicode = 0A19;
},
{
glyphname = caguru;
lastChange = "2019-02-21 10:44:12 +0000";
layers = (
{
layerId = UUID0;
paths = (
{
closed = 1;
nodes = (
"513 0 OFFCURVE",
"568 57 OFFCURVE",
"568 175 CURVE SMOOTH",
"568 556 LINE",
"487 556 LINE",
"487 183 LINE SMOOTH",
"487 128 OFFCURVE",
"480 110 OFFCURVE",
"468 96 CURVE SMOOTH",
"452 78 OFFCURVE",
"426 73 OFFCURVE",
"395 73 CURVE SMOOTH",
"285 73 OFFCURVE",
"186 174 OFFCURVE",
"181 306 CURVE",
"160 291 LINE",
"525 291 LINE",
"532 362 LINE",
"182 362 LINE",
"182 387 LINE SMOOTH",
"182 416 OFFCURVE",
"171 442 OFFCURVE",
"139 442 CURVE SMOOTH",
"96 442 OFFCURVE",
"32 377 OFFCURVE",
"32 329 CURVE SMOOTH",
"32 308 OFFCURVE",
"46 291 OFFCURVE",
"83 291 CURVE SMOOTH",
"112 291 LINE",
"100 302 LINE",
"104 224 OFFCURVE",
"138 145 OFFCURVE",
"182 96 CURVE SMOOTH",
"230 41 OFFCURVE",
"301 0 OFFCURVE",
"388 0 CURVE SMOOTH"
);
},
{
closed = 1;
nodes = (
"664 551 LINE",
"664 622 LINE",
"-7 622 LINE",
"-7 551 LINE"
);
}
);
width = 657;
},
{
layerId = "397B4BA1-1DC1-423A-91EE-9CBCF179C3D0";
paths = (
{
closed = 1;
nodes = (
"553 0 OFFCURVE",
"622 51 OFFCURVE",
"622 175 CURVE SMOOTH",
"622 523 LINE",
"488 523 LINE",
"488 188 LINE SMOOTH",
"488 149 OFFCURVE",
"482 137 OFFCURVE",
"472 127 CURVE SMOOTH",
"458 114 OFFCURVE",
"436 110 OFFCURVE",
"410 110 CURVE SMOOTH",
"325 110 OFFCURVE",
"246 183 OFFCURVE",
"230 289 CURVE",
"212 269 LINE",
"516 269 LINE",
"496 379 LINE",
"235 379 LINE",
"235 390 LINE SMOOTH",
"235 433 OFFCURVE",
"213 459 OFFCURVE",
"170 459 CURVE SMOOTH",
"96 459 OFFCURVE",
"24 375 OFFCURVE",
"24 321 CURVE SMOOTH",
"24 290 OFFCURVE",
"42 269 OFFCURVE",
"87 269 CURVE SMOOTH",
"111 269 LINE",
"99 281 LINE",
"107 223 OFFCURVE",
"135 153 OFFCURVE",
"181 101 CURVE SMOOTH",
"232 43 OFFCURVE",
"312 0 OFFCURVE",
"415 0 CURVE SMOOTH"
);
},
{
closed = 1;
nodes = (
"709 512 LINE",
"709 622 LINE",
"-7 622 LINE",
"-7 512 LINE"
);
}
);
width = 702;
},
{
layerId = "AD832606-5186-48BF-AC4A-95D20F9D6762";
paths = (
{
closed = 1;
nodes = (
"467 0 OFFCURVE",
"489 60 OFFCURVE",
"489 143 CURVE SMOOTH",
"489 601 LINE",
"463 601 LINE",
"463 154 LINE SMOOTH",
"463 104 OFFCURVE",
"458 71 OFFCURVE",
"439 50 CURVE SMOOTH",
"427 37 OFFCURVE",
"410 26 OFFCURVE",
"369 26 CURVE SMOOTH",
"263 26 OFFCURVE",
"134 128 OFFCURVE",
"116 343 CURVE",
"109 333 LINE",
"471 333 LINE",
"478 359 LINE",
"119 359 LINE",
"119 386 LINE SMOOTH",
"119 403 OFFCURVE",
"116 419 OFFCURVE",
"101 419 CURVE SMOOTH",
"76 419 OFFCURVE",
"40 378 OFFCURVE",
"40 354 CURVE SMOOTH",
"40 337 OFFCURVE",
"57 333 OFFCURVE",
"80 333 CURVE SMOOTH",
"99 333 LINE",
"89 340 LINE",
"94 269 OFFCURVE",
"117 192 OFFCURVE",
"151 138 CURVE SMOOTH",
"203 54 OFFCURVE",
"282 0 OFFCURVE",
"370 0 CURVE SMOOTH"
);
},
{
closed = 1;
nodes = (
"596 596 LINE",
"596 622 LINE",
"-7 622 LINE",
"-7 596 LINE"
);
}
);
width = 589;
},
{
layerId = "F506C8C4-888D-41F0-91C9-49F2C7D2D9C4";
paths = (
{
closed = 1;
nodes = (
"568 0 OFFCURVE",
"639 52 OFFCURVE",
"639 193 CURVE SMOOTH",
"639 523 LINE",
"462 523 LINE",
"462 203 LINE SMOOTH",
"462 172 OFFCURVE",
"459 159 OFFCURVE",
"451 151 CURVE SMOOTH",
"442 142 OFFCURVE",
"429 139 OFFCURVE",
"404 139 CURVE SMOOTH",
"350 139 OFFCURVE",
"276 176 OFFCURVE",
"256 262 CURVE",
"205 244 LINE",
"509 244 LINE",
"489 382 LINE",
"259 382 LINE",
"259 384 LINE SMOOTH",
"259 423 OFFCURVE",
"237 453 OFFCURVE",
"180 453 CURVE SMOOTH",
"100 453 OFFCURVE",
"13 369 OFFCURVE",
"13 305 CURVE SMOOTH",
"13 262 OFFCURVE",
"40 242 OFFCURVE",
"80 242 CURVE SMOOTH",
"123 242 LINE",
"73 278 LINE",
"92 192 OFFCURVE",
"122 135 OFFCURVE",
"172 89 CURVE SMOOTH",
"235 30 OFFCURVE",
"322 0 OFFCURVE",
"411 0 CURVE SMOOTH"
);
},
{
closed = 1;
nodes = (
"716 484 LINE",
"716 622 LINE",
"-7 622 LINE",
"-7 484 LINE"
);
}
);
width = 709;
},
{
layerId = "C86CFEE0-D181-456A-AA08-2B118FAF25CE";
paths = (
{
closed = 1;
nodes = (
"357 0 OFFCURVE",
"384 42 OFFCURVE",
"384 124 CURVE SMOOTH",
"384 603 LINE",
"358 603 LINE",
"358 141 LINE SMOOTH",
"358 92 OFFCURVE",
"354 61 OFFCURVE",
"336 43 CURVE SMOOTH",
"325 32 OFFCURVE",
"310 26 OFFCURVE",
"284 26 CURVE SMOOTH",
"187 26 OFFCURVE",
"105 153 OFFCURVE",
"93 351 CURVE",
"89 333 LINE",
"372 333 LINE",
"377 359 LINE",
"96 359 LINE",
"96 386 LINE SMOOTH",
"96 404 OFFCURVE",
"92 413 OFFCURVE",
"81 413 CURVE SMOOTH",
"60 413 OFFCURVE",
"32 375 OFFCURVE",
"32 351 CURVE SMOOTH",
"32 335 OFFCURVE",
"45 333 OFFCURVE",
"60 333 CURVE SMOOTH",
"77 333 LINE",
"67 340 LINE",
"74 266 OFFCURVE",
"89 193 OFFCURVE",
"117 133 CURVE SMOOTH",
"154 53 OFFCURVE",
"214 0 OFFCURVE",
"284 0 CURVE SMOOTH"
);
},
{
closed = 1;
nodes = (
"468 596 LINE",
"468 622 LINE",
"-7 622 LINE",
"-7 596 LINE"
);
}
);
width = 461;
},
{
layerId = "CBEC276F-1F9B-404D-BC73-2CB92054D876";
paths = (
{
closed = 1;
nodes = (
"464 0 OFFCURVE",
"501 76 OFFCURVE",
"501 155 CURVE SMOOTH",
"501 523 LINE",
"351 523 LINE",
"351 179 LINE SMOOTH",
"351 155 OFFCURVE",
"350 147 OFFCURVE",
"344 141 CURVE SMOOTH",
"339 136 OFFCURVE",
"333 133 OFFCURVE",
"318 133 CURVE SMOOTH",
"285 133 OFFCURVE",
"214 176 OFFCURVE",
"211 278 CURVE",
"169 248 LINE",
"398 248 LINE",
"382 379 LINE",
"209 379 LINE",
"209 382 LINE SMOOTH",
"209 423 OFFCURVE",
"191 444 OFFCURVE",
"148 444 CURVE SMOOTH",
"84 444 OFFCURVE",
"10 361 OFFCURVE",
"10 296 CURVE SMOOTH",
"10 261 OFFCURVE",
"31 246 OFFCURVE",
"53 246 CURVE SMOOTH",
"89 246 LINE",
"59 282 LINE",
"66 199 OFFCURVE",
"105 122 OFFCURVE",
"151 75 CURVE SMOOTH",
"190 34 OFFCURVE",
"253 0 OFFCURVE",
"326 0 CURVE SMOOTH"
);
},
{
closed = 1;
nodes = (
"562 489 LINE",
"562 622 LINE",
"-7 622 LINE",
"-7 489 LINE"
);
}
);
width = 555;
},
{
layerId = "04B5D069-3E89-43E6-853C-EFCF876AEDC5";
paths = (
{
closed = 1;
nodes = (
"391 0 OFFCURVE",
"430 59 OFFCURVE",
"430 146 CURVE SMOOTH",
"430 559 LINE",
"355 559 LINE",
"355 159 LINE SMOOTH",
"355 114 OFFCURVE",
"351 96 OFFCURVE",
"340 84 CURVE SMOOTH",
"331 74 OFFCURVE",
"318 69 OFFCURVE",
"300 69 CURVE SMOOTH",
"228 69 OFFCURVE",
"162 156 OFFCURVE",
"151 300 CURVE",
"135 293 LINE",
"360 293 LINE",
"355 361 LINE",
"151 361 LINE",
"151 397 LINE SMOOTH",
"151 422 OFFCURVE",
"140 439 OFFCURVE",
"118 439 CURVE SMOOTH",
"73 439 OFFCURVE",
"24 372 OFFCURVE",
"24 329 CURVE SMOOTH",
"24 309 OFFCURVE",
"35 292 OFFCURVE",
"71 292 CURVE SMOOTH",
"88 292 LINE",
"75 311 LINE",
"81 214 OFFCURVE",
"104 150 OFFCURVE",
"138 97 CURVE SMOOTH",
"172 44 OFFCURVE",
"229 0 OFFCURVE",
"301 0 CURVE SMOOTH"
);
},
{
closed = 1;
nodes = (
"501 554 LINE",
"501 622 LINE",
"-7 622 LINE",
"-7 554 LINE"
);
}
);
width = 494;
}
);
unicode = 0A1A;
},
{
glyphname = chaguru;
lastChange = "2019-02-21 10:44:12 +0000";
layers = (
{
layerId = UUID0;
paths = (
{
closed = 1;
nodes = (
"513 0 OFFCURVE",
"596 47 OFFCURVE",
"596 146 CURVE SMOOTH",
"596 244 OFFCURVE",
"512 287 OFFCURVE",
"399 287 CURVE SMOOTH",
"230 287 LINE SMOOTH",
"174 287 OFFCURVE",
"132 295 OFFCURVE",
"132 338 CURVE SMOOTH",
"132 355 OFFCURVE",
"139 366 OFFCURVE",
"151 373 CURVE SMOOTH",
"167 383 OFFCURVE",
"195 386 OFFCURVE",
"229 386 CURVE SMOOTH",
"505 386 LINE",
"534 415 LINE",
"534 551 LINE",
"642 551 LINE",
"642 622 LINE",
"-7 622 LINE",
"-7 551 LINE",
"454 551 LINE",
"454 457 LINE",
"243 457 LINE SMOOTH",
"161 457 OFFCURVE",
"123 449 OFFCURVE",
"88 420 CURVE SMOOTH",
"66 402 OFFCURVE",
"51 373 OFFCURVE",
"51 341 CURVE SMOOTH",
"51 279 OFFCURVE",
"96 246 OFFCURVE",
"158 229 CURVE",
"158 218 LINE",
"379 218 LINE SMOOTH",
"451 218 OFFCURVE",
"516 205 OFFCURVE",
"516 147 CURVE SMOOTH",
"516 90 OFFCURVE",
"462 68 OFFCURVE",
"336 68 CURVE SMOOTH",
"314 68 LINE SMOOTH",
"180 68 OFFCURVE",
"126 91 OFFCURVE",
"126 146 CURVE SMOOTH",
"126 196 OFFCURVE",
"177 218 OFFCURVE",
"246 218 CURVE",
"157 254 LINE",
"67 231 OFFCURVE",
"46 180 OFFCURVE",
"46 144 CURVE SMOOTH",
"46 42 OFFCURVE",
"133 0 OFFCURVE",
"316 0 CURVE SMOOTH"
);
},
{
closed = 1;
nodes = (
"359 233 LINE",
"284 233 LINE",
"284 50 LINE",
"359 50 LINE"
);
}
);
width = 634;
},
{
layerId = "397B4BA1-1DC1-423A-91EE-9CBCF179C3D0";
paths = (
{
closed = 1;
nodes = (
"563 0 OFFCURVE",
"655 47 OFFCURVE",
"655 148 CURVE SMOOTH",
"655 254 OFFCURVE",
"563 284 OFFCURVE",
"442 284 CURVE SMOOTH",
"252 284 LINE SMOOTH",
"213 284 OFFCURVE",
"188 290 OFFCURVE",
"188 318 CURVE SMOOTH",
"188 331 OFFCURVE",
"193 338 OFFCURVE",
"202 343 CURVE SMOOTH",
"213 349 OFFCURVE",
"224 351 OFFCURVE",
"260 351 CURVE SMOOTH",
"563 351 LINE",
"593 388 LINE",
"593 512 LINE",
"696 512 LINE",
"696 622 LINE",
"-7 622 LINE",
"-7 512 LINE",
"458 512 LINE",
"458 451 LINE",
"262 451 LINE SMOOTH",
"178 451 OFFCURVE",
"129 443 OFFCURVE",
"94 420 CURVE SMOOTH",
"64 400 OFFCURVE",
"46 370 OFFCURVE",
"46 326 CURVE SMOOTH",
"46 266 OFFCURVE",
"85 225 OFFCURVE",
"169 198 CURVE",
"169 183 LINE",
"425 183 LINE SMOOTH",
"479 183 OFFCURVE",
"521 182 OFFCURVE",
"521 145 CURVE SMOOTH",
"521 112 OFFCURVE",
"480 101 OFFCURVE",
"400 101 CURVE SMOOTH",
"276 101 LINE SMOOTH",
"209 101 OFFCURVE",
"176 113 OFFCURVE",
"176 146 CURVE SMOOTH",
"176 173 OFFCURVE",
"203 183 OFFCURVE",
"261 183 CURVE",
"148 254 LINE",
"62 223 OFFCURVE",
"42 178 OFFCURVE",
"42 144 CURVE SMOOTH",
"42 42 OFFCURVE",
"137 0 OFFCURVE",
"345 0 CURVE SMOOTH"
);
},
{
closed = 1;
nodes = (
"414 233 LINE",
"284 233 LINE",
"284 50 LINE",
"414 49 LINE"
);
}
);
width = 689;
},
{
layerId = "AD832606-5186-48BF-AC4A-95D20F9D6762";
paths = (
{
closed = 1;
nodes = (
"489 0 OFFCURVE",
"555 39 OFFCURVE",
"555 135 CURVE SMOOTH",
"555 211 OFFCURVE",
"502 261 OFFCURVE",
"370 261 CURVE SMOOTH",
"255 261 LINE SMOOTH",
"146 261 OFFCURVE",
"86 279 OFFCURVE",
"86 347 CURVE SMOOTH",
"86 371 OFFCURVE",
"96 388 OFFCURVE",
"113 400 CURVE SMOOTH",
"133 414 OFFCURVE",
"160 419 OFFCURVE",
"208 419 CURVE SMOOTH",
"475 419 LINE",
"492 434 LINE",
"492 596 LINE",
"609 596 LINE",
"609 622 LINE",
"-7 622 LINE",
"-7 596 LINE",
"466 596 LINE",
"466 445 LINE",
"211 445 LINE SMOOTH",
"161 445 OFFCURVE",
"125 440 OFFCURVE",
"100 423 CURVE SMOOTH",
"75 406 OFFCURVE",
"59 383 OFFCURVE",
"59 347 CURVE SMOOTH",
"59 283 OFFCURVE",
"104 251 OFFCURVE",
"185 245 CURVE",
"184 235 LINE",
"371 235 LINE SMOOTH",
"480 235 OFFCURVE",
"528 200 OFFCURVE",
"528 135 CURVE SMOOTH",
"528 64 OFFCURVE",
"483 25 OFFCURVE",
"312 25 CURVE SMOOTH",
"290 25 LINE SMOOTH",
"158 25 OFFCURVE",
"82 54 OFFCURVE",
"82 135 CURVE SMOOTH",
"82 196 OFFCURVE",
"132 235 OFFCURVE",
"246 235 CURVE",
"185 248 LINE",
"90 240 OFFCURVE",
"55 187 OFFCURVE",
"55 135 CURVE SMOOTH",
"55 35 OFFCURVE",
"146 0 OFFCURVE",
"307 0 CURVE SMOOTH"
);
},
{
closed = 1;
nodes = (
"314 252 LINE",
"288 252 LINE",
"288 10 LINE",
"314 10 LINE"
);
}
);
width = 602;
},
{
layerId = "F506C8C4-888D-41F0-91C9-49F2C7D2D9C4";
paths = (
{
closed = 1;
nodes = (
"575 0 OFFCURVE",
"686 28 OFFCURVE",
"686 149 CURVE SMOOTH",
"686 250 OFFCURVE",
"594 287 OFFCURVE",
"463 287 CURVE SMOOTH",
"271 287 LINE SMOOTH",
"237 287 OFFCURVE",
"219 292 OFFCURVE",
"219 308 CURVE SMOOTH",
"219 314 OFFCURVE",
"221 319 OFFCURVE",
"226 322 CURVE SMOOTH",
"230 325 OFFCURVE",
"237 327 OFFCURVE",
"258 327 CURVE SMOOTH",
"575 327 LINE",
"625 367 LINE",
"625 484 LINE",
"715 484 LINE",
"715 622 LINE",
"-7 622 LINE",
"-7 484 LINE",
"453 484 LINE",
"453 446 LINE",
"258 446 LINE SMOOTH",
"181 446 OFFCURVE",
"142 439 OFFCURVE",
"106 421 CURVE SMOOTH",
"66 401 OFFCURVE",
"39 370 OFFCURVE",
"39 313 CURVE SMOOTH",
"39 248 OFFCURVE",
"89 213 OFFCURVE",
"168 190 CURVE",
"167 175 LINE",
"438 175 LINE SMOOTH",
"489 175 OFFCURVE",
"506 165 OFFCURVE",
"506 145 CURVE SMOOTH",
"506 122 OFFCURVE",
"490 112 OFFCURVE",
"412 112 CURVE SMOOTH",
"294 112 LINE SMOOTH",
"226 112 OFFCURVE",
"212 123 OFFCURVE",
"212 146 CURVE SMOOTH",
"212 165 OFFCURVE",
"231 175 OFFCURVE",
"276 175 CURVE",
"152 253 LINE",
"76 230 OFFCURVE",
"35 191 OFFCURVE",
"35 141 CURVE SMOOTH",
"35 38 OFFCURVE",
"135 0 OFFCURVE",
"343 0 CURVE SMOOTH"
);
},
{
closed = 1;
nodes = (
"428 233 LINE",
"288 233 LINE",
"288 71 LINE",
"428 70 LINE"
);
}
);
width = 708;
},
{
layerId = "C86CFEE0-D181-456A-AA08-2B118FAF25CE";
paths = (
{
closed = 1;
nodes = (
"354 0 OFFCURVE",
"409 46 OFFCURVE",
"409 134 CURVE SMOOTH",
"409 217 OFFCURVE",
"351 261 OFFCURVE",
"253 261 CURVE SMOOTH",
"194 261 LINE SMOOTH",
"123 261 OFFCURVE",
"78 286 OFFCURVE",
"78 343 CURVE SMOOTH",
"78 371 OFFCURVE",
"91 390 OFFCURVE",
"111 402 CURVE SMOOTH",
"132 414 OFFCURVE",
"156 419 OFFCURVE",
"201 419 CURVE SMOOTH",
"352 419 LINE",
"365 434 LINE",
"365 596 LINE",
"458 596 LINE",
"458 622 LINE",
"-7 622 LINE",
"-7 596 LINE",
"339 596 LINE",
"339 445 LINE",
"204 445 LINE SMOOTH",
"152 445 OFFCURVE",
"123 439 OFFCURVE",
"98 425 CURVE SMOOTH",
"69 409 OFFCURVE",
"51 382 OFFCURVE",
"51 343 CURVE SMOOTH",
"51 279 OFFCURVE",
"94 251 OFFCURVE",
"163 241 CURVE",
"152 235 LINE",
"255 235 LINE SMOOTH",
"339 235 OFFCURVE",
"382 199 OFFCURVE",
"382 134 CURVE SMOOTH",
"382 64 OFFCURVE",
"341 26 OFFCURVE",
"235 26 CURVE SMOOTH",
"222 26 LINE SMOOTH",
"136 26 OFFCURVE",
"74 58 OFFCURVE",
"74 134 CURVE SMOOTH",
"74 199 OFFCURVE",
"125 235 OFFCURVE",
"201 235 CURVE",
"174 253 LINE",
"93 247 OFFCURVE",
"47 200 OFFCURVE",
"47 133 CURVE SMOOTH",
"47 42 OFFCURVE",
"122 0 OFFCURVE",
"228 0 CURVE SMOOTH"
);
},
{
closed = 1;
nodes = (
"242 252 LINE",
"216 252 LINE",
"216 10 LINE",
"242 10 LINE"
);
}
);
width = 451;
},
{
layerId = "CBEC276F-1F9B-404D-BC73-2CB92054D876";
paths = (
{
closed = 1;
nodes = (
"448 0 OFFCURVE",
"533 53 OFFCURVE",
"533 152 CURVE SMOOTH",
"533 252 OFFCURVE",
"450 286 OFFCURVE",
"333 286 CURVE SMOOTH",
"222 286 LINE SMOOTH",
"200 286 OFFCURVE",
"188 293 OFFCURVE",
"188 309 CURVE SMOOTH",
"188 315 OFFCURVE",
"190 320 OFFCURVE",
"195 324 CURVE SMOOTH",
"201 329 OFFCURVE",
"210 330 OFFCURVE",
"225 330 CURVE SMOOTH",
"455 330 LINE",
"489 365 LINE",
"489 489 LINE",
"558 489 LINE",
"558 622 LINE",
"-7 622 LINE",
"-7 489 LINE",
"339 489 LINE",
"339 445 LINE",
"252 445 LINE SMOOTH",
"180 445 OFFCURVE",
"145 440 OFFCURVE",
"114 427 CURVE SMOOTH",
"64 406 OFFCURVE",
"32 368 OFFCURVE",
"32 313 CURVE SMOOTH",
"32 241 OFFCURVE",
"78 214 OFFCURVE",
"141 191 CURVE",
"133 178 LINE",
"331 178 LINE SMOOTH",
"362 178 OFFCURVE",
"379 169 OFFCURVE",
"379 144 CURVE SMOOTH",
"379 121 OFFCURVE",
"364 108 OFFCURVE",
"322 108 CURVE SMOOTH",
"232 108 LINE SMOOTH",
"191 108 OFFCURVE",
"176 122 OFFCURVE",
"176 146 CURVE SMOOTH",
"176 168 OFFCURVE",
"194 178 OFFCURVE",
"225 178 CURVE",
"131 252 LINE",
"85 238 OFFCURVE",
"28 210 OFFCURVE",
"28 139 CURVE SMOOTH",
"28 47 OFFCURVE",
"107 0 OFFCURVE",
"277 0 CURVE SMOOTH"
);
},
{
closed = 1;
nodes = (
"335 233 LINE",
"221 233 LINE",
"221 40 LINE",
"335 39 LINE"
);
}
);
width = 551;
},
{
layerId = "04B5D069-3E89-43E6-853C-EFCF876AEDC5";
paths = (
{
closed = 1;
nodes = (
"385 0 OFFCURVE",
"451 55 OFFCURVE",
"451 145 CURVE SMOOTH",
"451 238 OFFCURVE",
"379 284 OFFCURVE",
"280 284 CURVE SMOOTH",
"197 284 LINE SMOOTH",
"156 284 OFFCURVE",
"117 293 OFFCURVE",
"117 338 CURVE SMOOTH",
"117 354 OFFCURVE",
"124 366 OFFCURVE",
"134 374 CURVE SMOOTH",
"146 383 OFFCURVE",
"159 388 OFFCURVE",
"198 388 CURVE SMOOTH",
"381 388 LINE",
"407 416 LINE",
"407 554 LINE",
"488 554 LINE",
"488 622 LINE",
"-7 622 LINE",
"-7 554 LINE",
"332 554 LINE",
"332 456 LINE",
"221 456 LINE SMOOTH",
"162 456 OFFCURVE",
"125 450 OFFCURVE",
"99 436 CURVE SMOOTH",
"63 418 OFFCURVE",
"41 385 OFFCURVE",
"41 340 CURVE SMOOTH",
"41 283 OFFCURVE",
"78 244 OFFCURVE",
"141 230 CURVE",
"142 220 LINE",
"272 220 LINE SMOOTH",
"334 220 OFFCURVE",
"376 199 OFFCURVE",
"376 145 CURVE SMOOTH",
"376 87 OFFCURVE",
"322 64 OFFCURVE",
"251 64 CURVE SMOOTH",
"238 64 LINE SMOOTH",
"156 64 OFFCURVE",
"112 95 OFFCURVE",
"112 146 CURVE SMOOTH",
"112 198 OFFCURVE",
"157 220 OFFCURVE",
"207 220 CURVE",
"144 254 LINE",
"73 240 OFFCURVE",
"37 193 OFFCURVE",
"37 141 CURVE SMOOTH",
"37 46 OFFCURVE",
"120 0 OFFCURVE",
"241 0 CURVE SMOOTH"
);
},
{
closed = 1;
nodes = (
"280 234 LINE",
"209 234 LINE",
"209 47 LINE",
"280 47 LINE"
);
}
);
width = 481;
}
);
unicode = 0A1B;
},
{
glyphname = jaguru;
lastChange = "2019-02-21 10:42:34 +0000";
layers = (
{
layerId = UUID0;
paths = (
{
closed = 1;
nodes = (
"187 0 LINE",
"187 291 LINE",
"442 291 LINE",
"442 0 LINE",
"523 0 LINE",
"523 551 LINE",
"619 551 LINE",
"619 622 LINE",
"-7 622 LINE",
"-7 551 LINE",
"442 551 LINE",
"442 362 LINE",
"187 362 LINE",
"187 387 LINE SMOOTH",
"187 416 OFFCURVE",
"176 442 OFFCURVE",
"144 442 CURVE SMOOTH",
"101 442 OFFCURVE",
"37 377 OFFCURVE",
"37 329 CURVE SMOOTH",
"37 308 OFFCURVE",
"51 291 OFFCURVE",
"88 291 CURVE SMOOTH",
"106 291 LINE",
"106 0 LINE"
);
}
);
width = 612;
},
{
layerId = "397B4BA1-1DC1-423A-91EE-9CBCF179C3D0";
paths = (
{
closed = 1;
nodes = (
"238 0 LINE",
"238 259 LINE",
"445 259 LINE",
"445 0 LINE",
"579 0 LINE",
"579 512 LINE",
"666 512 LINE",
"666 622 LINE",
"-7 622 LINE",
"-7 512 LINE",
"445 512 LINE",
"445 369 LINE",
"238 369 LINE",
"238 380 LINE SMOOTH",
"238 423 OFFCURVE",
"216 449 OFFCURVE",
"173 449 CURVE SMOOTH",
"99 449 OFFCURVE",
"27 365 OFFCURVE",
"27 311 CURVE SMOOTH",
"27 280 OFFCURVE",
"44 259 OFFCURVE",
"89 259 CURVE SMOOTH",
"104 259 LINE",
"104 0 LINE"
);
}
);
width = 659;
},
{
layerId = "AD832606-5186-48BF-AC4A-95D20F9D6762";
paths = (
{
closed = 1;
nodes = (
"130 0 LINE",
"130 333 LINE",
"436 333 LINE",
"436 0 LINE",
"462 0 LINE",
"462 596 LINE",
"569 596 LINE",
"569 622 LINE",
"-7 622 LINE",
"-7 596 LINE",
"436 596 LINE",
"436 359 LINE",
"132 359 LINE",
"132 386 LINE SMOOTH",
"132 403 OFFCURVE",
"129 419 OFFCURVE",
"114 419 CURVE SMOOTH",
"89 419 OFFCURVE",
"53 378 OFFCURVE",
"53 354 CURVE SMOOTH",
"53 337 OFFCURVE",
"70 333 OFFCURVE",
"94 333 CURVE SMOOTH",
"104 333 LINE",
"104 0 LINE"
);
}
);
width = 562;
},
{
layerId = "F506C8C4-888D-41F0-91C9-49F2C7D2D9C4";
paths = (
{
closed = 1;
nodes = (
"265 0 LINE",
"265 223 LINE",
"427 223 LINE",
"427 0 LINE",
"604 0 LINE",
"604 484 LINE",
"681 484 LINE",
"681 622 LINE",
"-7 622 LINE",
"-7 484 LINE",
"427 484 LINE",
"427 361 LINE",
"263 361 LINE",
"263 363 LINE SMOOTH",
"263 402 OFFCURVE",
"241 432 OFFCURVE",
"184 432 CURVE SMOOTH",
"104 432 OFFCURVE",
"17 348 OFFCURVE",
"17 284 CURVE SMOOTH",
"17 241 OFFCURVE",
"44 221 OFFCURVE",
"84 221 CURVE SMOOTH",
"88 221 LINE",
"88 0 LINE"
);
}
);
width = 674;
},
{
layerId = "C86CFEE0-D181-456A-AA08-2B118FAF25CE";
paths = (
{
closed = 1;
nodes = (
"104 0 LINE",
"104 333 LINE",
"318 333 LINE",
"318 0 LINE",
"344 0 LINE",
"344 596 LINE",
"428 596 LINE",
"428 622 LINE",
"-7 622 LINE",
"-7 596 LINE",
"318 596 LINE",
"318 359 LINE",
"106 359 LINE",
"106 387 LINE SMOOTH",
"106 404 OFFCURVE",
"102 413 OFFCURVE",
"91 413 CURVE SMOOTH",
"70 413 OFFCURVE",
"42 375 OFFCURVE",
"42 351 CURVE SMOOTH",
"42 335 OFFCURVE",
"55 333 OFFCURVE",
"71 333 CURVE SMOOTH",
"78 333 LINE",
"78 0 LINE"
);
}
);
width = 421;
},
{
layerId = "CBEC276F-1F9B-404D-BC73-2CB92054D876";
paths = (
{
closed = 1;
nodes = (
"219 0 LINE",
"219 228 LINE",
"337 228 LINE",
"337 0 LINE",
"487 0 LINE",
"487 489 LINE",
"548 489 LINE",
"548 622 LINE",
"-7 622 LINE",
"-7 489 LINE",
"337 489 LINE",
"337 361 LINE",
"217 361 LINE",
"217 365 LINE SMOOTH",
"217 405 OFFCURVE",
"199 426 OFFCURVE",
"155 426 CURVE SMOOTH",
"88 426 OFFCURVE",
"14 343 OFFCURVE",
"14 278 CURVE SMOOTH",
"14 243 OFFCURVE",
"35 228 OFFCURVE",
"57 228 CURVE SMOOTH",
"69 228 LINE",
"69 0 LINE"
);
}
);
width = 541;
},
{
layerId = "04B5D069-3E89-43E6-853C-EFCF876AEDC5";
paths = (
{
closed = 1;
nodes = (
"155 0 LINE",
"155 293 LINE",
"319 293 LINE",
"319 0 LINE",
"394 0 LINE",
"394 554 LINE",
"465 554 LINE",
"465 622 LINE",
"-7 622 LINE",
"-7 554 LINE",
"319 554 LINE",
"319 361 LINE",
"155 361 LINE",
"155 397 LINE SMOOTH",
"155 422 OFFCURVE",
"144 439 OFFCURVE",
"122 439 CURVE SMOOTH",
"77 439 OFFCURVE",
"28 372 OFFCURVE",
"28 329 CURVE SMOOTH",
"28 309 OFFCURVE",
"39 292 OFFCURVE",
"75 292 CURVE SMOOTH",
"80 292 LINE",
"80 0 LINE"
);
}
);
width = 458;
}
);
unicode = 0A1C;
},
{
glyphname = jhaguru;
lastChange = "2019-02-21 10:44:12 +0000";
layers = (
{
layerId = UUID0;
paths = (
{
closed = 1;
nodes = (
"235 74 OFFCURVE",
"262 75 OFFCURVE",
"288 77 CURVE",
"323 83 LINE",
"463 100 OFFCURVE",
"540 161 OFFCURVE",
"540 253 CURVE SMOOTH",
"540 354 OFFCURVE",
"458 411 OFFCURVE",
"276 411 CURVE SMOOTH",
"220 411 OFFCURVE",
"118 396 OFFCURVE",
"30 368 CURVE",
"55 302 LINE",
"140 330 OFFCURVE",
"217 341 OFFCURVE",
"283 341 CURVE SMOOTH",
"402 341 OFFCURVE",
"458 316 OFFCURVE",
"458 253 CURVE SMOOTH",
"458 198 OFFCURVE",
"410 160 OFFCURVE",
"290 150 CURVE",
"255 166 OFFCURVE",
"217 181 OFFCURVE",
"160 181 CURVE SMOOTH",
"106 181 OFFCURVE",
"83 162 OFFCURVE",
"83 134 CURVE SMOOTH",
"83 96 OFFCURVE",
"129 74 OFFCURVE",
"205 74 CURVE SMOOTH"
);
},
{
closed = 1;
nodes = (
"432 38 LINE",
"391 74 OFFCURVE",
"349 101 OFFCURVE",
"303 123 CURVE",
"229 94 LINE",
"279 70 OFFCURVE",
"328 31 OFFCURVE",
"377 -14 CURVE"
);
},
{
closed = 1;
nodes = (
"310 411 LINE",
"204 411 OFFCURVE",
"167 476 OFFCURVE",
"167 601 CURVE",
"84 605 LINE",
"84 494 OFFCURVE",
"120 414 OFFCURVE",
"200 375 CURVE"
);
},
{
closed = 1;
nodes = (
"601 551 LINE",
"601 622 LINE",
"-7 622 LINE",
"-7 551 LINE"
);
},
{
closed = 1;
nodes = (
"480 414 OFFCURVE",
"516 494 OFFCURVE",
"516 605 CURVE",
"434 601 LINE",
"434 480 OFFCURVE",
"397 411 OFFCURVE",
"290 411 CURVE",
"400 375 LINE"
);
}
);
width = 594;
},
{
layerId = "397B4BA1-1DC1-423A-91EE-9CBCF179C3D0";
paths = (
{
closed = 1;
nodes = (
"268 66 OFFCURVE",
"287 67 OFFCURVE",
"305 68 CURVE",
"351 73 LINE",
"483 93 OFFCURVE",
"567 155 OFFCURVE",
"567 253 CURVE SMOOTH",
"567 360 OFFCURVE",
"481 420 OFFCURVE",
"289 420 CURVE SMOOTH",
"221 420 OFFCURVE",
"118 406 OFFCURVE",
"25 377 CURVE",
"63 276 LINE",
"141 302 OFFCURVE",
"216 314 OFFCURVE",
"293 314 CURVE SMOOTH",
"380 314 OFFCURVE",
"431 295 OFFCURVE",
"431 250 CURVE SMOOTH",
"431 212 OFFCURVE",
"396 185 OFFCURVE",
"303 174 CURVE",
"264 195 OFFCURVE",
"215 217 OFFCURVE",
"159 217 CURVE SMOOTH",
"107 217 OFFCURVE",
"75 190 OFFCURVE",
"75 149 CURVE SMOOTH",
"75 86 OFFCURVE",
"143 66 OFFCURVE",
"248 66 CURVE SMOOTH"
);
},
{
closed = 1;
nodes = (
"461 32 LINE",
"420 68 OFFCURVE",
"374 99 OFFCURVE",
"327 125 CURVE",
"200 94 LINE",
"273 46 OFFCURVE",
"315 9 OFFCURVE",
"364 -40 CURVE"
);
},
{
closed = 1;
nodes = (
"344 416 LINE",
"235 416 OFFCURVE",
"200 478 OFFCURVE",
"200 577 CURVE",
"64 582 LINE",
"64 479 OFFCURVE",
"99 411 OFFCURVE",
"180 376 CURVE"
);
},
{
closed = 1;
nodes = (
"610 512 LINE",
"610 622 LINE",
"-7 622 LINE",
"-7 512 LINE"
);
},
{
closed = 1;
nodes = (
"514 411 OFFCURVE",
"549 479 OFFCURVE",
"549 582 CURVE",
"413 577 LINE",
"413 467 OFFCURVE",
"372 417 OFFCURVE",
"270 417 CURVE",
"434 376 LINE"
);
}
);
width = 603;
},
{
layerId = "AD832606-5186-48BF-AC4A-95D20F9D6762";
paths = (
{
closed = 1;
nodes = (
"240 91 OFFCURVE",
"261 92 OFFCURVE",
"271 93 CURVE",
"276 93 LINE",
"392 96 OFFCURVE",
"496 154 OFFCURVE",
"496 258 CURVE SMOOTH",
"496 346 OFFCURVE",
"416 406 OFFCURVE",
"266 406 CURVE SMOOTH",
"211 406 OFFCURVE",
"119 396 OFFCURVE",
"38 370 CURVE",
"46 344 LINE",
"131 370 OFFCURVE",
"185 383 OFFCURVE",
"268 383 CURVE SMOOTH",
"373 383 OFFCURVE",
"469 349 OFFCURVE",
"469 257 CURVE SMOOTH",
"469 167 OFFCURVE",
"375 119 OFFCURVE",
"258 117 CURVE",
"218 132 OFFCURVE",
"183 143 OFFCURVE",
"136 143 CURVE SMOOTH",
"96 143 OFFCURVE",
"84 137 OFFCURVE",
"84 123 CURVE SMOOTH",
"84 101 OFFCURVE",
"133 91 OFFCURVE",
"211 91 CURVE SMOOTH"
);
},
{
closed = 1;
nodes = (
"398 9 LINE",
"359 45 OFFCURVE",
"304 87 OFFCURVE",
"257 111 CURVE",
"227 103 LINE",
"284 75 OFFCURVE",
"338 29 OFFCURVE",
"379 -10 CURVE"
);
},
{
closed = 1;
nodes = (
"290 407 LINE",
"184 407 OFFCURVE",
"118 466 OFFCURVE",
"118 601 CURVE",
"92 605 LINE",
"92 480 OFFCURVE",
"137 410 OFFCURVE",
"245 391 CURVE"
);
},
{
closed = 1;
nodes = (
"567 596 LINE",
"567 622 LINE",
"-7 622 LINE",
"-7 596 LINE"
);
},
{
closed = 1;
nodes = (
"427 410 OFFCURVE",
"472 480 OFFCURVE",
"472 605 CURVE",
"446 601 LINE",
"446 466 OFFCURVE",
"380 407 OFFCURVE",
"273 407 CURVE",
"319 391 LINE"
);
}
);
width = 560;
},
{
layerId = "F506C8C4-888D-41F0-91C9-49F2C7D2D9C4";
paths = (
{
closed = 1;
nodes = (
"281 54 OFFCURVE",
"304 56 OFFCURVE",
"332 58 CURVE",
"361 63 LINE",
"508 83 OFFCURVE",
"601 148 OFFCURVE",
"601 254 CURVE SMOOTH",
"601 373 OFFCURVE",
"494 415 OFFCURVE",
"309 415 CURVE SMOOTH",
"207 415 OFFCURVE",
"109 404 OFFCURVE",
"17 374 CURVE",
"66 245 LINE",
"140 272 OFFCURVE",
"232 290 OFFCURVE",
"306 290 CURVE SMOOTH",
"394 290 OFFCURVE",
"422 273 OFFCURVE",
"422 247 CURVE SMOOTH",
"422 211 OFFCURVE",
"382 196 OFFCURVE",
"316 187 CURVE",
"271 213 OFFCURVE",
"226 231 OFFCURVE",
"170 231 CURVE SMOOTH",
"98 231 OFFCURVE",
"68 192 OFFCURVE",
"68 152 CURVE SMOOTH",
"68 69 OFFCURVE",
"158 54 OFFCURVE",
"263 54 CURVE SMOOTH"
);
},
{
closed = 1;
nodes = (
"500 44 LINE",
"461 73 OFFCURVE",
"379 123 OFFCURVE",
"333 145 CURVE",
"195 101 LINE",
"257 57 OFFCURVE",
"326 0 OFFCURVE",
"375 -46 CURVE"
);
},
{
closed = 1;
nodes = (
"369 411 LINE",
"268 411 OFFCURVE",
"228 451 OFFCURVE",
"228 572 CURVE",
"48 577 LINE",
"48 454 OFFCURVE",
"102 393 OFFCURVE",
"175 360 CURVE"
);
},
{
closed = 1;
nodes = (
"637 484 LINE",
"637 622 LINE",
"-7 622 LINE",
"-7 484 LINE"
);
},
{
closed = 1;
nodes = (
"531 382 OFFCURVE",
"586 462 OFFCURVE",
"586 577 CURVE",
"406 572 LINE",
"406 456 OFFCURVE",
"363 411 OFFCURVE",
"277 411 CURVE",
"451 357 LINE"
);
}
);
width = 630;
},
{
layerId = "C86CFEE0-D181-456A-AA08-2B118FAF25CE";
paths = (
{
closed = 1;
nodes = (
"166 91 OFFCURVE",
"181 91 OFFCURVE",
"190 92 CURVE",
"200 93 LINE",
"282 108 OFFCURVE",
"353 155 OFFCURVE",
"353 259 CURVE SMOOTH",
"353 346 OFFCURVE",
"284 405 OFFCURVE",
"187 405 CURVE SMOOTH",
"133 405 OFFCURVE",
"85 397 OFFCURVE",
"31 375 CURVE",
"40 350 LINE",
"91 372 OFFCURVE",
"128 382 OFFCURVE",
"187 382 CURVE SMOOTH",
"263 382 OFFCURVE",
"326 339 OFFCURVE",
"326 259 CURVE SMOOTH",
"326 171 OFFCURVE",
"264 125 OFFCURVE",
"191 116 CURVE",
"158 133 OFFCURVE",
"129 140 OFFCURVE",
"98 140 CURVE SMOOTH",
"76 140 OFFCURVE",
"64 135 OFFCURVE",
"64 123 CURVE SMOOTH",
"64 102 OFFCURVE",
"110 91 OFFCURVE",
"145 91 CURVE SMOOTH"
);
},
{
closed = 1;
nodes = (
"306 7 LINE",
"278 40 OFFCURVE",
"227 86 OFFCURVE",
"192 110 CURVE",
"160 104 LINE",
"201 77 OFFCURVE",
"247 34 OFFCURVE",
"286 -10 CURVE"
);
},
{
closed = 1;
nodes = (
"220 403 LINE",
"125 410 OFFCURVE",
"91 469 OFFCURVE",
"91 597 CURVE",
"65 601 LINE",
"65 480 OFFCURVE",
"86 418 OFFCURVE",
"178 389 CURVE"
);
},
{
closed = 1;
nodes = (
"398 596 LINE",
"398 622 LINE",
"-7 622 LINE",
"-7 596 LINE"
);
},
{
closed = 1;
nodes = (
"316 416 OFFCURVE",
"338 480 OFFCURVE",
"338 601 CURVE",
"312 597 LINE",
"312 469 OFFCURVE",
"278 410 OFFCURVE",
"183 403 CURVE",
"224 387 LINE"
);
}
);
width = 391;
},
{
layerId = "CBEC276F-1F9B-404D-BC73-2CB92054D876";
paths = (
{
closed = 1;
nodes = (
"226 55 OFFCURVE",
"242 56 OFFCURVE",
"256 57 CURVE",
"276 62 LINE",
"400 85 OFFCURVE",
"469 146 OFFCURVE",
"469 247 CURVE SMOOTH",
"469 348 OFFCURVE",
"384 416 OFFCURVE",
"231 416 CURVE SMOOTH",
"160 416 OFFCURVE",
"91 405 OFFCURVE",
"14 379 CURVE",
"61 259 LINE",
"126 282 OFFCURVE",
"173 293 OFFCURVE",
"234 293 CURVE SMOOTH",
"291 293 OFFCURVE",
"318 277 OFFCURVE",
"318 245 CURVE SMOOTH",
"318 214 OFFCURVE",
"298 193 OFFCURVE",
"253 183 CURVE",
"217 208 OFFCURVE",
"183 222 OFFCURVE",
"140 222 CURVE SMOOTH",
"89 222 OFFCURVE",
"48 198 OFFCURVE",
"48 145 CURVE SMOOTH",
"48 72 OFFCURVE",
"129 55 OFFCURVE",
"212 55 CURVE SMOOTH"
);
},
{
closed = 1;
nodes = (
"402 48 LINE",
"364 82 OFFCURVE",
"328 106 OFFCURVE",
"285 125 CURVE",
"149 100 LINE",
"216 56 OFFCURVE",
"250 23 OFFCURVE",
"306 -37 CURVE"
);
},
{
closed = 1;
nodes = (
"291 406 LINE",
"211 414 OFFCURVE",
"201 463 OFFCURVE",
"201 552 CURVE",
"48 563 LINE",
"48 450 OFFCURVE",
"84 379 OFFCURVE",
"151 349 CURVE"
);
},
{
closed = 1;
nodes = (
"504 489 LINE",
"504 622 LINE",
"-7 622 LINE",
"-7 489 LINE"
);
},
{
closed = 1;
nodes = (
"417 369 OFFCURVE",
"456 450 OFFCURVE",
"456 563 CURVE",
"303 552 LINE",
"303 463 OFFCURVE",
"293 414 OFFCURVE",
"213 406 CURVE",
"354 344 LINE"
);
}
);
width = 497;
},
{
layerId = "04B5D069-3E89-43E6-853C-EFCF876AEDC5";
paths = (
{
closed = 1;
nodes = (
"182 76 OFFCURVE",
"199 77 OFFCURVE",
"215 79 CURVE",
"244 85 LINE",
"333 107 OFFCURVE",
"398 158 OFFCURVE",
"398 253 CURVE SMOOTH",
"398 353 OFFCURVE",
"328 410 OFFCURVE",
"203 410 CURVE SMOOTH",
"153 410 OFFCURVE",
"88 400 OFFCURVE",
"23 376 CURVE",
"47 313 LINE",
"107 336 OFFCURVE",
"155 345 OFFCURVE",
"210 345 CURVE SMOOTH",
"278 345 OFFCURVE",
"322 318 OFFCURVE",
"322 253 CURVE SMOOTH",
"322 195 OFFCURVE",
"281 161 OFFCURVE",
"215 145 CURVE",
"184 163 OFFCURVE",
"158 177 OFFCURVE",
"118 177 CURVE SMOOTH",
"80 177 OFFCURVE",
"59 159 OFFCURVE",
"59 132 CURVE SMOOTH",
"59 94 OFFCURVE",
"105 76 OFFCURVE",
"164 76 CURVE SMOOTH"
);
},
{
closed = 1;
nodes = (
"338 38 LINE",
"303 73 OFFCURVE",
"257 104 OFFCURVE",
"224 123 CURVE",
"157 98 LINE",
"205 68 OFFCURVE",
"248 28 OFFCURVE",
"285 -12 CURVE"
);
},
{
closed = 1;
nodes = (
"241 405 LINE",
"150 411 OFFCURVE",
"134 475 OFFCURVE",
"134 601 CURVE",
"58 605 LINE",
"58 480 OFFCURVE",
"88 415 OFFCURVE",
"145 378 CURVE"
);
},
{
closed = 1;
nodes = (
"442 554 LINE",
"442 622 LINE",
"-7 622 LINE",
"-7 554 LINE"
);
},
{
closed = 1;
nodes = (
"354 412 OFFCURVE",
"383 475 OFFCURVE",
"383 605 CURVE",
"307 601 LINE",
"307 480 OFFCURVE",
"291 413 OFFCURVE",
"200 405 CURVE",
"299 375 LINE"
);
}
);
width = 435;
}
);
unicode = 0A1D;
},
{
glyphname = nyaguru;
lastChange = "2019-02-21 10:44:12 +0000";
layers = (
{
components = (
{
name = vaguru;
}
);
layerId = UUID0;
paths = (
{
closed = 1;
nodes = (
"238 425 LINE",
"217 477 OFFCURVE",
"184 533 OFFCURVE",
"143 589 CURVE",
"65 563 LINE",
"105 512 OFFCURVE",
"142 450 OFFCURVE",
"171 389 CURVE"
);
}
);
width = 567;
},
{
components = (
{
name = vaguru;
}
);
layerId = "397B4BA1-1DC1-423A-91EE-9CBCF179C3D0";
paths = (
{
closed = 1;
nodes = (
"272 416 LINE",
"251 467 OFFCURVE",
"218 533 OFFCURVE",
"177 589 CURVE",
"50 563 LINE",
"91 512 OFFCURVE",
"127 440 OFFCURVE",
"156 379 CURVE"
);
}
);
width = 602;
},
{
components = (
{
name = vaguru;
}
);
layerId = "AD832606-5186-48BF-AC4A-95D20F9D6762";
paths = (
{
closed = 1;
nodes = (
"197 436 LINE",
"175 489 OFFCURVE",
"134 562 OFFCURVE",
"96 613 CURVE",
"70 603 LINE",
"110 553 OFFCURVE",
"149 483 OFFCURVE",
"175 427 CURVE"
);
}
);
width = 530;
},
{
components = (
{
name = vaguru;
}
);
layerId = "F506C8C4-888D-41F0-91C9-49F2C7D2D9C4";
paths = (
{
closed = 1;
nodes = (
"301 416 LINE",
"280 467 OFFCURVE",
"241 535 OFFCURVE",
"199 589 CURVE",
"44 553 LINE",
"85 502 OFFCURVE",
"126 430 OFFCURVE",
"155 369 CURVE"
);
}
);
width = 618;
},
{
components = (
{
name = vaguru;
}
);
layerId = "C86CFEE0-D181-456A-AA08-2B118FAF25CE";
paths = (
{
closed = 1;
nodes = (
"141 437 LINE",
"125 489 OFFCURVE",
"93 558 OFFCURVE",
"62 613 CURVE",
"40 599 LINE",
"70 549 OFFCURVE",
"96 493 OFFCURVE",
"117 432 CURVE"
);
}
);
width = 398;
},
{
components = (
{
name = vaguru;
}
);
layerId = "CBEC276F-1F9B-404D-BC73-2CB92054D876";
paths = (
{
closed = 1;
nodes = (
"240 402 LINE",
"223 453 OFFCURVE",
"191 535 OFFCURVE",
"156 582 CURVE",
"24 556 LINE",
"59 505 OFFCURVE",
"96 425 OFFCURVE",
"117 358 CURVE"
);
}
);
width = 490;
},
{
components = (
{
name = vaguru;
}
);
layerId = "04B5D069-3E89-43E6-853C-EFCF876AEDC5";
paths = (
{
closed = 1;
nodes = (
"183 427 LINE",
"168 479 OFFCURVE",
"145 535 OFFCURVE",
"115 591 CURVE",
"45 566 LINE",
"75 515 OFFCURVE",
"100 453 OFFCURVE",
"121 392 CURVE"
);
}
);
width = 424;
}
);
unicode = 0A1E;
},
{
glyphname = ttaguru;
lastChange = "2019-02-21 10:44:12 +0000";
layers = (
{
layerId = UUID0;
paths = (
{
closed = 1;
nodes = (
"402 0 OFFCURVE",
"466 16 OFFCURVE",
"538 51 CURVE",
"510 122 LINE",
"435 86 OFFCURVE",
"395 73 OFFCURVE",
"322 73 CURVE SMOOTH",
"218 73 OFFCURVE",
"165 147 OFFCURVE",
"114 253 CURVE",
"107 204 LINE",
"148 256 OFFCURVE",
"178 289 OFFCURVE",
"221 315 CURVE SMOOTH",
"269 345 OFFCURVE",
"302 349 OFFCURVE",
"419 349 CURVE SMOOTH",
"456 349 LINE",
"485 378 LINE",
"485 551 LINE",
"583 551 LINE",
"583 622 LINE",
"-7 622 LINE",
"-7 551 LINE",
"405 551 LINE",
"405 420 LINE",
"370 420 LINE SMOOTH",
"259 420 OFFCURVE",
"210 401 OFFCURVE",
"155 361 CURVE SMOOTH",
"113 330 OFFCURVE",
"76 289 OFFCURVE",
"34 234 CURVE",
"95 98 OFFCURVE",
"171 0 OFFCURVE",
"322 0 CURVE SMOOTH"
);
}
);
width = 575;
},
{
layerId = "397B4BA1-1DC1-423A-91EE-9CBCF179C3D0";
paths = (
{
closed = 1;
nodes = (
"436 0 OFFCURVE",
"523 15 OFFCURVE",
"589 44 CURVE",
"545 152 LINE",
"470 121 OFFCURVE",
"429 112 OFFCURVE",
"371 112 CURVE SMOOTH",
"281 112 OFFCURVE",
"220 153 OFFCURVE",
"152 272 CURVE",
"144 178 LINE",
"197 246 OFFCURVE",
"232 275 OFFCURVE",
"275 292 CURVE SMOOTH",
"305 305 OFFCURVE",
"343 310 OFFCURVE",
"432 310 CURVE SMOOTH",
"500 310 LINE",
"536 346 LINE",
"536 512 LINE",
"624 512 LINE",
"624 622 LINE",
"-7 622 LINE",
"-7 512 LINE",
"402 512 LINE",
"402 420 LINE",
"364 420 LINE SMOOTH",
"286 420 OFFCURVE",
"233 407 OFFCURVE",
"186 383 CURVE SMOOTH",
"126 352 OFFCURVE",
"80 302 OFFCURVE",
"26 234 CURVE",
"92 115 OFFCURVE",
"165 0 OFFCURVE",
"363 0 CURVE SMOOTH"
);
}
);
width = 616;
},
{
guideLines = (
{
position = "{155, 226}";
},
{
position = "{198, 233}";
}
);
layerId = "AD832606-5186-48BF-AC4A-95D20F9D6762";
paths = (
{
closed = 1;
nodes = (
"381 0 OFFCURVE",
"437 13 OFFCURVE",
"497 44 CURVE",
"487 67 LINE",
"427 39 OFFCURVE",
"382 26 OFFCURVE",
"314 26 CURVE SMOOTH",
"199 26 OFFCURVE",
"125 92 OFFCURVE",
"65 249 CURVE",
"60 208 LINE",
"96 265 OFFCURVE",
"136 311 OFFCURVE",
"187 346 CURVE SMOOTH",
"235 379 OFFCURVE",
"282 392 OFFCURVE",
"385 392 CURVE SMOOTH",
"418 392 LINE",
"435 407 LINE",
"435 596 LINE",
"542 596 LINE",
"542 622 LINE",
"-7 622 LINE",
"-7 596 LINE",
"409 596 LINE",
"409 418 LINE",
"382 418 LINE SMOOTH",
"275 418 OFFCURVE",
"222 403 OFFCURVE",
"168 365 CURVE SMOOTH",
"121 332 OFFCURVE",
"79 286 OFFCURVE",
"42 230 CURVE",
"108 76 OFFCURVE",
"182 0 OFFCURVE",
"314 0 CURVE SMOOTH"
);
}
);
width = 535;
},
{
layerId = "F506C8C4-888D-41F0-91C9-49F2C7D2D9C4";
paths = (
{
closed = 1;
nodes = (
"446 0 OFFCURVE",
"540 17 OFFCURVE",
"608 51 CURVE",
"552 184 LINE",
"480 150 OFFCURVE",
"428 139 OFFCURVE",
"365 139 CURVE SMOOTH",
"284 139 OFFCURVE",
"236 163 OFFCURVE",
"171 277 CURVE",
"180 167 LINE",
"221 218 OFFCURVE",
"256 246 OFFCURVE",
"292 261 CURVE SMOOTH",
"318 272 OFFCURVE",
"344 277 OFFCURVE",
"409 277 CURVE SMOOTH",
"510 277 LINE",
"556 323 LINE",
"556 484 LINE",
"633 484 LINE",
"633 622 LINE",
"-7 622 LINE",
"-7 484 LINE",
"379 484 LINE",
"379 415 LINE",
"373 415 LINE SMOOTH",
"280 415 OFFCURVE",
"237 403 OFFCURVE",
"193 383 CURVE SMOOTH",
"127 353 OFFCURVE",
"75 303 OFFCURVE",
"16 231 CURVE",
"82 65 OFFCURVE",
"201 0 OFFCURVE",
"360 0 CURVE SMOOTH"
);
}
);
width = 626;
},
{
layerId = "C86CFEE0-D181-456A-AA08-2B118FAF25CE";
paths = (
{
closed = 1;
nodes = (
"314 0 OFFCURVE",
"353 14 OFFCURVE",
"389 30 CURVE",
"379 55 LINE",
"343 38 OFFCURVE",
"314 26 OFFCURVE",
"259 26 CURVE SMOOTH",
"155 26 OFFCURVE",
"109 86 OFFCURVE",
"57 248 CURVE",
"56 209 LINE",
"77 258 OFFCURVE",
"117 315 OFFCURVE",
"160 349 CURVE SMOOTH",
"196 378 OFFCURVE",
"241 392 OFFCURVE",
"317 392 CURVE SMOOTH",
"320 392 LINE",
"336 408 LINE",
"336 596 LINE",
"420 596 LINE",
"420 622 LINE",
"-7 622 LINE",
"-7 596 LINE",
"310 596 LINE",
"310 418 LINE",
"309 418 LINE",
"242 417 OFFCURVE",
"187 405 OFFCURVE",
"141 368 CURVE SMOOTH",
"94 330 OFFCURVE",
"59 276 OFFCURVE",
"35 229 CURVE",
"86 75 OFFCURVE",
"138 0 OFFCURVE",
"259 0 CURVE SMOOTH"
);
}
);
width = 413;
},
{
layerId = "CBEC276F-1F9B-404D-BC73-2CB92054D876";
paths = (
{
closed = 1;
nodes = (
"374 0 OFFCURVE",
"420 16 OFFCURVE",
"480 46 CURVE",
"433 168 LINE",
"382 142 OFFCURVE",
"342 134 OFFCURVE",
"302 134 CURVE SMOOTH",
"238 134 OFFCURVE",
"195 170 OFFCURVE",
"176 229 CURVE",
"164 188 LINE",
"185 221 OFFCURVE",
"202 244 OFFCURVE",
"229 259 CURVE SMOOTH",
"254 273 OFFCURVE",
"279 280 OFFCURVE",
"334 280 CURVE SMOOTH",
"401 280 LINE",
"434 316 LINE",
"434 489 LINE",
"495 489 LINE",
"495 622 LINE",
"-7 622 LINE",
"-7 489 LINE",
"284 489 LINE",
"284 413 LINE",
"281 413 LINE",
"231 413 OFFCURVE",
"191 405 OFFCURVE",
"155 386 CURVE SMOOTH",
"98 356 OFFCURVE",
"49 300 OFFCURVE",
"13 232 CURVE",
"62 81 OFFCURVE",
"146 0 OFFCURVE",
"294 0 CURVE SMOOTH"
);
}
);
width = 488;
},
{
layerId = "04B5D069-3E89-43E6-853C-EFCF876AEDC5";
paths = (
{
closed = 1;
nodes = (
"315 0 OFFCURVE",
"367 12 OFFCURVE",
"416 36 CURVE",
"390 103 LINE",
"348 82 OFFCURVE",
"315 70 OFFCURVE",
"266 70 CURVE SMOOTH",
"171 70 OFFCURVE",
"138 142 OFFCURVE",
"97 253 CURVE",
"93 199 LINE",
"127 253 OFFCURVE",
"155 292 OFFCURVE",
"184 313 CURVE SMOOTH",
"219 339 OFFCURVE",
"249 350 OFFCURVE",
"336 350 CURVE SMOOTH",
"344 350 LINE",
"367 378 LINE",
"367 554 LINE",
"438 554 LINE",
"438 622 LINE",
"-7 622 LINE",
"-7 554 LINE",
"292 554 LINE",
"292 418 LINE",
"291 418 LINE",
"230 416 OFFCURVE",
"186 404 OFFCURVE",
"145 375 CURVE SMOOTH",
"102 345 OFFCURVE",
"60 292 OFFCURVE",
"25 233 CURVE",
"68 100 OFFCURVE",
"125 0 OFFCURVE",
"261 0 CURVE SMOOTH"
);
}
);
width = 431;
}
);
unicode = 0A1F;
},
{
glyphname = tthaguru;
lastChange = "2019-02-21 10:44:12 +0000";
layers = (
{
layerId = UUID0;
paths = (
{
closed = 1;
nodes = (
"506 0 OFFCURVE",
"621 58 OFFCURVE",
"621 202 CURVE SMOOTH",
"621 296 OFFCURVE",
"545 398 OFFCURVE",
"370 438 CURVE",
"370 551 LINE",
"667 551 LINE",
"667 622 LINE",
"-7 622 LINE",
"-7 551 LINE",
"290 551 LINE",
"290 438 LINE",
"115 397 OFFCURVE",
"39 296 OFFCURVE",
"39 202 CURVE SMOOTH",
"39 48 OFFCURVE",
"171 0 OFFCURVE",
"330 0 CURVE SMOOTH"
);
},
{
closed = 1;
nodes = (
"238 73 OFFCURVE",
"119 88 OFFCURVE",
"119 199 CURVE SMOOTH",
"119 277 OFFCURVE",
"188 346 OFFCURVE",
"330 378 CURVE",
"469 347 OFFCURVE",
"541 277 OFFCURVE",
"541 200 CURVE SMOOTH",
"541 89 OFFCURVE",
"424 73 OFFCURVE",
"330 73 CURVE SMOOTH"
);
}
);
width = 660;
},
{
layerId = "397B4BA1-1DC1-423A-91EE-9CBCF179C3D0";
paths = (
{
closed = 1;
nodes = (
"545 0 OFFCURVE",
"668 56 OFFCURVE",
"668 198 CURVE SMOOTH",
"668 290 OFFCURVE",
"597 384 OFFCURVE",
"417 429 CURVE",
"417 512 LINE",
"707 512 LINE",
"707 622 LINE",
"-7 622 LINE",
"-7 512 LINE",
"283 512 LINE",
"283 429 LINE",
"103 383 OFFCURVE",
"32 290 OFFCURVE",
"32 197 CURVE SMOOTH",
"32 47 OFFCURVE",
"172 0 OFFCURVE",
"348 0 CURVE SMOOTH"
);
},
{
closed = 1;
nodes = (
"262 112 OFFCURVE",
"166 123 OFFCURVE",
"166 198 CURVE SMOOTH",
"166 258 OFFCURVE",
"234 307 OFFCURVE",
"350 331 CURVE",
"470 305 OFFCURVE",
"534 258 OFFCURVE",
"534 197 CURVE SMOOTH",
"534 124 OFFCURVE",
"437 112 OFFCURVE",
"350 112 CURVE SMOOTH"
);
}
);
width = 700;
},
{
layerId = "AD832606-5186-48BF-AC4A-95D20F9D6762";
paths = (
{
closed = 1;
nodes = (
"487 0 OFFCURVE",
"566 72 OFFCURVE",
"566 195 CURVE SMOOTH",
"566 288 OFFCURVE",
"504 385 OFFCURVE",
"320 434 CURVE",
"320 596 LINE",
"621 596 LINE",
"621 622 LINE",
"-7 622 LINE",
"-7 596 LINE",
"294 596 LINE",
"294 434 LINE",
"110 385 OFFCURVE",
"48 288 OFFCURVE",
"48 195 CURVE SMOOTH",
"48 72 OFFCURVE",
"127 0 OFFCURVE",
"307 0 CURVE SMOOTH"
);
},
{
closed = 1;
nodes = (
"147 26 OFFCURVE",
"75 81 OFFCURVE",
"75 195 CURVE SMOOTH",
"75 296 OFFCURVE",
"155 373 OFFCURVE",
"307 412 CURVE",
"459 373 OFFCURVE",
"539 296 OFFCURVE",
"539 195 CURVE SMOOTH",
"539 81 OFFCURVE",
"467 26 OFFCURVE",
"307 26 CURVE SMOOTH"
);
}
);
width = 614;
},
{
layerId = "F506C8C4-888D-41F0-91C9-49F2C7D2D9C4";
paths = (
{
closed = 1;
nodes = (
"563 0 OFFCURVE",
"710 47 OFFCURVE",
"710 201 CURVE SMOOTH",
"710 299 OFFCURVE",
"638 386 OFFCURVE",
"456 427 CURVE",
"456 484 LINE",
"742 484 LINE",
"742 622 LINE",
"-7 622 LINE",
"-7 484 LINE",
"279 484 LINE",
"279 427 LINE",
"98 387 OFFCURVE",
"25 299 OFFCURVE",
"25 201 CURVE SMOOTH",
"25 47 OFFCURVE",
"171 0 OFFCURVE",
"368 0 CURVE SMOOTH"
);
},
{
closed = 1;
nodes = (
"257 140 OFFCURVE",
"202 157 OFFCURVE",
"202 205 CURVE SMOOTH",
"202 246 OFFCURVE",
"248 283 OFFCURVE",
"368 305 CURVE",
"486 283 OFFCURVE",
"533 246 OFFCURVE",
"533 209 CURVE SMOOTH",
"533 157 OFFCURVE",
"478 140 OFFCURVE",
"368 140 CURVE SMOOTH"
);
}
);
width = 735;
},
{
layerId = "C86CFEE0-D181-456A-AA08-2B118FAF25CE";
paths = (
{
closed = 1;
nodes = (
"358 0 OFFCURVE",
"426 70 OFFCURVE",
"426 193 CURVE SMOOTH",
"426 287 OFFCURVE",
"375 371 OFFCURVE",
"247 434 CURVE",
"247 596 LINE",
"475 596 LINE",
"475 622 LINE",
"-7 622 LINE",
"-7 596 LINE",
"221 596 LINE",
"221 435 LINE",
"93 371 OFFCURVE",
"42 287 OFFCURVE",
"42 193 CURVE SMOOTH",
"42 70 OFFCURVE",
"110 0 OFFCURVE",
"234 0 CURVE SMOOTH"
);
},
{
closed = 1;
nodes = (
"130 26 OFFCURVE",
"69 79 OFFCURVE",
"69 193 CURVE SMOOTH",
"69 279 OFFCURVE",
"113 352 OFFCURVE",
"234 415 CURVE",
"355 352 OFFCURVE",
"399 278 OFFCURVE",
"399 193 CURVE SMOOTH",
"399 79 OFFCURVE",
"338 26 OFFCURVE",
"234 26 CURVE SMOOTH"
);
}
);
width = 468;
},
{
layerId = "CBEC276F-1F9B-404D-BC73-2CB92054D876";
paths = (
{
closed = 1;
nodes = (
"424 0 OFFCURVE",
"532 63 OFFCURVE",
"532 208 CURVE SMOOTH",
"532 307 OFFCURVE",
"468 380 OFFCURVE",
"352 428 CURVE",
"352 489 LINE",
"563 489 LINE",
"563 622 LINE",
"-7 622 LINE",
"-7 489 LINE",
"204 489 LINE",
"204 428 LINE",
"88 380 OFFCURVE",
"24 307 OFFCURVE",
"24 208 CURVE SMOOTH",
"24 65 OFFCURVE",
"132 0 OFFCURVE",
"278 0 CURVE SMOOTH"
);
},
{
closed = 1;
nodes = (
"217 134 OFFCURVE",
"174 157 OFFCURVE",
"174 212 CURVE SMOOTH",
"174 262 OFFCURVE",
"218 298 OFFCURVE",
"278 315 CURVE",
"338 298 OFFCURVE",
"382 262 OFFCURVE",
"382 212 CURVE SMOOTH",
"382 158 OFFCURVE",
"339 134 OFFCURVE",
"278 134 CURVE SMOOTH"
);
}
);
width = 556;
},
{
layerId = "04B5D069-3E89-43E6-853C-EFCF876AEDC5";
paths = (
{
closed = 1;
nodes = (
"363 0 OFFCURVE",
"463 52 OFFCURVE",
"463 199 CURVE SMOOTH",
"463 293 OFFCURVE",
"404 382 OFFCURVE",
"284 437 CURVE",
"284 554 LINE",
"501 554 LINE",
"501 622 LINE",
"-7 622 LINE",
"-7 554 LINE",
"210 554 LINE",
"210 437 LINE",
"90 381 OFFCURVE",
"31 293 OFFCURVE",
"31 199 CURVE SMOOTH",
"31 52 OFFCURVE",
"131 0 OFFCURVE",
"247 0 CURVE SMOOTH"
);
},
{
closed = 1;
nodes = (
"165 69 OFFCURVE",
"107 105 OFFCURVE",
"107 198 CURVE SMOOTH",
"107 282 OFFCURVE",
"163 341 OFFCURVE",
"247 380 CURVE",
"333 341 OFFCURVE",
"387 277 OFFCURVE",
"387 198 CURVE SMOOTH",
"387 105 OFFCURVE",
"329 69 OFFCURVE",
"247 69 CURVE SMOOTH"
);
}
);
width = 494;
}
);
unicode = 0A20;
},
{
glyphname = ddaguru;
lastChange = "2019-02-21 10:44:12 +0000";
layers = (
{
layerId = UUID0;
paths = (
{
closed = 1;
nodes = (
"423 0 OFFCURVE",
"543 66 OFFCURVE",
"543 199 CURVE SMOOTH",
"543 271 OFFCURVE",
"506 323 OFFCURVE",
"432 362 CURVE",
"481 391 OFFCURVE",
"518 428 OFFCURVE",
"518 511 CURVE SMOOTH",
"518 531 OFFCURVE",
"515 555 OFFCURVE",
"510 576 CURVE",
"487 551 LINE",
"604 551 LINE",
"604 622 LINE",
"-7 622 LINE",
"-7 551 LINE",
"458 551 LINE",
"425 578 LINE",
"434 553 OFFCURVE",
"437 531 OFFCURVE",
"437 512 CURVE SMOOTH",
"437 449 OFFCURVE",
"404 412 OFFCURVE",
"357 393 CURVE",
"311 410 OFFCURVE",
"265 419 OFFCURVE",
"212 419 CURVE SMOOTH",
"164 419 OFFCURVE",
"125 407 OFFCURVE",
"125 369 CURVE SMOOTH",
"125 341 OFFCURVE",
"145 312 OFFCURVE",
"236 312 CURVE SMOOTH",
"277 312 OFFCURVE",
"318 318 OFFCURVE",
"349 324 CURVE",
"416 304 OFFCURVE",
"461 256 OFFCURVE",
"461 202 CURVE SMOOTH",
"461 88 OFFCURVE",
"344 69 OFFCURVE",
"248 69 CURVE SMOOTH",
"161 69 OFFCURVE",
"116 88 OFFCURVE",
"116 125 CURVE SMOOTH",
"116 150 OFFCURVE",
"138 166 OFFCURVE",
"182 166 CURVE SMOOTH",
"257 166 OFFCURVE",
"319 116 OFFCURVE",
"362 67 CURVE",
"424 101 LINE",
"377 167 OFFCURVE",
"293 237 OFFCURVE",
"178 237 CURVE SMOOTH",
"82 237 OFFCURVE",
"35 186 OFFCURVE",
"35 127 CURVE SMOOTH",
"35 49 OFFCURVE",
"101 0 OFFCURVE",
"249 0 CURVE SMOOTH"
);
}
);
width = 597;
},
{
layerId = "397B4BA1-1DC1-423A-91EE-9CBCF179C3D0";
paths = (
{
closed = 1;
nodes = (
"467 0 OFFCURVE",
"603 75 OFFCURVE",
"603 214 CURVE SMOOTH",
"603 290 OFFCURVE",
"567 337 OFFCURVE",
"503 371 CURVE",
"549 396 OFFCURVE",
"583 433 OFFCURVE",
"583 493 CURVE SMOOTH",
"583 505 OFFCURVE",
"580 521 OFFCURVE",
"577 532 CURVE",
"543 512 LINE",
"650 512 LINE",
"650 622 LINE",
"-7 622 LINE",
"-7 512 LINE",
"485 512 LINE",
"442 532 LINE",
"446 522 OFFCURVE",
"448 511 OFFCURVE",
"448 500 CURVE SMOOTH",
"448 461 OFFCURVE",
"414 433 OFFCURVE",
"377 424 CURVE",
"329 440 OFFCURVE",
"283 447 OFFCURVE",
"248 447 CURVE SMOOTH",
"170 447 OFFCURVE",
"132 419 OFFCURVE",
"132 375 CURVE SMOOTH",
"132 336 OFFCURVE",
"160 298 OFFCURVE",
"256 298 CURVE SMOOTH",
"295 298 OFFCURVE",
"349 306 OFFCURVE",
"383 316 CURVE",
"437 300 OFFCURVE",
"467 267 OFFCURVE",
"467 221 CURVE SMOOTH",
"467 151 OFFCURVE",
"393 107 OFFCURVE",
"274 107 CURVE SMOOTH",
"189 107 OFFCURVE",
"158 120 OFFCURVE",
"158 144 CURVE SMOOTH",
"158 166 OFFCURVE",
"176 173 OFFCURVE",
"208 173 CURVE SMOOTH",
"280 173 OFFCURVE",
"344 129 OFFCURVE",
"396 71 CURVE",
"486 125 LINE",
"408 207 OFFCURVE",
"323 274 OFFCURVE",
"192 274 CURVE SMOOTH",
"86 274 OFFCURVE",
"28 220 OFFCURVE",
"28 148 CURVE SMOOTH",
"28 57 OFFCURVE",
"106 0 OFFCURVE",
"281 0 CURVE SMOOTH"
);
}
);
width = 643;
},
{
layerId = "AD832606-5186-48BF-AC4A-95D20F9D6762";
paths = (
{
closed = 1;
nodes = (
"404 0 OFFCURVE",
"493 83 OFFCURVE",
"493 200 CURVE SMOOTH",
"493 285 OFFCURVE",
"448 340 OFFCURVE",
"364 377 CURVE",
"443 411 OFFCURVE",
"468 465 OFFCURVE",
"468 541 CURVE SMOOTH",
"468 566 OFFCURVE",
"465 588 OFFCURVE",
"458 613 CURVE",
"453 596 LINE",
"565 596 LINE",
"565 622 LINE",
"-7 622 LINE",
"-7 596 LINE",
"444 596 LINE",
"430 613 LINE",
"438 590 OFFCURVE",
"442 569 OFFCURVE",
"442 541 CURVE SMOOTH",
"442 462 OFFCURVE",
"410 418 OFFCURVE",
"334 389 CURVE",
"306 397 OFFCURVE",
"246 405 OFFCURVE",
"195 405 CURVE SMOOTH",
"151 405 OFFCURVE",
"123 399 OFFCURVE",
"123 382 CURVE SMOOTH",
"123 363 OFFCURVE",
"157 356 OFFCURVE",
"216 356 CURVE SMOOTH",
"247 356 OFFCURVE",
"283 358 OFFCURVE",
"329 364 CURVE",
"408 339 OFFCURVE",
"466 289 OFFCURVE",
"466 200 CURVE SMOOTH",
"466 101 OFFCURVE",
"399 26 OFFCURVE",
"227 26 CURVE SMOOTH",
"129 26 OFFCURVE",
"71 62 OFFCURVE",
"71 117 CURVE SMOOTH",
"71 170 OFFCURVE",
"112 198 OFFCURVE",
"165 198 CURVE SMOOTH",
"253 198 OFFCURVE",
"321 137 OFFCURVE",
"384 55 CURVE",
"407 66 LINE",
"348 147 OFFCURVE",
"268 224 OFFCURVE",
"166 224 CURVE SMOOTH",
"92 224 OFFCURVE",
"44 182 OFFCURVE",
"44 117 CURVE SMOOTH",
"44 49 OFFCURVE",
"109 0 OFFCURVE",
"227 0 CURVE SMOOTH"
);
}
);
width = 558;
},
{
layerId = "F506C8C4-888D-41F0-91C9-49F2C7D2D9C4";
paths = (
{
closed = 1;
nodes = (
"526 0 OFFCURVE",
"640 91 OFFCURVE",
"640 221 CURVE SMOOTH",
"640 291 OFFCURVE",
"609 337 OFFCURVE",
"547 373 CURVE",
"589 399 OFFCURVE",
"615 434 OFFCURVE",
"615 500 CURVE SMOOTH",
"615 517 OFFCURVE",
"612 542 OFFCURVE",
"609 553 CURVE",
"547 484 LINE",
"676 484 LINE",
"676 622 LINE",
"-7 622 LINE",
"-7 484 LINE",
"489 484 LINE",
"439 550 LINE",
"443 540 OFFCURVE",
"445 520 OFFCURVE",
"445 500 CURVE SMOOTH",
"445 475 OFFCURVE",
"424 445 OFFCURVE",
"392 436 CURVE",
"344 453 OFFCURVE",
"307 459 OFFCURVE",
"261 459 CURVE SMOOTH",
"177 459 OFFCURVE",
"135 424 OFFCURVE",
"135 372 CURVE SMOOTH",
"135 322 OFFCURVE",
"172 281 OFFCURVE",
"275 281 CURVE SMOOTH",
"323 281 OFFCURVE",
"374 288 OFFCURVE",
"411 303 CURVE",
"441 288 OFFCURVE",
"461 268 OFFCURVE",
"461 227 CURVE SMOOTH",
"461 159 OFFCURVE",
"378 119 OFFCURVE",
"290 119 CURVE SMOOTH",
"217 119 OFFCURVE",
"196 127 OFFCURVE",
"196 141 CURVE SMOOTH",
"196 155 OFFCURVE",
"209 160 OFFCURVE",
"231 160 CURVE SMOOTH",
"286 160 OFFCURVE",
"342 128 OFFCURVE",
"398 70 CURVE",
"508 118 LINE",
"429 209 OFFCURVE",
"338 271 OFFCURVE",
"199 271 CURVE SMOOTH",
"71 271 OFFCURVE",
"21 213 OFFCURVE",
"21 142 CURVE SMOOTH",
"21 36 OFFCURVE",
"137 0 OFFCURVE",
"298 0 CURVE SMOOTH"
);
}
);
width = 669;
},
{
layerId = "C86CFEE0-D181-456A-AA08-2B118FAF25CE";
paths = (
{
closed = 1;
nodes = (
"283 0 OFFCURVE",
"376 57 OFFCURVE",
"376 198 CURVE SMOOTH",
"376 284 OFFCURVE",
"337 343 OFFCURVE",
"268 376 CURVE",
"329 412 OFFCURVE",
"358 463 OFFCURVE",
"358 545 CURVE SMOOTH",
"358 566 OFFCURVE",
"355 589 OFFCURVE",
"350 612 CURVE",
"339 596 LINE",
"429 596 LINE",
"429 622 LINE",
"-7 622 LINE",
"-7 596 LINE",
"333 596 LINE",
"324 612 LINE",
"330 587 OFFCURVE",
"332 566 OFFCURVE",
"332 545 CURVE SMOOTH",
"332 461 OFFCURVE",
"294 417 OFFCURVE",
"242 389 CURVE",
"221 397 OFFCURVE",
"191 403 OFFCURVE",
"155 403 CURVE SMOOTH",
"104 403 OFFCURVE",
"83 397 OFFCURVE",
"83 382 CURVE SMOOTH",
"83 366 OFFCURVE",
"107 357 OFFCURVE",
"162 357 CURVE SMOOTH",
"198 357 OFFCURVE",
"212 359 OFFCURVE",
"239 364 CURVE",
"310 336 OFFCURVE",
"350 279 OFFCURVE",
"350 198 CURVE SMOOTH",
"350 84 OFFCURVE",
"279 26 OFFCURVE",
"181 26 CURVE SMOOTH",
"112 26 OFFCURVE",
"64 55 OFFCURVE",
"64 114 CURVE SMOOTH",
"64 152 OFFCURVE",
"89 190 OFFCURVE",
"149 190 CURVE SMOOTH",
"214 190 OFFCURVE",
"262 149 OFFCURVE",
"326 67 CURVE",
"342 85 LINE",
"279 167 OFFCURVE",
"224 216 OFFCURVE",
"149 216 CURVE SMOOTH",
"72 216 OFFCURVE",
"37 166 OFFCURVE",
"37 114 CURVE SMOOTH",
"37 38 OFFCURVE",
"98 0 OFFCURVE",
"181 0 CURVE SMOOTH"
);
}
);
width = 422;
},
{
layerId = "CBEC276F-1F9B-404D-BC73-2CB92054D876";
paths = (
{
closed = 1;
nodes = (
"428 0 OFFCURVE",
"494 108 OFFCURVE",
"494 210 CURVE SMOOTH",
"494 293 OFFCURVE",
"464 342 OFFCURVE",
"414 381 CURVE",
"449 409 OFFCURVE",
"474 451 OFFCURVE",
"474 496 CURVE SMOOTH",
"474 514 OFFCURVE",
"472 528 OFFCURVE",
"469 540 CURVE",
"436 489 LINE",
"531 489 LINE",
"531 622 LINE",
"-7 622 LINE",
"-7 489 LINE",
"391 489 LINE",
"324 539 LINE",
"327 528 OFFCURVE",
"329 516 OFFCURVE",
"329 504 CURVE SMOOTH",
"329 469 OFFCURVE",
"316 451 OFFCURVE",
"293 433 CURVE",
"256 448 OFFCURVE",
"240 450 OFFCURVE",
"209 450 CURVE SMOOTH",
"151 450 OFFCURVE",
"104 419 OFFCURVE",
"104 369 CURVE SMOOTH",
"104 314 OFFCURVE",
"148 282 OFFCURVE",
"209 282 CURVE SMOOTH",
"240 282 OFFCURVE",
"276 288 OFFCURVE",
"308 303 CURVE",
"333 282 OFFCURVE",
"344 251 OFFCURVE",
"344 221 CURVE SMOOTH",
"344 165 OFFCURVE",
"301 119 OFFCURVE",
"212 119 CURVE SMOOTH",
"190 119 OFFCURVE",
"166 124 OFFCURVE",
"166 141 CURVE SMOOTH",
"166 154 OFFCURVE",
"176 162 OFFCURVE",
"199 162 CURVE SMOOTH",
"245 162 OFFCURVE",
"280 131 OFFCURVE",
"340 70 CURVE",
"404 146 LINE",
"334 224 OFFCURVE",
"271 272 OFFCURVE",
"170 272 CURVE SMOOTH",
"65 272 OFFCURVE",
"18 217 OFFCURVE",
"18 146 CURVE SMOOTH",
"18 52 OFFCURVE",
"97 0 OFFCURVE",
"224 0 CURVE SMOOTH"
);
}
);
width = 524;
},
{
layerId = "04B5D069-3E89-43E6-853C-EFCF876AEDC5";
paths = (
{
closed = 1;
nodes = (
"325 0 OFFCURVE",
"419 74 OFFCURVE",
"419 191 CURVE SMOOTH",
"419 284 OFFCURVE",
"375 333 OFFCURVE",
"324 365 CURVE",
"377 400 OFFCURVE",
"402 452 OFFCURVE",
"402 514 CURVE SMOOTH",
"402 532 OFFCURVE",
"399 557 OFFCURVE",
"395 578 CURVE",
"374 554 LINE",
"462 554 LINE",
"462 622 LINE",
"-7 622 LINE",
"-7 554 LINE",
"344 554 LINE",
"313 580 LINE",
"322 555 OFFCURVE",
"327 533 OFFCURVE",
"327 514 CURVE SMOOTH",
"327 452 OFFCURVE",
"299 419 OFFCURVE",
"261 397 CURVE",
"227 411 OFFCURVE",
"198 415 OFFCURVE",
"167 415 CURVE SMOOTH",
"120 415 OFFCURVE",
"86 403 OFFCURVE",
"86 366 CURVE SMOOTH",
"86 339 OFFCURVE",
"105 314 OFFCURVE",
"171 314 CURVE SMOOTH",
"214 314 OFFCURVE",
"240 321 OFFCURVE",
"256 328 CURVE",
"306 306 OFFCURVE",
"343 265 OFFCURVE",
"343 202 CURVE SMOOTH",
"343 113 OFFCURVE",
"290 67 OFFCURVE",
"196 67 CURVE SMOOTH",
"141 67 OFFCURVE",
"102 82 OFFCURVE",
"102 119 CURVE SMOOTH",
"102 148 OFFCURVE",
"123 165 OFFCURVE",
"158 165 CURVE SMOOTH",
"214 165 OFFCURVE",
"258 128 OFFCURVE",
"303 76 CURVE",
"352 116 LINE",
"291 191 OFFCURVE",
"229 232 OFFCURVE",
"155 232 CURVE SMOOTH",
"67 232 OFFCURVE",
"28 177 OFFCURVE",
"28 122 CURVE SMOOTH",
"28 46 OFFCURVE",
"88 0 OFFCURVE",
"196 0 CURVE SMOOTH"
);
}
);
width = 455;
}
);
unicode = 0A21;
},
{
glyphname = ddhaguru;
lastChange = "2019-02-21 10:44:12 +0000";
layers = (
{
layerId = UUID0;
paths = (
{
closed = 1;
nodes = (
"542 0 OFFCURVE",
"604 49 OFFCURVE",
"604 127 CURVE SMOOTH",
"604 186 OFFCURVE",
"560 237 OFFCURVE",
"463 237 CURVE SMOOTH",
"341 237 OFFCURVE",
"261 165 OFFCURVE",
"211 100 CURVE",
"271 67 LINE",
"314 116 OFFCURVE",
"378 166 OFFCURVE",
"456 166 CURVE SMOOTH",
"501 166 OFFCURVE",
"524 149 OFFCURVE",
"524 124 CURVE SMOOTH",
"524 86 OFFCURVE",
"486 69 OFFCURVE",
"408 69 CURVE SMOOTH",
"266 69 OFFCURVE",
"182 154 OFFCURVE",
"182 320 CURVE",
"527 320 LINE",
"557 350 LINE",
"557 551 LINE",
"653 551 LINE",
"653 622 LINE",
"-7 622 LINE",
"-7 551 LINE",
"476 551 LINE",
"476 391 LINE",
"182 391 LINE",
"182 416 LINE SMOOTH",
"182 445 OFFCURVE",
"171 472 OFFCURVE",
"139 472 CURVE SMOOTH",
"96 472 OFFCURVE",
"32 407 OFFCURVE",
"32 358 CURVE SMOOTH",
"32 337 OFFCURVE",
"46 320 OFFCURVE",
"83 320 CURVE SMOOTH",
"101 320 LINE",
"101 312 LINE SMOOTH",
"101 138 OFFCURVE",
"203 0 OFFCURVE",
"403 0 CURVE SMOOTH"
);
}
);
width = 646;
},
{
layerId = "397B4BA1-1DC1-423A-91EE-9CBCF179C3D0";
paths = (
{
closed = 1;
nodes = (
"588 0 OFFCURVE",
"664 57 OFFCURVE",
"664 145 CURVE SMOOTH",
"664 220 OFFCURVE",
"605 274 OFFCURVE",
"494 274 CURVE SMOOTH",
"367 274 OFFCURVE",
"283 205 OFFCURVE",
"206 120 CURVE",
"296 71 LINE",
"352 132 OFFCURVE",
"412 173 OFFCURVE",
"480 173 CURVE SMOOTH",
"516 173 OFFCURVE",
"534 166 OFFCURVE",
"534 144 CURVE SMOOTH",
"534 120 OFFCURVE",
"505 107 OFFCURVE",
"443 107 CURVE SMOOTH",
"306 107 OFFCURVE",
"236 184 OFFCURVE",
"235 300 CURVE",
"584 300 LINE",
"620 336 LINE",
"620 512 LINE",
"710 512 LINE",
"710 622 LINE",
"-7 622 LINE",
"-7 512 LINE",
"486 512 LINE",
"486 410 LINE",
"235 410 LINE",
"235 417 LINE SMOOTH",
"235 459 OFFCURVE",
"213 486 OFFCURVE",
"170 486 CURVE SMOOTH",
"96 486 OFFCURVE",
"24 407 OFFCURVE",
"24 352 CURVE SMOOTH",
"24 321 OFFCURVE",
"42 300 OFFCURVE",
"87 300 CURVE SMOOTH",
"101 300 LINE",
"101 294 LINE SMOOTH",
"101 122 OFFCURVE",
"232 0 OFFCURVE",
"438 0 CURVE SMOOTH"
);
}
);
width = 703;
},
{
layerId = "AD832606-5186-48BF-AC4A-95D20F9D6762";
paths = (
{
closed = 1;
nodes = (
"479 0 OFFCURVE",
"537 49 OFFCURVE",
"537 117 CURVE SMOOTH",
"537 182 OFFCURVE",
"489 224 OFFCURVE",
"415 224 CURVE SMOOTH",
"313 224 OFFCURVE",
"229 147 OFFCURVE",
"185 88 CURVE",
"205 73 LINE",
"256 137 OFFCURVE",
"328 198 OFFCURVE",
"416 198 CURVE SMOOTH",
"469 198 OFFCURVE",
"510 170 OFFCURVE",
"510 117 CURVE SMOOTH",
"510 62 OFFCURVE",
"460 26 OFFCURVE",
"367 26 CURVE SMOOTH",
"231 26 OFFCURVE",
"117 131 OFFCURVE",
"117 360 CURVE",
"472 360 LINE",
"487 374 LINE",
"487 596 LINE",
"594 596 LINE",
"594 622 LINE",
"-7 622 LINE",
"-7 596 LINE",
"461 596 LINE",
"461 386 LINE",
"119 386 LINE",
"119 413 LINE SMOOTH",
"119 430 OFFCURVE",
"116 446 OFFCURVE",
"101 446 CURVE SMOOTH",
"76 446 OFFCURVE",
"40 405 OFFCURVE",
"40 381 CURVE SMOOTH",
"40 364 OFFCURVE",
"57 360 OFFCURVE",
"80 360 CURVE SMOOTH",
"91 360 LINE",
"91 352 LINE SMOOTH",
"91 124 OFFCURVE",
"213 0 OFFCURVE",
"368 0 CURVE SMOOTH"
);
}
);
width = 587;
},
{
layerId = "F506C8C4-888D-41F0-91C9-49F2C7D2D9C4";
paths = (
{
closed = 1;
nodes = (
"562 0 OFFCURVE",
"690 28 OFFCURVE",
"690 140 CURVE SMOOTH",
"690 209 OFFCURVE",
"640 266 OFFCURVE",
"511 266 CURVE SMOOTH",
"373 266 OFFCURVE",
"282 205 OFFCURVE",
"203 114 CURVE",
"313 70 LINE",
"369 128 OFFCURVE",
"427 160 OFFCURVE",
"478 160 CURVE SMOOTH",
"502 160 OFFCURVE",
"515 155 OFFCURVE",
"515 141 CURVE SMOOTH",
"515 127 OFFCURVE",
"496 119 OFFCURVE",
"450 119 CURVE SMOOTH",
"321 119 OFFCURVE",
"262 202 OFFCURVE",
"257 277 CURVE",
"591 277 LINE",
"643 327 LINE",
"643 484 LINE",
"724 484 LINE",
"724 622 LINE",
"-7 622 LINE",
"-7 484 LINE",
"466 484 LINE",
"466 405 LINE",
"263 405 LINE",
"263 407 LINE SMOOTH",
"263 446 OFFCURVE",
"227 471 OFFCURVE",
"184 471 CURVE SMOOTH",
"99 471 OFFCURVE",
"17 397 OFFCURVE",
"17 333 CURVE SMOOTH",
"17 290 OFFCURVE",
"44 270 OFFCURVE",
"84 270 CURVE SMOOTH",
"88 270 LINE",
"88 269 LINE",
"92 116 OFFCURVE",
"204 0 OFFCURVE",
"440 0 CURVE SMOOTH"
);
}
);
width = 717;
},
{
layerId = "C86CFEE0-D181-456A-AA08-2B118FAF25CE";
paths = (
{
closed = 1;
nodes = (
"346 0 OFFCURVE",
"399 37 OFFCURVE",
"399 111 CURVE SMOOTH",
"399 175 OFFCURVE",
"356 216 OFFCURVE",
"288 216 CURVE SMOOTH",
"224 216 OFFCURVE",
"165 182 OFFCURVE",
"112 111 CURVE",
"128 93 LINE",
"178 154 OFFCURVE",
"229 190 OFFCURVE",
"286 190 CURVE SMOOTH",
"339 190 OFFCURVE",
"372 161 OFFCURVE",
"372 111 CURVE SMOOTH",
"372 55 OFFCURVE",
"333 26 OFFCURVE",
"277 26 CURVE SMOOTH",
"170 26 OFFCURVE",
"96 101 OFFCURVE",
"94 360 CURVE",
"350 360 LINE",
"366 376 LINE",
"366 596 LINE",
"450 596 LINE",
"450 622 LINE",
"-7 622 LINE",
"-7 596 LINE",
"340 596 LINE",
"340 386 LINE",
"96 386 LINE",
"96 413 LINE SMOOTH",
"96 431 OFFCURVE",
"92 440 OFFCURVE",
"81 440 CURVE SMOOTH",
"60 440 OFFCURVE",
"32 402 OFFCURVE",
"32 378 CURVE SMOOTH",
"32 362 OFFCURVE",
"45 360 OFFCURVE",
"61 360 CURVE SMOOTH",
"68 360 LINE",
"68 336 LINE SMOOTH",
"68 98 OFFCURVE",
"156 0 OFFCURVE",
"276 0 CURVE SMOOTH"
);
}
);
width = 443;
},
{
layerId = "CBEC276F-1F9B-404D-BC73-2CB92054D876";
paths = (
{
closed = 1;
nodes = (
"498 0 OFFCURVE",
"553 65 OFFCURVE",
"553 140 CURVE SMOOTH",
"553 217 OFFCURVE",
"502 265 OFFCURVE",
"401 265 CURVE SMOOTH",
"302 265 OFFCURVE",
"240 221 OFFCURVE",
"170 143 CURVE",
"231 70 LINE",
"291 131 OFFCURVE",
"326 162 OFFCURVE",
"372 162 CURVE SMOOTH",
"395 162 OFFCURVE",
"405 154 OFFCURVE",
"405 141 CURVE SMOOTH",
"405 124 OFFCURVE",
"390 119 OFFCURVE",
"357 119 CURVE SMOOTH",
"293 119 OFFCURVE",
"220 154 OFFCURVE",
"214 278 CURVE",
"462 278 LINE",
"517 324 LINE",
"517 489 LINE",
"580 489 LINE",
"580 622 LINE",
"-7 622 LINE",
"-7 489 LINE",
"367 489 LINE",
"367 405 LINE",
"213 405 LINE",
"213 409 LINE SMOOTH",
"213 450 OFFCURVE",
"195 470 OFFCURVE",
"152 470 CURVE SMOOTH",
"88 470 OFFCURVE",
"14 387 OFFCURVE",
"14 322 CURVE SMOOTH",
"14 286 OFFCURVE",
"35 272 OFFCURVE",
"57 272 CURVE SMOOTH",
"68 272 LINE",
"68 265 LINE SMOOTH",
"68 99 OFFCURVE",
"183 0 OFFCURVE",
"350 0 CURVE SMOOTH"
);
}
);
width = 573;
},
{
layerId = "04B5D069-3E89-43E6-853C-EFCF876AEDC5";
paths = (
{
closed = 1;
nodes = (
"406 0 OFFCURVE",
"455 49 OFFCURVE",
"455 120 CURVE SMOOTH",
"455 179 OFFCURVE",
"416 232 OFFCURVE",
"329 232 CURVE SMOOTH",
"250 232 OFFCURVE",
"185 185 OFFCURVE",
"127 114 CURVE",
"176 76 LINE",
"221 128 OFFCURVE",
"266 165 OFFCURVE",
"323 165 CURVE SMOOTH",
"360 165 OFFCURVE",
"381 148 OFFCURVE",
"381 118 CURVE SMOOTH",
"381 85 OFFCURVE",
"357 67 OFFCURVE",
"307 67 CURVE SMOOTH",
"187 67 OFFCURVE",
"151 172 OFFCURVE",
"151 322 CURVE",
"400 322 LINE",
"422 350 LINE",
"422 554 LINE",
"495 554 LINE",
"495 622 LINE",
"-7 622 LINE",
"-7 554 LINE",
"347 554 LINE",
"347 390 LINE",
"151 390 LINE",
"151 428 LINE SMOOTH",
"151 451 OFFCURVE",
"140 468 OFFCURVE",
"118 468 CURVE SMOOTH",
"73 468 OFFCURVE",
"24 401 OFFCURVE",
"24 358 CURVE SMOOTH",
"24 338 OFFCURVE",
"35 321 OFFCURVE",
"71 321 CURVE SMOOTH",
"76 321 LINE",
"76 302 LINE SMOOTH",
"76 121 OFFCURVE",
"157 0 OFFCURVE",
"302 0 CURVE SMOOTH"
);
}
);
width = 488;
}
);
unicode = 0A22;
},
{
glyphname = nnaguru;
lastChange = "2019-02-21 10:42:34 +0000";
layers = (
{
layerId = UUID0;
paths = (
{
closed = 1;
nodes = (
"431 0 OFFCURVE",
"505 19 OFFCURVE",
"589 57 CURVE",
"561 128 LINE",
"472 87 OFFCURVE",
"417 73 OFFCURVE",
"341 73 CURVE SMOOTH",
"235 73 OFFCURVE",
"180 127 OFFCURVE",
"126 214 CURVE",
"117 202 LINE",
"172 268 OFFCURVE",
"213 302 OFFCURVE",
"283 302 CURVE SMOOTH",
"313 302 OFFCURVE",
"340 296 OFFCURVE",
"360 288 CURVE",
"397 303 LINE",
"458 423 LINE",
"392 462 LINE",
"333 347 LINE",
"369 354 LINE",
"341 368 OFFCURVE",
"311 375 OFFCURVE",
"276 375 CURVE SMOOTH",
"172 375 OFFCURVE",
"104 309 OFFCURVE",
"34 219 CURVE",
"103 84 OFFCURVE",
"178 0 OFFCURVE",
"341 0 CURVE SMOOTH"
);
},
{
closed = 1;
nodes = (
"587 398 LINE",
"488 441 OFFCURVE",
"381 493 OFFCURVE",
"292 566 CURVE",
"275 551 LINE",
"629 551 LINE",
"629 622 LINE",
"-7 622 LINE",
"-7 551 LINE",
"240 551 LINE",
"185 570 LINE",
"299 456 OFFCURVE",
"434 384 OFFCURVE",
"552 330 CURVE"
);
}
);
width = 622;
},
{
layerId = "397B4BA1-1DC1-423A-91EE-9CBCF179C3D0";
paths = (
{
closed = 1;
nodes = (
"471 0 OFFCURVE",
"553 22 OFFCURVE",
"623 54 CURVE",
"576 160 LINE",
"493 125 OFFCURVE",
"456 112 OFFCURVE",
"377 112 CURVE SMOOTH",
"279 112 OFFCURVE",
"218 145 OFFCURVE",
"153 251 CURVE",
"144 163 LINE",
"209 246 OFFCURVE",
"253 279 OFFCURVE",
"315 279 CURVE SMOOTH",
"340 279 OFFCURVE",
"361 274 OFFCURVE",
"380 265 CURVE",
"436 285 LINE",
"494 420 LINE",
"397 487 LINE",
"336 338 LINE",
"396 366 LINE",
"364 383 OFFCURVE",
"338 392 OFFCURVE",
"298 392 CURVE SMOOTH",
"205 392 OFFCURVE",
"133 344 OFFCURVE",
"26 219 CURVE",
"92 100 OFFCURVE",
"179 0 OFFCURVE",
"375 0 CURVE SMOOTH"
);
},
{
closed = 1;
nodes = (
"623 422 LINE",
"529 458 OFFCURVE",
"433 497 OFFCURVE",
"340 551 CURVE",
"347 512 LINE",
"659 512 LINE",
"659 622 LINE",
"-7 622 LINE",
"-7 512 LINE",
"278 512 LINE",
"187 551 LINE",
"300 442 OFFCURVE",
"445 368 OFFCURVE",
"566 311 CURVE"
);
}
);
width = 652;
},
{
layerId = "AD832606-5186-48BF-AC4A-95D20F9D6762";
paths = (
{
closed = 1;
nodes = (
"412 0 OFFCURVE",
"473 18 OFFCURVE",
"547 51 CURVE",
"537 74 LINE",
"457 39 OFFCURVE",
"404 26 OFFCURVE",
"335 26 CURVE SMOOTH",
"193 26 OFFCURVE",
"129 97 OFFCURVE",
"64 231 CURVE",
"62 194 LINE",
"110 285 OFFCURVE",
"181 345 OFFCURVE",
"257 345 CURVE SMOOTH",
"289 345 OFFCURVE",
"312 340 OFFCURVE",
"343 327 CURVE",
"362 334 LINE",
"414 438 LINE",
"392 449 LINE",
"338 342 LINE",
"349 351 LINE",
"320 363 OFFCURVE",
"300 371 OFFCURVE",
"257 371 CURVE SMOOTH",
"180 371 OFFCURVE",
"103 319 OFFCURVE",
"42 214 CURVE",
"111 77 OFFCURVE",
"181 0 OFFCURVE",
"335 0 CURVE SMOOTH"
);
},
{
closed = 1;
nodes = (
"534 394 LINE",
"424 436 OFFCURVE",
"284 522 OFFCURVE",
"200 611 CURVE",
"200 596 LINE",
"592 596 LINE",
"592 622 LINE",
"-7 622 LINE",
"-7 596 LINE",
"195 596 LINE",
"169 605 LINE",
"280 493 OFFCURVE",
"396 425 OFFCURVE",
"524 370 CURVE"
);
}
);
width = 585;
},
{
layerId = "F506C8C4-888D-41F0-91C9-49F2C7D2D9C4";
paths = (
{
closed = 1;
nodes = (
"486 0 OFFCURVE",
"577 25 OFFCURVE",
"644 60 CURVE",
"584 191 LINE",
"520 162 OFFCURVE",
"452 139 OFFCURVE",
"387 139 CURVE SMOOTH",
"279 139 OFFCURVE",
"242 167 OFFCURVE",
"188 237 CURVE",
"205 182 LINE",
"256 236 OFFCURVE",
"288 247 OFFCURVE",
"328 247 CURVE SMOOTH",
"353 247 OFFCURVE",
"371 244 OFFCURVE",
"390 237 CURVE",
"462 262 LINE",
"537 425 LINE",
"396 492 LINE",
"332 340 LINE",
"417 351 LINE",
"376 373 OFFCURVE",
"338 382 OFFCURVE",
"311 382 CURVE SMOOTH",
"197 382 OFFCURVE",
"110 333 OFFCURVE",
"16 214 CURVE",
"90 53 OFFCURVE",
"216 0 OFFCURVE",
"387 0 CURVE SMOOTH"
);
},
{
closed = 1;
nodes = (
"647 409 LINE",
"552 445 OFFCURVE",
"465 480 OFFCURVE",
"372 530 CURVE",
"350 484 LINE",
"669 484 LINE",
"669 622 LINE",
"-7 622 LINE",
"-7 484 LINE",
"281 484 LINE",
"171 521 LINE",
"318 404 OFFCURVE",
"459 327 OFFCURVE",
"580 280 CURVE"
);
}
);
width = 662;
},
{
layerId = "C86CFEE0-D181-456A-AA08-2B118FAF25CE";
paths = (
{
closed = 1;
nodes = (
"319 0 OFFCURVE",
"367 11 OFFCURVE",
"412 37 CURVE",
"402 62 LINE",
"355 35 OFFCURVE",
"316 26 OFFCURVE",
"265 26 CURVE SMOOTH",
"153 26 OFFCURVE",
"101 103 OFFCURVE",
"59 232 CURVE",
"55 192 LINE",
"106 289 OFFCURVE",
"149 345 OFFCURVE",
"225 345 CURVE SMOOTH",
"240 345 OFFCURVE",
"251 343 OFFCURVE",
"265 338 CURVE",
"288 347 LINE",
"340 444 LINE",
"316 456 LINE",
"263 357 LINE",
"278 361 LINE",
"259 368 OFFCURVE",
"239 371 OFFCURVE",
"222 371 CURVE SMOOTH",
"137 371 OFFCURVE",
"90 311 OFFCURVE",
"35 214 CURVE",
"86 77 OFFCURVE",
"142 0 OFFCURVE",
"265 0 CURVE SMOOTH"
);
},
{
closed = 1;
nodes = (
"417 405 LINE",
"336 454 OFFCURVE",
"248 520 OFFCURVE",
"169 611 CURVE",
"161 596 LINE",
"445 596 LINE",
"445 622 LINE",
"-7 622 LINE",
"-7 596 LINE",
"154 596 LINE",
"142 605 LINE",
"225 508 OFFCURVE",
"304 447 OFFCURVE",
"404 382 CURVE"
);
}
);
width = 438;
},
{
layerId = "CBEC276F-1F9B-404D-BC73-2CB92054D876";
paths = (
{
closed = 1;
nodes = (
"392 0 OFFCURVE",
"450 24 OFFCURVE",
"503 52 CURVE",
"456 174 LINE",
"406 146 OFFCURVE",
"366 134 OFFCURVE",
"312 134 CURVE SMOOTH",
"244 134 OFFCURVE",
"206 150 OFFCURVE",
"172 217 CURVE",
"163 180 LINE",
"202 229 OFFCURVE",
"226 248 OFFCURVE",
"262 248 CURVE SMOOTH",
"274 248 OFFCURVE",
"286 246 OFFCURVE",
"298 242 CURVE",
"362 262 LINE",
"438 409 LINE",
"312 481 LINE",
"238 341 LINE",
"351 344 LINE",
"319 368 OFFCURVE",
"279 381 OFFCURVE",
"242 381 CURVE SMOOTH",
"139 381 OFFCURVE",
"72 323 OFFCURVE",
"13 215 CURVE",
"65 63 OFFCURVE",
"178 0 OFFCURVE",
"308 0 CURVE SMOOTH"
);
},
{
closed = 1;
nodes = (
"507 407 LINE",
"436 443 OFFCURVE",
"388 471 OFFCURVE",
"313 532 CURVE",
"275 489 LINE",
"520 489 LINE",
"520 622 LINE",
"-7 622 LINE",
"-7 489 LINE",
"220 489 LINE",
"143 520 LINE",
"229 406 OFFCURVE",
"332 342 OFFCURVE",
"431 287 CURVE"
);
}
);
width = 513;
},
{
layerId = "04B5D069-3E89-43E6-853C-EFCF876AEDC5";
paths = (
{
closed = 1;
nodes = (
"326 0 OFFCURVE",
"382 13 OFFCURVE",
"435 39 CURVE",
"409 106 LINE",
"356 79 OFFCURVE",
"325 70 OFFCURVE",
"276 70 CURVE SMOOTH",
"195 70 OFFCURVE",
"149 117 OFFCURVE",
"105 218 CURVE",
"99 189 LINE",
"143 264 OFFCURVE",
"181 303 OFFCURVE",
"234 303 CURVE SMOOTH",
"247 303 OFFCURVE",
"259 301 OFFCURVE",
"270 298 CURVE",
"310 313 LINE",
"369 422 LINE",
"297 453 LINE",
"242 346 LINE",
"282 362 LINE",
"263 369 OFFCURVE",
"247 372 OFFCURVE",
"226 372 CURVE SMOOTH",
"138 372 OFFCURVE",
"88 319 OFFCURVE",
"25 219 CURVE",
"79 77 OFFCURVE",
"141 0 OFFCURVE",
"276 0 CURVE SMOOTH"
);
},
{
closed = 1;
nodes = (
"437 396 LINE",
"371 439 OFFCURVE",
"293 497 OFFCURVE",
"228 569 CURVE",
"224 554 LINE",
"459 554 LINE",
"459 622 LINE",
"-7 622 LINE",
"-7 554 LINE",
"187 554 LINE",
"137 573 LINE",
"218 463 OFFCURVE",
"313 389 OFFCURVE",
"397 335 CURVE"
);
}
);
width = 452;
}
);
unicode = 0A23;
},
{
glyphname = taguru;
lastChange = "2019-02-21 10:44:12 +0000";
layers = (
{
layerId = UUID0;
paths = (
{
closed = 1;
nodes = (
"389 0 OFFCURVE",
"488 66 OFFCURVE",
"488 188 CURVE SMOOTH",
"488 275 OFFCURVE",
"443 326 OFFCURVE",
"377 362 CURVE",
"426 391 OFFCURVE",
"463 428 OFFCURVE",
"463 511 CURVE SMOOTH",
"463 530 OFFCURVE",
"460 555 OFFCURVE",
"455 576 CURVE",
"424 551 LINE",
"549 551 LINE",
"549 622 LINE",
"-7 622 LINE",
"-7 551 LINE",
"414 551 LINE",
"370 578 LINE",
"379 553 OFFCURVE",
"382 531 OFFCURVE",
"382 512 CURVE SMOOTH",
"382 449 OFFCURVE",
"349 412 OFFCURVE",
"302 393 CURVE",
"256 410 OFFCURVE",
"210 419 OFFCURVE",
"157 419 CURVE SMOOTH",
"108 419 OFFCURVE",
"69 407 OFFCURVE",
"69 369 CURVE SMOOTH",
"69 341 OFFCURVE",
"89 312 OFFCURVE",
"181 312 CURVE SMOOTH",
"222 312 OFFCURVE",
"264 318 OFFCURVE",
"294 324 CURVE",
"362 297 OFFCURVE",
"406 254 OFFCURVE",
"406 189 CURVE SMOOTH",
"406 105 OFFCURVE",
"335 73 OFFCURVE",
"248 73 CURVE SMOOTH",
"174 73 OFFCURVE",
"109 96 OFFCURVE",
"45 137 CURVE",
"13 64 LINE",
"78 26 OFFCURVE",
"160 0 OFFCURVE",
"250 0 CURVE SMOOTH"
);
}
);
width = 542;
},
{
layerId = "397B4BA1-1DC1-423A-91EE-9CBCF179C3D0";
paths = (
{
closed = 1;
nodes = (
"443 0 OFFCURVE",
"547 62 OFFCURVE",
"547 180 CURVE SMOOTH",
"547 258 OFFCURVE",
"509 304 OFFCURVE",
"448 342 CURVE",
"494 368 OFFCURVE",
"527 407 OFFCURVE",
"527 480 CURVE SMOOTH",
"527 497 OFFCURVE",
"524 518 OFFCURVE",
"517 539 CURVE",
"488 512 LINE",
"592 512 LINE",
"592 622 LINE",
"-7 622 LINE",
"-7 512 LINE",
"447 512 LINE",
"383 552 LINE",
"391 523 OFFCURVE",
"393 502 OFFCURVE",
"393 487 CURVE SMOOTH",
"393 435 OFFCURVE",
"358 405 OFFCURVE",
"322 395 CURVE",
"273 411 OFFCURVE",
"229 418 OFFCURVE",
"192 418 CURVE SMOOTH",
"127 418 OFFCURVE",
"75 397 OFFCURVE",
"75 346 CURVE SMOOTH",
"75 306 OFFCURVE",
"103 269 OFFCURVE",
"199 269 CURVE SMOOTH",
"235 269 OFFCURVE",
"283 274 OFFCURVE",
"320 285 CURVE",
"371 272 OFFCURVE",
"411 238 OFFCURVE",
"411 193 CURVE SMOOTH",
"411 136 OFFCURVE",
"356 112 OFFCURVE",
"268 112 CURVE SMOOTH",
"201 112 OFFCURVE",
"129 131 OFFCURVE",
"52 172 CURVE",
"13 64 LINE",
"77 28 OFFCURVE",
"175 0 OFFCURVE",
"274 0 CURVE SMOOTH"
);
}
);
width = 585;
},
{
layerId = "AD832606-5186-48BF-AC4A-95D20F9D6762";
paths = (
{
closed = 1;
nodes = (
"369 0 OFFCURVE",
"452 68 OFFCURVE",
"452 184 CURVE SMOOTH",
"452 267 OFFCURVE",
"406 329 OFFCURVE",
"323 369 CURVE",
"402 403 OFFCURVE",
"427 457 OFFCURVE",
"427 533 CURVE SMOOTH",
"427 558 OFFCURVE",
"424 588 OFFCURVE",
"417 605 CURVE",
"410 596 LINE",
"524 596 LINE",
"524 622 LINE",
"-7 622 LINE",
"-7 596 LINE",
"401 596 LINE",
"389 605 LINE",
"397 590 OFFCURVE",
"401 561 OFFCURVE",
"401 533 CURVE SMOOTH",
"401 454 OFFCURVE",
"369 410 OFFCURVE",
"293 381 CURVE",
"265 389 OFFCURVE",
"205 397 OFFCURVE",
"154 397 CURVE SMOOTH",
"110 397 OFFCURVE",
"82 391 OFFCURVE",
"82 374 CURVE SMOOTH",
"82 355 OFFCURVE",
"116 348 OFFCURVE",
"175 348 CURVE SMOOTH",
"206 348 OFFCURVE",
"242 350 OFFCURVE",
"288 356 CURVE",
"359 334 OFFCURVE",
"425 279 OFFCURVE",
"425 184 CURVE SMOOTH",
"425 79 OFFCURVE",
"349 26 OFFCURVE",
"233 26 CURVE SMOOTH",
"155 26 OFFCURVE",
"85 53 OFFCURVE",
"26 93 CURVE",
"15 70 LINE",
"66 34 OFFCURVE",
"145 0 OFFCURVE",
"234 0 CURVE SMOOTH"
);
}
);
width = 517;
},
{
layerId = "F506C8C4-888D-41F0-91C9-49F2C7D2D9C4";
paths = (
{
closed = 1;
nodes = (
"454 0 OFFCURVE",
"579 52 OFFCURVE",
"579 188 CURVE SMOOTH",
"579 255 OFFCURVE",
"546 302 OFFCURVE",
"486 341 CURVE",
"535 372 OFFCURVE",
"555 411 OFFCURVE",
"555 478 CURVE SMOOTH",
"555 503 OFFCURVE",
"551 527 OFFCURVE",
"545 539 CURVE",
"483 484 LINE",
"615 484 LINE",
"615 622 LINE",
"-7 622 LINE",
"-7 484 LINE",
"422 484 LINE",
"373 517 LINE",
"377 509 OFFCURVE",
"379 500 OFFCURVE",
"379 482 CURVE SMOOTH",
"379 441 OFFCURVE",
"357 418 OFFCURVE",
"329 407 CURVE",
"287 422 OFFCURVE",
"238 429 OFFCURVE",
"200 429 CURVE SMOOTH",
"116 429 OFFCURVE",
"74 393 OFFCURVE",
"74 340 CURVE SMOOTH",
"74 287 OFFCURVE",
"111 248 OFFCURVE",
"214 248 CURVE SMOOTH",
"262 248 OFFCURVE",
"309 255 OFFCURVE",
"345 269 CURVE",
"377 255 OFFCURVE",
"400 235 OFFCURVE",
"400 203 CURVE SMOOTH",
"400 158 OFFCURVE",
"360 140 OFFCURVE",
"276 140 CURVE SMOOTH",
"209 140 OFFCURVE",
"140 158 OFFCURVE",
"59 198 CURVE",
"12 64 LINE",
"82 26 OFFCURVE",
"192 0 OFFCURVE",
"298 0 CURVE SMOOTH"
);
}
);
width = 608;
},
{
layerId = "C86CFEE0-D181-456A-AA08-2B118FAF25CE";
paths = (
{
closed = 1;
nodes = (
"284 0 OFFCURVE",
"341 72 OFFCURVE",
"341 185 CURVE SMOOTH",
"341 270 OFFCURVE",
"298 331 OFFCURVE",
"232 368 CURVE",
"293 404 OFFCURVE",
"322 455 OFFCURVE",
"322 536 CURVE SMOOTH",
"322 558 OFFCURVE",
"319 581 OFFCURVE",
"314 604 CURVE",
"300 596 LINE",
"394 596 LINE",
"394 622 LINE",
"-7 622 LINE",
"-7 596 LINE",
"294 596 LINE",
"288 604 LINE",
"293 579 OFFCURVE",
"296 558 OFFCURVE",
"296 537 CURVE SMOOTH",
"296 453 OFFCURVE",
"258 409 OFFCURVE",
"206 381 CURVE",
"185 389 OFFCURVE",
"155 395 OFFCURVE",
"119 395 CURVE SMOOTH",
"68 395 OFFCURVE",
"47 389 OFFCURVE",
"47 374 CURVE SMOOTH",
"47 357 OFFCURVE",
"71 349 OFFCURVE",
"126 349 CURVE SMOOTH",
"162 349 OFFCURVE",
"176 351 OFFCURVE",
"203 356 CURVE",
"269 327 OFFCURVE",
"314 264 OFFCURVE",
"314 184 CURVE SMOOTH",
"314 88 OFFCURVE",
"266 26 OFFCURVE",
"167 26 CURVE SMOOTH",
"110 26 OFFCURVE",
"73 40 OFFCURVE",
"21 71 CURVE",
"10 46 LINE",
"62 16 OFFCURVE",
"107 0 OFFCURVE",
"166 0 CURVE SMOOTH"
);
}
);
width = 387;
},
{
layerId = "CBEC276F-1F9B-404D-BC73-2CB92054D876";
paths = (
{
closed = 1;
nodes = (
"332 0 OFFCURVE",
"431 53 OFFCURVE",
"431 189 CURVE SMOOTH",
"431 277 OFFCURVE",
"388 322 OFFCURVE",
"351 351 CURVE",
"391 388 OFFCURVE",
"411 430 OFFCURVE",
"411 480 CURVE SMOOTH",
"411 496 OFFCURVE",
"409 517 OFFCURVE",
"403 539 CURVE",
"347 489 LINE",
"469 489 LINE",
"469 622 LINE",
"-7 622 LINE",
"-7 489 LINE",
"300 489 LINE",
"252 520 LINE",
"257 509 OFFCURVE",
"261 490 OFFCURVE",
"261 476 CURVE SMOOTH",
"261 445 OFFCURVE",
"250 422 OFFCURVE",
"228 407 CURVE",
"203 417 OFFCURVE",
"179 422 OFFCURVE",
"146 422 CURVE SMOOTH",
"80 422 OFFCURVE",
"41 388 OFFCURVE",
"41 338 CURVE SMOOTH",
"41 284 OFFCURVE",
"85 252 OFFCURVE",
"146 252 CURVE SMOOTH",
"193 252 OFFCURVE",
"213 258 OFFCURVE",
"241 270 CURVE",
"260 255 OFFCURVE",
"279 233 OFFCURVE",
"279 198 CURVE SMOOTH",
"279 154 OFFCURVE",
"244 133 OFFCURVE",
"189 133 CURVE SMOOTH",
"144 133 OFFCURVE",
"105 143 OFFCURVE",
"59 165 CURVE",
"11 44 LINE",
"70 14 OFFCURVE",
"131 0 OFFCURVE",
"202 0 CURVE SMOOTH"
);
}
);
width = 462;
},
{
layerId = "04B5D069-3E89-43E6-853C-EFCF876AEDC5";
paths = (
{
closed = 1;
nodes = (
"299 0 OFFCURVE",
"372 68 OFFCURVE",
"372 187 CURVE SMOOTH",
"372 275 OFFCURVE",
"331 330 OFFCURVE",
"277 365 CURVE",
"330 400 OFFCURVE",
"355 452 OFFCURVE",
"355 514 CURVE SMOOTH",
"355 532 OFFCURVE",
"352 557 OFFCURVE",
"348 578 CURVE",
"331 554 LINE",
"415 554 LINE",
"415 622 LINE",
"-7 622 LINE",
"-7 554 LINE",
"306 554 LINE",
"266 580 LINE",
"275 555 OFFCURVE",
"280 533 OFFCURVE",
"280 514 CURVE SMOOTH",
"280 452 OFFCURVE",
"252 419 OFFCURVE",
"214 397 CURVE",
"180 411 OFFCURVE",
"151 415 OFFCURVE",
"120 415 CURVE SMOOTH",
"73 415 OFFCURVE",
"39 403 OFFCURVE",
"39 366 CURVE SMOOTH",
"39 339 OFFCURVE",
"58 314 OFFCURVE",
"124 314 CURVE SMOOTH",
"167 314 OFFCURVE",
"193 321 OFFCURVE",
"209 328 CURVE",
"272 296 OFFCURVE",
"295 240 OFFCURVE",
"295 189 CURVE SMOOTH",
"295 104 OFFCURVE",
"250 70 OFFCURVE",
"174 70 CURVE SMOOTH",
"128 70 OFFCURVE",
"91 83 OFFCURVE",
"40 115 CURVE",
"11 49 LINE",
"68 15 OFFCURVE",
"124 0 OFFCURVE",
"174 0 CURVE SMOOTH"
);
}
);
width = 408;
}
);
unicode = 0A24;
},
{
glyphname = thaguru;
lastChange = "2019-02-21 10:42:34 +0000";
layers = (
{
layerId = UUID0;
paths = (
{
closed = 1;
nodes = (
"509 0 LINE",
"509 551 LINE",
"605 551 LINE",
"605 622 LINE",
"118 622 LINE",
"118 551 LINE",
"428 551 LINE",
"428 242 LINE",
"429 251 LINE",
"381 222 OFFCURVE",
"337 206 OFFCURVE",
"284 206 CURVE SMOOTH",
"206 206 OFFCURVE",
"161 257 OFFCURVE",
"118 357 CURVE",
"114 313 LINE",
"158 344 OFFCURVE",
"188 389 OFFCURVE",
"188 460 CURVE SMOOTH",
"188 509 OFFCURVE",
"169 568 OFFCURVE",
"132 622 CURVE",
"-7 622 LINE",
"-7 551 LINE",
"84 551 LINE",
"99 525 OFFCURVE",
"108 488 OFFCURVE",
"108 459 CURVE SMOOTH",
"108 405 OFFCURVE",
"78 367 OFFCURVE",
"38 333 CURVE",
"88 210 OFFCURVE",
"166 132 OFFCURVE",
"284 132 CURVE SMOOTH",
"341 132 OFFCURVE",
"383 144 OFFCURVE",
"429 165 CURVE",
"428 180 LINE",
"428 0 LINE"
);
},
{
closed = 1;
nodes = (
"465 357 LINE",
"465 426 LINE",
"128 426 LINE",
"128 357 LINE"
);
}
);
width = 598;
},
{
layerId = "397B4BA1-1DC1-423A-91EE-9CBCF179C3D0";
paths = (
{
closed = 1;
nodes = (
"568 0 LINE",
"568 512 LINE",
"655 512 LINE",
"655 622 LINE",
"163 622 LINE",
"187 512 LINE",
"434 512 LINE",
"434 253 LINE",
"435 263 LINE",
"396 241 OFFCURVE",
"362 231 OFFCURVE",
"313 231 CURVE SMOOTH",
"246 231 OFFCURVE",
"191 274 OFFCURVE",
"165 374 CURVE",
"153 291 LINE",
"203 338 OFFCURVE",
"234 380 OFFCURVE",
"234 451 CURVE SMOOTH",
"234 507 OFFCURVE",
"210 562 OFFCURVE",
"173 622 CURVE",
"-7 622 LINE",
"-7 512 LINE",
"85 512 LINE",
"96 494 OFFCURVE",
"101 467 OFFCURVE",
"101 441 CURVE SMOOTH",
"101 387 OFFCURVE",
"67 351 OFFCURVE",
"31 327 CURVE",
"87 195 OFFCURVE",
"171 119 OFFCURVE",
"308 119 CURVE SMOOTH",
"351 119 OFFCURVE",
"392 123 OFFCURVE",
"435 139 CURVE",
"434 145 LINE",
"434 0 LINE"
);
},
{
closed = 1;
nodes = (
"497 320 LINE",
"497 421 LINE",
"147 421 LINE",
"171 320 LINE"
);
}
);
width = 648;
},
{
layerId = "AD832606-5186-48BF-AC4A-95D20F9D6762";
paths = (
{
closed = 1;
nodes = (
"446 0 LINE",
"446 596 LINE",
"553 596 LINE",
"553 622 LINE",
"97 622 LINE",
"108 596 LINE",
"420 596 LINE",
"420 232 LINE",
"421 246 LINE",
"373 207 OFFCURVE",
"321 194 OFFCURVE",
"271 194 CURVE SMOOTH",
"184 194 OFFCURVE",
"114 243 OFFCURVE",
"78 334 CURVE",
"77 322 LINE",
"122 370 OFFCURVE",
"150 415 OFFCURVE",
"150 479 CURVE SMOOTH",
"150 530 OFFCURVE",
"136 575 OFFCURVE",
"112 622 CURVE",
"-7 622 LINE",
"-7 596 LINE",
"95 596 LINE",
"111 564 OFFCURVE",
"123 527 OFFCURVE",
"123 479 CURVE SMOOTH",
"123 420 OFFCURVE",
"97 379 OFFCURVE",
"50 333 CURVE",
"102 209 OFFCURVE",
"183 168 OFFCURVE",
"271 168 CURVE SMOOTH",
"332 168 OFFCURVE",
"378 184 OFFCURVE",
"423 215 CURVE",
"420 226 LINE",
"420 0 LINE"
);
},
{
closed = 1;
nodes = (
"433 398 LINE",
"433 424 LINE",
"118 424 LINE",
"118 398 LINE"
);
}
);
width = 546;
},
{
layerId = "F506C8C4-888D-41F0-91C9-49F2C7D2D9C4";
paths = (
{
closed = 1;
nodes = (
"611 0 LINE",
"611 484 LINE",
"688 484 LINE",
"688 622 LINE",
"179 622 LINE",
"185 484 LINE",
"434 484 LINE",
"434 252 LINE",
"455 288 LINE",
"419 265 OFFCURVE",
"381 248 OFFCURVE",
"329 248 CURVE SMOOTH",
"271 248 OFFCURVE",
"232 278 OFFCURVE",
"209 334 CURVE",
"177 278 LINE",
"239 325 OFFCURVE",
"269 380 OFFCURVE",
"269 444 CURVE SMOOTH",
"269 496 OFFCURVE",
"245 562 OFFCURVE",
"216 622 CURVE",
"-7 622 LINE",
"-7 484 LINE",
"81 484 LINE",
"89 467 OFFCURVE",
"92 450 OFFCURVE",
"92 434 CURVE SMOOTH",
"92 387 OFFCURVE",
"66 359 OFFCURVE",
"25 330 CURVE",
"92 171 OFFCURVE",
"185 109 OFFCURVE",
"322 109 CURVE SMOOTH",
"379 109 OFFCURVE",
"417 116 OFFCURVE",
"457 135 CURVE",
"434 145 LINE",
"434 0 LINE"
);
},
{
closed = 1;
nodes = (
"500 307 LINE",
"500 428 LINE",
"150 428 LINE",
"172 307 LINE"
);
}
);
width = 681;
},
{
layerId = "C86CFEE0-D181-456A-AA08-2B118FAF25CE";
paths = (
{
closed = 1;
nodes = (
"341 0 LINE",
"341 596 LINE",
"425 596 LINE",
"425 622 LINE",
"73 622 LINE",
"74 596 LINE",
"315 596 LINE",
"315 233 LINE",
"328 252 LINE",
"292 213 OFFCURVE",
"255 194 OFFCURVE",
"209 194 CURVE SMOOTH",
"130 194 OFFCURVE",
"93 246 OFFCURVE",
"65 342 CURVE",
"59 319 LINE",
"99 372 OFFCURVE",
"119 408 OFFCURVE",
"119 474 CURVE SMOOTH",
"119 523 OFFCURVE",
"103 576 OFFCURVE",
"83 622 CURVE",
"-7 622 LINE",
"-7 596 LINE",
"65 596 LINE",
"79 567 OFFCURVE",
"92 520 OFFCURVE",
"92 474 CURVE SMOOTH",
"92 416 OFFCURVE",
"74 382 OFFCURVE",
"39 336 CURVE",
"75 219 OFFCURVE",
"124 168 OFFCURVE",
"208 168 CURVE SMOOTH",
"260 168 OFFCURVE",
"300 188 OFFCURVE",
"331 220 CURVE",
"315 227 LINE",
"315 0 LINE"
);
},
{
closed = 1;
nodes = (
"323 398 LINE",
"323 424 LINE",
"98 424 LINE",
"98 398 LINE"
);
}
);
width = 418;
},
{
layerId = "CBEC276F-1F9B-404D-BC73-2CB92054D876";
paths = (
{
closed = 1;
nodes = (
"478 0 LINE",
"478 489 LINE",
"539 489 LINE",
"539 622 LINE",
"139 622 LINE",
"144 489 LINE",
"328 489 LINE",
"328 246 LINE",
"332 266 LINE",
"316 253 OFFCURVE",
"295 242 OFFCURVE",
"258 242 CURVE SMOOTH",
"217 242 OFFCURVE",
"192 270 OFFCURVE",
"173 341 CURVE",
"144 266 LINE",
"190 307 OFFCURVE",
"224 358 OFFCURVE",
"224 434 CURVE SMOOTH",
"224 497 OFFCURVE",
"207 561 OFFCURVE",
"181 622 CURVE",
"-7 622 LINE",
"-7 489 LINE",
"66 489 LINE",
"72 472 OFFCURVE",
"74 454 OFFCURVE",
"74 433 CURVE SMOOTH",
"74 389 OFFCURVE",
"53 352 OFFCURVE",
"21 320 CURVE",
"65 173 OFFCURVE",
"139 109 OFFCURVE",
"256 109 CURVE SMOOTH",
"297 109 OFFCURVE",
"330 119 OFFCURVE",
"357 138 CURVE",
"328 155 LINE",
"328 0 LINE"
);
},
{
closed = 1;
nodes = (
"454 308 LINE",
"454 424 LINE",
"104 424 LINE",
"128 308 LINE"
);
}
);
width = 532;
},
{
layerId = "04B5D069-3E89-43E6-853C-EFCF876AEDC5";
paths = (
{
closed = 1;
nodes = (
"391 0 LINE",
"391 554 LINE",
"462 554 LINE",
"462 622 LINE",
"105 622 LINE",
"121 554 LINE",
"316 554 LINE",
"316 223 LINE",
"317 238 LINE",
"289 217 OFFCURVE",
"264 204 OFFCURVE",
"224 204 CURVE SMOOTH",
"162 204 OFFCURVE",
"128 257 OFFCURVE",
"104 355 CURVE",
"98 314 LINE",
"132 351 OFFCURVE",
"157 391 OFFCURVE",
"157 462 CURVE SMOOTH",
"157 512 OFFCURVE",
"141 569 OFFCURVE",
"120 622 CURVE",
"-7 622 LINE",
"-7 554 LINE",
"63 554 LINE",
"74 523 OFFCURVE",
"82 492 OFFCURVE",
"82 461 CURVE SMOOTH",
"82 409 OFFCURVE",
"57 370 OFFCURVE",
"28 333 CURVE",
"68 191 OFFCURVE",
"128 134 OFFCURVE",
"221 134 CURVE SMOOTH",
"265 134 OFFCURVE",
"297 145 OFFCURVE",
"324 163 CURVE",
"316 183 LINE",
"316 0 LINE"
);
},
{
closed = 1;
nodes = (
"355 358 LINE",
"355 425 LINE",
"118 425 LINE",
"118 358 LINE"
);
}
);
width = 455;
}
);
unicode = 0A25;
},
{
glyphname = daguru;
lastChange = "2019-02-21 10:42:34 +0000";
layers = (
{
layerId = UUID0;
paths = (
{
closed = 1;
nodes = (
"439 0 OFFCURVE",
"509 16 OFFCURVE",
"570 46 CURVE",
"542 117 LINE",
"482 87 OFFCURVE",
"432 73 OFFCURVE",
"369 73 CURVE SMOOTH",
"281 73 OFFCURVE",
"183 109 OFFCURVE",
"182 291 CURVE",
"498 291 LINE",
"527 320 LINE",
"527 551 LINE",
"624 551 LINE",
"624 622 LINE",
"-7 622 LINE",
"-7 551 LINE",
"447 551 LINE",
"447 362 LINE",
"182 362 LINE",
"182 387 LINE SMOOTH",
"182 416 OFFCURVE",
"171 442 OFFCURVE",
"139 442 CURVE SMOOTH",
"96 442 OFFCURVE",
"32 377 OFFCURVE",
"32 329 CURVE SMOOTH",
"32 308 OFFCURVE",
"46 291 OFFCURVE",
"83 291 CURVE SMOOTH",
"101 291 LINE",
"101 280 LINE SMOOTH",
"101 114 OFFCURVE",
"186 0 OFFCURVE",
"368 0 CURVE SMOOTH"
);
}
);
width = 617;
},
{
layerId = "397B4BA1-1DC1-423A-91EE-9CBCF179C3D0";
paths = (
{
closed = 1;
nodes = (
"484 0 OFFCURVE",
"567 17 OFFCURVE",
"630 43 CURVE",
"586 151 LINE",
"526 125 OFFCURVE",
"480 112 OFFCURVE",
"413 112 CURVE SMOOTH",
"292 112 OFFCURVE",
"235 168 OFFCURVE",
"235 269 CURVE",
"545 269 LINE",
"581 305 LINE",
"581 512 LINE",
"668 512 LINE",
"668 622 LINE",
"-7 622 LINE",
"-7 512 LINE",
"447 512 LINE",
"447 379 LINE",
"235 379 LINE",
"235 390 LINE SMOOTH",
"235 433 OFFCURVE",
"213 459 OFFCURVE",
"170 459 CURVE SMOOTH",
"96 459 OFFCURVE",
"24 375 OFFCURVE",
"24 321 CURVE SMOOTH",
"24 290 OFFCURVE",
"42 269 OFFCURVE",
"87 269 CURVE SMOOTH",
"101 269 LINE",
"101 261 LINE SMOOTH",
"101 79 OFFCURVE",
"222 0 OFFCURVE",
"406 0 CURVE SMOOTH"
);
}
);
width = 661;
},
{
layerId = "AD832606-5186-48BF-AC4A-95D20F9D6762";
paths = (
{
closed = 1;
nodes = (
"398 0 OFFCURVE",
"451 11 OFFCURVE",
"509 40 CURVE",
"499 63 LINE",
"436 35 OFFCURVE",
"394 26 OFFCURVE",
"339 26 CURVE SMOOTH",
"217 26 OFFCURVE",
"117 91 OFFCURVE",
"117 333 CURVE",
"441 333 LINE",
"456 347 LINE",
"456 596 LINE",
"563 596 LINE",
"563 622 LINE",
"-7 622 LINE",
"-7 596 LINE",
"430 596 LINE",
"430 359 LINE",
"119 359 LINE",
"119 386 LINE SMOOTH",
"119 403 OFFCURVE",
"116 419 OFFCURVE",
"101 419 CURVE SMOOTH",
"76 419 OFFCURVE",
"40 378 OFFCURVE",
"40 354 CURVE SMOOTH",
"40 337 OFFCURVE",
"57 333 OFFCURVE",
"80 333 CURVE SMOOTH",
"91 333 LINE",
"91 320 LINE SMOOTH",
"91 91 OFFCURVE",
"189 0 OFFCURVE",
"339 0 CURVE SMOOTH"
);
}
);
width = 556;
},
{
layerId = "F506C8C4-888D-41F0-91C9-49F2C7D2D9C4";
paths = (
{
closed = 1;
nodes = (
"502 0 OFFCURVE",
"585 19 OFFCURVE",
"650 48 CURVE",
"594 181 LINE",
"527 153 OFFCURVE",
"482 139 OFFCURVE",
"411 139 CURVE SMOOTH",
"313 139 OFFCURVE",
"272 174 OFFCURVE",
"258 244 CURVE",
"557 244 LINE",
"603 290 LINE",
"603 484 LINE",
"680 484 LINE",
"680 622 LINE",
"-7 622 LINE",
"-7 484 LINE",
"426 484 LINE",
"426 382 LINE",
"259 382 LINE",
"259 384 LINE SMOOTH",
"259 423 OFFCURVE",
"237 453 OFFCURVE",
"180 453 CURVE SMOOTH",
"100 453 OFFCURVE",
"13 369 OFFCURVE",
"13 305 CURVE SMOOTH",
"13 262 OFFCURVE",
"40 242 OFFCURVE",
"80 242 CURVE SMOOTH",
"82 242 LINE",
"84 241 LINE",
"94 98 OFFCURVE",
"192 0 OFFCURVE",
"403 0 CURVE SMOOTH"
);
}
);
width = 673;
},
{
layerId = "C86CFEE0-D181-456A-AA08-2B118FAF25CE";
paths = (
{
closed = 1;
nodes = (
"311 0 OFFCURVE",
"350 11 OFFCURVE",
"386 27 CURVE",
"376 52 LINE",
"340 35 OFFCURVE",
"311 26 OFFCURVE",
"268 26 CURVE SMOOTH",
"159 26 OFFCURVE",
"94 90 OFFCURVE",
"94 333 CURVE",
"324 333 LINE",
"340 349 LINE",
"340 596 LINE",
"424 596 LINE",
"424 622 LINE",
"-7 622 LINE",
"-7 596 LINE",
"314 596 LINE",
"314 359 LINE",
"96 359 LINE",
"96 386 LINE SMOOTH",
"96 404 OFFCURVE",
"92 413 OFFCURVE",
"81 413 CURVE SMOOTH",
"60 413 OFFCURVE",
"32 375 OFFCURVE",
"32 351 CURVE SMOOTH",
"32 335 OFFCURVE",
"45 333 OFFCURVE",
"60 333 CURVE SMOOTH",
"68 333 LINE",
"68 315 LINE SMOOTH",
"68 81 OFFCURVE",
"142 0 OFFCURVE",
"268 0 CURVE SMOOTH"
);
}
);
width = 417;
},
{
layerId = "CBEC276F-1F9B-404D-BC73-2CB92054D876";
paths = (
{
closed = 1;
nodes = (
"400 0 OFFCURVE",
"446 16 OFFCURVE",
"499 43 CURVE",
"452 165 LINE",
"407 142 OFFCURVE",
"368 134 OFFCURVE",
"325 134 CURVE SMOOTH",
"253 134 OFFCURVE",
"222 172 OFFCURVE",
"215 246 CURVE",
"427 246 LINE",
"460 282 LINE",
"460 489 LINE",
"521 489 LINE",
"521 622 LINE",
"-7 622 LINE",
"-7 489 LINE",
"310 489 LINE",
"310 379 LINE",
"209 379 LINE",
"209 382 LINE SMOOTH",
"209 423 OFFCURVE",
"191 444 OFFCURVE",
"148 444 CURVE SMOOTH",
"84 444 OFFCURVE",
"10 361 OFFCURVE",
"10 296 CURVE SMOOTH",
"10 261 OFFCURVE",
"31 246 OFFCURVE",
"53 246 CURVE SMOOTH",
"64 246 LINE",
"64 245 LINE",
"72 96 OFFCURVE",
"148 0 OFFCURVE",
"323 0 CURVE SMOOTH"
);
}
);
width = 514;
},
{
layerId = "04B5D069-3E89-43E6-853C-EFCF876AEDC5";
paths = (
{
closed = 1;
nodes = (
"340 0 OFFCURVE",
"394 11 OFFCURVE",
"438 35 CURVE",
"412 102 LINE",
"372 79 OFFCURVE",
"337 70 OFFCURVE",
"300 70 CURVE SMOOTH",
"209 70 OFFCURVE",
"151 112 OFFCURVE",
"151 293 CURVE",
"375 293 LINE",
"397 321 LINE",
"397 554 LINE",
"468 554 LINE",
"468 622 LINE",
"-7 622 LINE",
"-7 554 LINE",
"322 554 LINE",
"322 361 LINE",
"151 361 LINE",
"151 397 LINE SMOOTH",
"151 422 OFFCURVE",
"140 439 OFFCURVE",
"118 439 CURVE SMOOTH",
"73 439 OFFCURVE",
"24 372 OFFCURVE",
"24 329 CURVE SMOOTH",
"24 309 OFFCURVE",
"35 292 OFFCURVE",
"71 292 CURVE SMOOTH",
"76 292 LINE",
"76 276 LINE SMOOTH",
"76 95 OFFCURVE",
"148 0 OFFCURVE",
"298 0 CURVE SMOOTH"
);
}
);
width = 461;
}
);
unicode = 0A26;
},
{
glyphname = dhaguru;
lastChange = "2019-02-21 10:42:34 +0000";
layers = (
{
layerId = UUID0;
paths = (
{
closed = 1;
nodes = (
"504 0 LINE",
"504 551 LINE",
"600 551 LINE",
"600 622 LINE",
"118 622 LINE",
"118 551 LINE",
"423 551 LINE",
"423 242 LINE",
"429 251 LINE",
"381 222 OFFCURVE",
"337 206 OFFCURVE",
"284 206 CURVE SMOOTH",
"206 206 OFFCURVE",
"161 257 OFFCURVE",
"118 357 CURVE",
"114 313 LINE",
"158 344 OFFCURVE",
"188 389 OFFCURVE",
"188 460 CURVE SMOOTH",
"188 509 OFFCURVE",
"169 568 OFFCURVE",
"132 622 CURVE",
"-7 622 LINE",
"-7 551 LINE",
"84 551 LINE",
"99 525 OFFCURVE",
"108 488 OFFCURVE",
"108 459 CURVE SMOOTH",
"108 405 OFFCURVE",
"78 367 OFFCURVE",
"38 333 CURVE",
"88 210 OFFCURVE",
"166 132 OFFCURVE",
"284 132 CURVE SMOOTH",
"341 132 OFFCURVE",
"383 144 OFFCURVE",
"429 165 CURVE",
"423 180 LINE",
"423 0 LINE"
);
}
);
width = 593;
},
{
layerId = "397B4BA1-1DC1-423A-91EE-9CBCF179C3D0";
paths = (
{
closed = 1;
nodes = (
"563 0 LINE",
"563 512 LINE",
"650 512 LINE",
"650 622 LINE",
"163 622 LINE",
"187 512 LINE",
"429 512 LINE",
"429 253 LINE",
"434 263 LINE",
"395 241 OFFCURVE",
"359 231 OFFCURVE",
"313 231 CURVE SMOOTH",
"246 231 OFFCURVE",
"194 274 OFFCURVE",
"168 374 CURVE",
"156 291 LINE",
"206 338 OFFCURVE",
"234 380 OFFCURVE",
"234 451 CURVE SMOOTH",
"234 507 OFFCURVE",
"210 562 OFFCURVE",
"173 622 CURVE",
"-7 622 LINE",
"-7 512 LINE",
"85 512 LINE",
"96 494 OFFCURVE",
"101 467 OFFCURVE",
"101 441 CURVE SMOOTH",
"101 387 OFFCURVE",
"67 351 OFFCURVE",
"31 327 CURVE",
"87 195 OFFCURVE",
"171 119 OFFCURVE",
"308 119 CURVE SMOOTH",
"351 119 OFFCURVE",
"391 123 OFFCURVE",
"434 139 CURVE",
"429 145 LINE",
"429 0 LINE"
);
}
);
width = 643;
},
{
layerId = "AD832606-5186-48BF-AC4A-95D20F9D6762";
paths = (
{
closed = 1;
nodes = (
"443 0 LINE",
"443 596 LINE",
"550 596 LINE",
"550 622 LINE",
"97 622 LINE",
"108 596 LINE",
"417 596 LINE",
"417 232 LINE",
"421 246 LINE",
"373 207 OFFCURVE",
"321 194 OFFCURVE",
"271 194 CURVE SMOOTH",
"184 194 OFFCURVE",
"114 243 OFFCURVE",
"78 334 CURVE",
"77 322 LINE",
"122 370 OFFCURVE",
"150 415 OFFCURVE",
"150 479 CURVE SMOOTH",
"150 530 OFFCURVE",
"136 575 OFFCURVE",
"112 622 CURVE",
"-7 622 LINE",
"-7 596 LINE",
"95 596 LINE",
"111 564 OFFCURVE",
"123 527 OFFCURVE",
"123 479 CURVE SMOOTH",
"123 420 OFFCURVE",
"97 379 OFFCURVE",
"50 333 CURVE",
"102 209 OFFCURVE",
"183 168 OFFCURVE",
"271 168 CURVE SMOOTH",
"332 168 OFFCURVE",
"378 184 OFFCURVE",
"423 215 CURVE",
"417 226 LINE",
"417 0 LINE"
);
}
);
width = 543;
},
{
layerId = "F506C8C4-888D-41F0-91C9-49F2C7D2D9C4";
paths = (
{
closed = 1;
nodes = (
"606 0 LINE",
"606 484 LINE",
"683 484 LINE",
"683 622 LINE",
"179 622 LINE",
"185 484 LINE",
"429 484 LINE",
"429 252 LINE",
"455 288 LINE",
"419 265 OFFCURVE",
"381 248 OFFCURVE",
"328 248 CURVE SMOOTH",
"274 248 OFFCURVE",
"237 278 OFFCURVE",
"214 334 CURVE",
"182 278 LINE",
"244 325 OFFCURVE",
"269 381 OFFCURVE",
"269 445 CURVE SMOOTH",
"269 497 OFFCURVE",
"245 562 OFFCURVE",
"216 622 CURVE",
"-7 622 LINE",
"-7 484 LINE",
"81 484 LINE",
"89 467 OFFCURVE",
"92 450 OFFCURVE",
"92 434 CURVE SMOOTH",
"92 387 OFFCURVE",
"66 359 OFFCURVE",
"25 330 CURVE",
"92 171 OFFCURVE",
"185 109 OFFCURVE",
"322 109 CURVE SMOOTH",
"379 109 OFFCURVE",
"417 116 OFFCURVE",
"457 135 CURVE",
"429 145 LINE",
"429 0 LINE"
);
}
);
width = 676;
},
{
layerId = "C86CFEE0-D181-456A-AA08-2B118FAF25CE";
paths = (
{
closed = 1;
nodes = (
"339 0 LINE",
"339 596 LINE",
"423 596 LINE",
"423 622 LINE",
"73 622 LINE",
"74 596 LINE",
"313 596 LINE",
"313 233 LINE",
"328 252 LINE",
"292 213 OFFCURVE",
"255 194 OFFCURVE",
"209 194 CURVE SMOOTH",
"130 194 OFFCURVE",
"93 246 OFFCURVE",
"65 342 CURVE",
"59 319 LINE",
"99 372 OFFCURVE",
"119 408 OFFCURVE",
"119 474 CURVE SMOOTH",
"119 523 OFFCURVE",
"103 576 OFFCURVE",
"83 622 CURVE",
"-7 622 LINE",
"-7 596 LINE",
"65 596 LINE",
"79 567 OFFCURVE",
"92 520 OFFCURVE",
"92 474 CURVE SMOOTH",
"92 416 OFFCURVE",
"74 382 OFFCURVE",
"39 336 CURVE",
"75 219 OFFCURVE",
"124 168 OFFCURVE",
"208 168 CURVE SMOOTH",
"260 168 OFFCURVE",
"300 188 OFFCURVE",
"331 220 CURVE",
"313 227 LINE",
"313 0 LINE"
);
}
);
width = 416;
},
{
layerId = "CBEC276F-1F9B-404D-BC73-2CB92054D876";
paths = (
{
closed = 1;
nodes = (
"473 0 LINE",
"473 489 LINE",
"534 489 LINE",
"534 622 LINE",
"139 622 LINE",
"144 489 LINE",
"323 489 LINE",
"323 237 LINE",
"330 266 LINE",
"313 252 OFFCURVE",
"291 242 OFFCURVE",
"258 242 CURVE SMOOTH",
"219 242 OFFCURVE",
"196 270 OFFCURVE",
"177 341 CURVE",
"148 266 LINE",
"194 307 OFFCURVE",
"224 358 OFFCURVE",
"224 434 CURVE SMOOTH",
"224 497 OFFCURVE",
"207 561 OFFCURVE",
"181 622 CURVE",
"-7 622 LINE",
"-7 489 LINE",
"66 489 LINE",
"72 472 OFFCURVE",
"74 454 OFFCURVE",
"74 433 CURVE SMOOTH",
"74 389 OFFCURVE",
"53 352 OFFCURVE",
"21 320 CURVE",
"65 173 OFFCURVE",
"139 109 OFFCURVE",
"256 109 CURVE SMOOTH",
"297 109 OFFCURVE",
"330 119 OFFCURVE",
"357 138 CURVE",
"323 155 LINE",
"323 0 LINE"
);
}
);
width = 527;
},
{
layerId = "04B5D069-3E89-43E6-853C-EFCF876AEDC5";
paths = (
{
closed = 1;
nodes = (
"386 0 LINE",
"386 554 LINE",
"457 554 LINE",
"457 622 LINE",
"105 622 LINE",
"121 554 LINE",
"311 554 LINE",
"311 223 LINE",
"317 238 LINE",
"289 217 OFFCURVE",
"264 204 OFFCURVE",
"224 204 CURVE SMOOTH",
"162 204 OFFCURVE",
"128 257 OFFCURVE",
"104 355 CURVE",
"98 314 LINE",
"132 350 OFFCURVE",
"157 391 OFFCURVE",
"157 462 CURVE SMOOTH",
"157 512 OFFCURVE",
"141 569 OFFCURVE",
"120 622 CURVE",
"-7 622 LINE",
"-7 554 LINE",
"63 554 LINE",
"74 523 OFFCURVE",
"82 492 OFFCURVE",
"82 461 CURVE SMOOTH",
"82 409 OFFCURVE",
"57 370 OFFCURVE",
"28 333 CURVE",
"68 191 OFFCURVE",
"128 134 OFFCURVE",
"221 134 CURVE SMOOTH",
"265 134 OFFCURVE",
"297 145 OFFCURVE",
"324 163 CURVE",
"311 183 LINE",
"311 0 LINE"
);
}
);
width = 450;
}
);
unicode = 0A27;
},
{
glyphname = naguru;
lastChange = "2019-02-21 10:44:12 +0000";
layers = (
{
layerId = UUID0;
paths = (
{
closed = 1;
nodes = (
"245 73 LINE",
"156 73 OFFCURVE",
"119 123 OFFCURVE",
"119 195 CURVE SMOOTH",
"119 277 OFFCURVE",
"189 344 OFFCURVE",
"324 378 CURVE",
"459 344 OFFCURVE",
"529 277 OFFCURVE",
"529 195 CURVE SMOOTH",
"529 123 OFFCURVE",
"493 73 OFFCURVE",
"404 73 CURVE",
"409 0 LINE",
"567 0 OFFCURVE",
"609 116 OFFCURVE",
"609 194 CURVE SMOOTH",
"609 296 OFFCURVE",
"533 394 OFFCURVE",
"364 438 CURVE",
"364 551 LINE",
"655 551 LINE",
"655 622 LINE",
"-7 622 LINE",
"-7 551 LINE",
"284 551 LINE",
"284 438 LINE",
"116 394 OFFCURVE",
"39 296 OFFCURVE",
"39 194 CURVE SMOOTH",
"39 116 OFFCURVE",
"82 0 OFFCURVE",
"240 0 CURVE"
);
}
);
width = 648;
},
{
layerId = "397B4BA1-1DC1-423A-91EE-9CBCF179C3D0";
paths = (
{
closed = 1;
nodes = (
"275 113 LINE",
"191 113 OFFCURVE",
"166 149 OFFCURVE",
"166 196 CURVE SMOOTH",
"166 259 OFFCURVE",
"227 306 OFFCURVE",
"344 331 CURVE",
"461 306 OFFCURVE",
"522 259 OFFCURVE",
"522 196 CURVE SMOOTH",
"522 149 OFFCURVE",
"497 113 OFFCURVE",
"413 113 CURVE",
"421 0 LINE",
"606 0 OFFCURVE",
"656 108 OFFCURVE",
"656 189 CURVE SMOOTH",
"656 290 OFFCURVE",
"579 388 OFFCURVE",
"411 429 CURVE",
"411 512 LINE",
"695 512 LINE",
"695 622 LINE",
"-7 622 LINE",
"-7 512 LINE",
"277 512 LINE",
"277 429 LINE",
"109 388 OFFCURVE",
"32 290 OFFCURVE",
"32 189 CURVE SMOOTH",
"32 108 OFFCURVE",
"82 0 OFFCURVE",
"267 0 CURVE"
);
}
);
width = 688;
},
{
layerId = "AD832606-5186-48BF-AC4A-95D20F9D6762";
paths = (
{
closed = 1;
nodes = (
"225 26 LINE",
"132 26 OFFCURVE",
"75 86 OFFCURVE",
"75 185 CURVE SMOOTH",
"75 297 OFFCURVE",
"157 373 OFFCURVE",
"303 412 CURVE",
"449 373 OFFCURVE",
"531 297 OFFCURVE",
"531 184 CURVE SMOOTH",
"531 86 OFFCURVE",
"474 26 OFFCURVE",
"381 26 CURVE",
"382 0 LINE",
"497 0 OFFCURVE",
"558 79 OFFCURVE",
"558 184 CURVE SMOOTH",
"558 292 OFFCURVE",
"492 384 OFFCURVE",
"316 434 CURVE",
"316 596 LINE",
"613 596 LINE",
"613 622 LINE",
"-7 622 LINE",
"-7 596 LINE",
"290 596 LINE",
"290 434 LINE",
"116 384 OFFCURVE",
"48 292 OFFCURVE",
"48 185 CURVE SMOOTH",
"48 79 OFFCURVE",
"109 0 OFFCURVE",
"224 0 CURVE"
);
}
);
width = 606;
},
{
layerId = "F506C8C4-888D-41F0-91C9-49F2C7D2D9C4";
paths = (
{
closed = 1;
nodes = (
"304 141 LINE",
"240 141 OFFCURVE",
"202 154 OFFCURVE",
"202 199 CURVE SMOOTH",
"202 249 OFFCURVE",
"264 284 OFFCURVE",
"363 305 CURVE",
"461 284 OFFCURVE",
"523 245 OFFCURVE",
"523 199 CURVE SMOOTH",
"523 154 OFFCURVE",
"485 141 OFFCURVE",
"421 141 CURVE",
"429 0 LINE",
"625 0 OFFCURVE",
"700 88 OFFCURVE",
"700 195 CURVE SMOOTH",
"700 312 OFFCURVE",
"606 388 OFFCURVE",
"451 427 CURVE",
"451 484 LINE",
"732 484 LINE",
"732 622 LINE",
"-7 622 LINE",
"-7 484 LINE",
"274 484 LINE",
"274 427 LINE",
"119 388 OFFCURVE",
"25 312 OFFCURVE",
"25 195 CURVE SMOOTH",
"25 88 OFFCURVE",
"100 0 OFFCURVE",
"296 0 CURVE"
);
}
);
width = 725;
},
{
layerId = "C86CFEE0-D181-456A-AA08-2B118FAF25CE";
paths = (
{
closed = 1;
nodes = (
"176 26 LINE",
"115 46 OFFCURVE",
"69 95 OFFCURVE",
"69 188 CURVE SMOOTH",
"69 279 OFFCURVE",
"114 350 OFFCURVE",
"230 415 CURVE",
"346 350 OFFCURVE",
"391 279 OFFCURVE",
"391 188 CURVE SMOOTH",
"391 95 OFFCURVE",
"345 46 OFFCURVE",
"284 26 CURVE",
"290 0 LINE",
"367 26 OFFCURVE",
"418 89 OFFCURVE",
"418 187 CURVE SMOOTH",
"418 287 OFFCURVE",
"366 369 OFFCURVE",
"243 434 CURVE",
"243 596 LINE",
"467 596 LINE",
"467 622 LINE",
"-7 622 LINE",
"-7 596 LINE",
"217 596 LINE",
"217 435 LINE",
"94 369 OFFCURVE",
"42 287 OFFCURVE",
"42 187 CURVE SMOOTH",
"42 89 OFFCURVE",
"93 26 OFFCURVE",
"170 0 CURVE"
);
}
);
width = 460;
},
{
layerId = "CBEC276F-1F9B-404D-BC73-2CB92054D876";
paths = (
{
closed = 1;
nodes = (
"246 134 LINE",
"200 142 OFFCURVE",
"174 164 OFFCURVE",
"174 207 CURVE SMOOTH",
"174 260 OFFCURVE",
"218 298 OFFCURVE",
"278 315 CURVE",
"338 298 OFFCURVE",
"382 260 OFFCURVE",
"382 206 CURVE SMOOTH",
"382 164 OFFCURVE",
"356 142 OFFCURVE",
"310 134 CURVE",
"325 0 LINE",
"467 13 OFFCURVE",
"532 93 OFFCURVE",
"532 201 CURVE SMOOTH",
"532 304 OFFCURVE",
"468 380 OFFCURVE",
"352 428 CURVE",
"352 489 LINE",
"563 489 LINE",
"563 622 LINE",
"-7 622 LINE",
"-7 489 LINE",
"204 489 LINE",
"204 428 LINE",
"88 380 OFFCURVE",
"24 304 OFFCURVE",
"24 201 CURVE SMOOTH",
"24 93 OFFCURVE",
"89 13 OFFCURVE",
"231 0 CURVE"
);
}
);
width = 556;
},
{
layerId = "04B5D069-3E89-43E6-853C-EFCF876AEDC5";
paths = (
{
closed = 1;
nodes = (
"197 68 LINE",
"142 79 OFFCURVE",
"107 119 OFFCURVE",
"107 190 CURVE SMOOTH",
"107 283 OFFCURVE",
"164 339 OFFCURVE",
"243 380 CURVE",
"322 339 OFFCURVE",
"379 283 OFFCURVE",
"379 190 CURVE SMOOTH",
"379 119 OFFCURVE",
"344 79 OFFCURVE",
"289 68 CURVE",
"302 -1 LINE",
"411 20 OFFCURVE",
"455 97 OFFCURVE",
"455 190 CURVE SMOOTH",
"455 293 OFFCURVE",
"395 379 OFFCURVE",
"280 438 CURVE",
"280 554 LINE",
"493 554 LINE",
"493 622 LINE",
"-7 622 LINE",
"-7 554 LINE",
"206 554 LINE",
"206 438 LINE",
"91 379 OFFCURVE",
"31 293 OFFCURVE",
"31 190 CURVE SMOOTH",
"31 97 OFFCURVE",
"75 20 OFFCURVE",
"184 -1 CURVE"
);
}
);
width = 486;
}
);
unicode = 0A28;
},
{
glyphname = paguru;
lastChange = "2019-02-21 10:42:34 +0000";
layers = (
{
layerId = UUID0;
paths = (
{
closed = 1;
nodes = (
"504 0 LINE",
"504 551 LINE",
"600 551 LINE",
"600 622 LINE",
"423 622 LINE",
"423 240 LINE",
"429 251 LINE",
"381 222 OFFCURVE",
"338 206 OFFCURVE",
"284 206 CURVE SMOOTH",
"206 206 OFFCURVE",
"161 257 OFFCURVE",
"118 357 CURVE",
"114 313 LINE",
"158 344 OFFCURVE",
"188 389 OFFCURVE",
"188 460 CURVE SMOOTH",
"188 509 OFFCURVE",
"171 568 OFFCURVE",
"142 622 CURVE",
"-7 622 LINE",
"-7 551 LINE",
"84 551 LINE",
"99 525 OFFCURVE",
"108 488 OFFCURVE",
"108 459 CURVE SMOOTH",
"108 405 OFFCURVE",
"78 367 OFFCURVE",
"38 333 CURVE",
"88 210 OFFCURVE",
"166 132 OFFCURVE",
"284 132 CURVE SMOOTH",
"341 132 OFFCURVE",
"383 144 OFFCURVE",
"429 165 CURVE",
"423 180 LINE",
"423 0 LINE"
);
}
);
width = 593;
},
{
layerId = "397B4BA1-1DC1-423A-91EE-9CBCF179C3D0";
paths = (
{
closed = 1;
nodes = (
"563 0 LINE",
"563 512 LINE",
"650 512 LINE",
"650 622 LINE",
"429 622 LINE",
"429 253 LINE",
"434 263 LINE",
"395 241 OFFCURVE",
"359 231 OFFCURVE",
"313 231 CURVE SMOOTH",
"246 231 OFFCURVE",
"194 274 OFFCURVE",
"168 374 CURVE",
"156 291 LINE",
"206 338 OFFCURVE",
"234 380 OFFCURVE",
"234 451 CURVE SMOOTH",
"234 507 OFFCURVE",
"218 567 OFFCURVE",
"188 622 CURVE",
"-7 622 LINE",
"-7 512 LINE",
"85 512 LINE",
"96 494 OFFCURVE",
"101 467 OFFCURVE",
"101 441 CURVE SMOOTH",
"101 387 OFFCURVE",
"67 351 OFFCURVE",
"31 327 CURVE",
"87 195 OFFCURVE",
"171 119 OFFCURVE",
"308 119 CURVE SMOOTH",
"351 119 OFFCURVE",
"391 123 OFFCURVE",
"434 139 CURVE",
"429 145 LINE",
"429 0 LINE"
);
}
);
width = 643;
},
{
layerId = "AD832606-5186-48BF-AC4A-95D20F9D6762";
paths = (
{
closed = 1;
nodes = (
"443 0 LINE",
"443 596 LINE",
"550 596 LINE",
"550 622 LINE",
"417 622 LINE",
"417 227 LINE",
"421 246 LINE",
"373 207 OFFCURVE",
"321 194 OFFCURVE",
"271 194 CURVE SMOOTH",
"184 194 OFFCURVE",
"114 243 OFFCURVE",
"78 334 CURVE",
"77 322 LINE",
"122 370 OFFCURVE",
"150 414 OFFCURVE",
"150 479 CURVE SMOOTH",
"150 530 OFFCURVE",
"136 575 OFFCURVE",
"115 622 CURVE",
"-7 622 LINE",
"-7 596 LINE",
"95 596 LINE",
"111 564 OFFCURVE",
"123 527 OFFCURVE",
"123 479 CURVE SMOOTH",
"123 420 OFFCURVE",
"97 379 OFFCURVE",
"50 333 CURVE",
"102 209 OFFCURVE",
"183 168 OFFCURVE",
"271 168 CURVE SMOOTH",
"332 168 OFFCURVE",
"378 184 OFFCURVE",
"423 215 CURVE",
"417 221 LINE",
"417 0 LINE"
);
}
);
width = 543;
},
{
layerId = "F506C8C4-888D-41F0-91C9-49F2C7D2D9C4";
paths = (
{
closed = 1;
nodes = (
"601 0 LINE",
"601 484 LINE",
"678 484 LINE",
"678 622 LINE",
"424 622 LINE",
"424 252 LINE",
"455 288 LINE",
"419 265 OFFCURVE",
"381 248 OFFCURVE",
"328 248 CURVE SMOOTH",
"274 248 OFFCURVE",
"237 278 OFFCURVE",
"214 334 CURVE",
"182 278 LINE",
"244 325 OFFCURVE",
"269 381 OFFCURVE",
"269 445 CURVE SMOOTH",
"269 504 OFFCURVE",
"249 562 OFFCURVE",
"220 622 CURVE",
"-7 622 LINE",
"-7 484 LINE",
"81 484 LINE",
"89 467 OFFCURVE",
"92 450 OFFCURVE",
"92 434 CURVE SMOOTH",
"92 387 OFFCURVE",
"66 359 OFFCURVE",
"25 330 CURVE",
"92 171 OFFCURVE",
"185 109 OFFCURVE",
"322 109 CURVE SMOOTH",
"379 109 OFFCURVE",
"417 116 OFFCURVE",
"457 135 CURVE",
"424 145 LINE",
"424 0 LINE"
);
}
);
width = 671;
},
{
layerId = "C86CFEE0-D181-456A-AA08-2B118FAF25CE";
paths = (
{
closed = 1;
nodes = (
"339 0 LINE",
"339 596 LINE",
"423 596 LINE",
"423 622 LINE",
"313 622 LINE",
"313 233 LINE",
"328 252 LINE",
"292 213 OFFCURVE",
"255 194 OFFCURVE",
"209 194 CURVE SMOOTH",
"130 194 OFFCURVE",
"93 246 OFFCURVE",
"65 342 CURVE",
"59 319 LINE",
"99 372 OFFCURVE",
"119 408 OFFCURVE",
"119 474 CURVE SMOOTH",
"119 523 OFFCURVE",
"103 576 OFFCURVE",
"83 622 CURVE",
"-7 622 LINE",
"-7 596 LINE",
"65 596 LINE",
"79 567 OFFCURVE",
"92 520 OFFCURVE",
"92 474 CURVE SMOOTH",
"92 416 OFFCURVE",
"74 382 OFFCURVE",
"39 336 CURVE",
"75 219 OFFCURVE",
"124 168 OFFCURVE",
"208 168 CURVE SMOOTH",
"260 168 OFFCURVE",
"300 188 OFFCURVE",
"331 220 CURVE",
"313 227 LINE",
"313 0 LINE"
);
}
);
width = 416;
},
{
layerId = "CBEC276F-1F9B-404D-BC73-2CB92054D876";
paths = (
{
closed = 1;
nodes = (
"468 0 LINE",
"468 489 LINE",
"529 489 LINE",
"529 622 LINE",
"318 622 LINE",
"319 241 LINE",
"325 264 LINE",
"312 253 OFFCURVE",
"291 242 OFFCURVE",
"258 242 CURVE SMOOTH",
"219 242 OFFCURVE",
"196 270 OFFCURVE",
"177 341 CURVE",
"148 266 LINE",
"194 307 OFFCURVE",
"224 358 OFFCURVE",
"224 434 CURVE SMOOTH",
"224 497 OFFCURVE",
"207 561 OFFCURVE",
"181 622 CURVE",
"-7 622 LINE",
"-7 489 LINE",
"66 489 LINE",
"72 472 OFFCURVE",
"74 454 OFFCURVE",
"74 433 CURVE SMOOTH",
"74 389 OFFCURVE",
"53 352 OFFCURVE",
"21 320 CURVE",
"65 173 OFFCURVE",
"139 109 OFFCURVE",
"256 109 CURVE SMOOTH",
"297 109 OFFCURVE",
"330 119 OFFCURVE",
"357 138 CURVE",
"318 155 LINE",
"318 0 LINE"
);
}
);
width = 522;
},
{
layerId = "04B5D069-3E89-43E6-853C-EFCF876AEDC5";
paths = (
{
closed = 1;
nodes = (
"382 0 LINE",
"382 554 LINE",
"453 554 LINE",
"453 622 LINE",
"307 622 LINE",
"307 223 LINE",
"317 238 LINE",
"289 217 OFFCURVE",
"264 204 OFFCURVE",
"224 204 CURVE SMOOTH",
"162 204 OFFCURVE",
"128 257 OFFCURVE",
"104 355 CURVE",
"98 314 LINE",
"132 350 OFFCURVE",
"157 391 OFFCURVE",
"157 462 CURVE SMOOTH",
"157 512 OFFCURVE",
"141 569 OFFCURVE",
"120 622 CURVE",
"-7 622 LINE",
"-7 554 LINE",
"63 554 LINE",
"74 523 OFFCURVE",
"82 492 OFFCURVE",
"82 461 CURVE SMOOTH",
"82 409 OFFCURVE",
"57 370 OFFCURVE",
"28 333 CURVE",
"68 191 OFFCURVE",
"128 134 OFFCURVE",
"221 134 CURVE SMOOTH",
"265 134 OFFCURVE",
"297 145 OFFCURVE",
"324 163 CURVE",
"307 183 LINE",
"307 0 LINE"
);
}
);
width = 446;
}
);
unicode = 0A2A;
},
{
glyphname = phaguru;
lastChange = "2019-02-21 10:44:12 +0000";
layers = (
{
layerId = UUID0;
paths = (
{
closed = 1;
nodes = (
"482 0 OFFCURVE",
"537 49 OFFCURVE",
"537 127 CURVE SMOOTH",
"537 186 OFFCURVE",
"493 237 OFFCURVE",
"396 237 CURVE SMOOTH",
"274 237 OFFCURVE",
"194 165 OFFCURVE",
"144 100 CURVE",
"204 67 LINE",
"247 116 OFFCURVE",
"311 166 OFFCURVE",
"388 166 CURVE SMOOTH",
"434 166 OFFCURVE",
"457 149 OFFCURVE",
"457 124 CURVE SMOOTH",
"457 86 OFFCURVE",
"419 69 OFFCURVE",
"341 69 CURVE SMOOTH",
"212 69 OFFCURVE",
"118 151 OFFCURVE",
"118 259 CURVE SMOOTH",
"118 284 OFFCURVE",
"124 306 OFFCURVE",
"141 320 CURVE SMOOTH",
"166 341 OFFCURVE",
"199 349 OFFCURVE",
"279 349 CURVE SMOOTH",
"460 349 LINE",
"489 378 LINE",
"489 551 LINE",
"586 551 LINE",
"586 622 LINE",
"-7 622 LINE",
"-7 551 LINE",
"408 551 LINE",
"408 420 LINE",
"268 420 LINE SMOOTH",
"161 420 OFFCURVE",
"119 406 OFFCURVE",
"82 374 CURVE SMOOTH",
"54 350 OFFCURVE",
"37 311 OFFCURVE",
"37 264 CURVE SMOOTH",
"37 116 OFFCURVE",
"162 0 OFFCURVE",
"336 0 CURVE SMOOTH"
);
}
);
width = 579;
},
{
layerId = "397B4BA1-1DC1-423A-91EE-9CBCF179C3D0";
paths = (
{
closed = 1;
nodes = (
"521 0 OFFCURVE",
"595 57 OFFCURVE",
"595 145 CURVE SMOOTH",
"595 220 OFFCURVE",
"537 274 OFFCURVE",
"425 274 CURVE SMOOTH",
"298 274 OFFCURVE",
"214 205 OFFCURVE",
"137 120 CURVE",
"227 71 LINE",
"283 132 OFFCURVE",
"347 173 OFFCURVE",
"411 173 CURVE SMOOTH",
"447 173 OFFCURVE",
"465 166 OFFCURVE",
"465 144 CURVE SMOOTH",
"465 120 OFFCURVE",
"437 107 OFFCURVE",
"375 107 CURVE SMOOTH",
"264 107 OFFCURVE",
"167 167 OFFCURVE",
"167 253 CURVE SMOOTH",
"167 274 OFFCURVE",
"172 290 OFFCURVE",
"186 300 CURVE SMOOTH",
"208 316 OFFCURVE",
"222 320 OFFCURVE",
"297 320 CURVE SMOOTH",
"516 320 LINE",
"551 356 LINE",
"551 512 LINE",
"641 512 LINE",
"641 622 LINE",
"-7 622 LINE",
"-7 512 LINE",
"417 512 LINE",
"417 430 LINE",
"278 430 LINE SMOOTH",
"203 430 OFFCURVE",
"128 422 OFFCURVE",
"82 382 CURVE SMOOTH",
"59 362 OFFCURVE",
"32 327 OFFCURVE",
"32 272 CURVE SMOOTH",
"32 107 OFFCURVE",
"176 0 OFFCURVE",
"369 0 CURVE SMOOTH"
);
}
);
width = 634;
},
{
layerId = "AD832606-5186-48BF-AC4A-95D20F9D6762";
paths = (
{
closed = 1;
nodes = (
"428 0 OFFCURVE",
"486 49 OFFCURVE",
"486 117 CURVE SMOOTH",
"486 182 OFFCURVE",
"438 224 OFFCURVE",
"364 224 CURVE SMOOTH",
"264 224 OFFCURVE",
"181 150 OFFCURVE",
"136 91 CURVE",
"154 73 LINE",
"205 137 OFFCURVE",
"277 198 OFFCURVE",
"365 198 CURVE SMOOTH",
"418 198 OFFCURVE",
"459 170 OFFCURVE",
"459 117 CURVE SMOOTH",
"459 62 OFFCURVE",
"409 26 OFFCURVE",
"316 26 CURVE SMOOTH",
"190 26 OFFCURVE",
"73 130 OFFCURVE",
"73 263 CURVE SMOOTH",
"73 300 OFFCURVE",
"84 327 OFFCURVE",
"104 347 CURVE SMOOTH",
"137 380 OFFCURVE",
"186 392 OFFCURVE",
"272 392 CURVE SMOOTH",
"420 392 LINE",
"437 407 LINE",
"437 596 LINE",
"544 596 LINE",
"544 622 LINE",
"-7 622 LINE",
"-7 596 LINE",
"411 596 LINE",
"411 418 LINE",
"272 418 LINE SMOOTH",
"179 418 OFFCURVE",
"122 402 OFFCURVE",
"84 364 CURVE SMOOTH",
"60 340 OFFCURVE",
"46 307 OFFCURVE",
"46 264 CURVE SMOOTH",
"46 120 OFFCURVE",
"171 0 OFFCURVE",
"317 0 CURVE SMOOTH"
);
}
);
width = 537;
},
{
layerId = "F506C8C4-888D-41F0-91C9-49F2C7D2D9C4";
paths = (
{
closed = 1;
nodes = (
"503 0 OFFCURVE",
"631 28 OFFCURVE",
"631 142 CURVE SMOOTH",
"631 213 OFFCURVE",
"581 270 OFFCURVE",
"452 270 CURVE SMOOTH",
"314 270 OFFCURVE",
"223 209 OFFCURVE",
"144 118 CURVE",
"254 70 LINE",
"310 128 OFFCURVE",
"368 160 OFFCURVE",
"419 160 CURVE SMOOTH",
"443 160 OFFCURVE",
"456 155 OFFCURVE",
"456 141 CURVE SMOOTH",
"456 127 OFFCURVE",
"440 119 OFFCURVE",
"391 119 CURVE SMOOTH",
"306 119 OFFCURVE",
"201 169 OFFCURVE",
"201 248 CURVE SMOOTH",
"201 261 OFFCURVE",
"205 271 OFFCURVE",
"213 277 CURVE SMOOTH",
"226 287 OFFCURVE",
"241 291 OFFCURVE",
"286 291 CURVE SMOOTH",
"538 291 LINE",
"584 337 LINE",
"584 484 LINE",
"665 484 LINE",
"665 622 LINE",
"-7 622 LINE",
"-7 484 LINE",
"407 484 LINE",
"407 424 LINE",
"253 424 LINE SMOOTH",
"163 424 OFFCURVE",
"119 410 OFFCURVE",
"81 381 CURVE SMOOTH",
"47 355 OFFCURVE",
"25 318 OFFCURVE",
"25 268 CURVE SMOOTH",
"25 96 OFFCURVE",
"185 0 OFFCURVE",
"381 0 CURVE SMOOTH"
);
}
);
width = 658;
},
{
layerId = "C86CFEE0-D181-456A-AA08-2B118FAF25CE";
paths = (
{
closed = 1;
nodes = (
"314 0 OFFCURVE",
"367 37 OFFCURVE",
"367 111 CURVE SMOOTH",
"367 175 OFFCURVE",
"324 216 OFFCURVE",
"254 216 CURVE SMOOTH",
"189 216 OFFCURVE",
"134 182 OFFCURVE",
"80 111 CURVE",
"96 93 LINE",
"146 154 OFFCURVE",
"197 190 OFFCURVE",
"254 190 CURVE SMOOTH",
"307 190 OFFCURVE",
"340 161 OFFCURVE",
"340 111 CURVE SMOOTH",
"340 55 OFFCURVE",
"301 26 OFFCURVE",
"239 26 CURVE SMOOTH",
"124 26 OFFCURVE",
"66 141 OFFCURVE",
"66 257 CURVE SMOOTH",
"66 300 OFFCURVE",
"77 331 OFFCURVE",
"100 353 CURVE SMOOTH",
"124 375 OFFCURVE",
"157 387 OFFCURVE",
"237 387 CURVE SMOOTH",
"318 387 LINE",
"334 403 LINE",
"334 596 LINE",
"418 596 LINE",
"418 622 LINE",
"-7 622 LINE",
"-7 596 LINE",
"308 596 LINE",
"308 413 LINE",
"232 413 LINE SMOOTH",
"151 413 OFFCURVE",
"111 400 OFFCURVE",
"80 371 CURVE SMOOTH",
"53 346 OFFCURVE",
"39 308 OFFCURVE",
"39 257 CURVE SMOOTH",
"39 122 OFFCURVE",
"114 0 OFFCURVE",
"240 0 CURVE SMOOTH"
);
}
);
width = 411;
},
{
layerId = "CBEC276F-1F9B-404D-BC73-2CB92054D876";
paths = (
{
closed = 1;
nodes = (
"451 0 OFFCURVE",
"506 65 OFFCURVE",
"506 144 CURVE SMOOTH",
"506 217 OFFCURVE",
"459 270 OFFCURVE",
"354 270 CURVE SMOOTH",
"253 270 OFFCURVE",
"190 224 OFFCURVE",
"120 146 CURVE",
"184 70 LINE",
"244 131 OFFCURVE",
"279 162 OFFCURVE",
"325 162 CURVE SMOOTH",
"348 162 OFFCURVE",
"358 154 OFFCURVE",
"358 141 CURVE SMOOTH",
"358 124 OFFCURVE",
"343 119 OFFCURVE",
"310 119 CURVE SMOOTH",
"231 119 OFFCURVE",
"168 176 OFFCURVE",
"168 247 CURVE SMOOTH",
"168 261 OFFCURVE",
"171 271 OFFCURVE",
"181 280 CURVE SMOOTH",
"190 288 OFFCURVE",
"204 294 OFFCURVE",
"240 294 CURVE SMOOTH",
"415 294 LINE",
"470 340 LINE",
"470 489 LINE",
"533 489 LINE",
"533 622 LINE",
"-7 622 LINE",
"-7 489 LINE",
"320 489 LINE",
"320 424 LINE",
"239 424 LINE SMOOTH",
"150 424 OFFCURVE",
"108 410 OFFCURVE",
"75 384 CURVE SMOOTH",
"42 358 OFFCURVE",
"20 318 OFFCURVE",
"20 258 CURVE SMOOTH",
"20 96 OFFCURVE",
"138 0 OFFCURVE",
"305 0 CURVE SMOOTH"
);
}
);
width = 526;
},
{
layerId = "04B5D069-3E89-43E6-853C-EFCF876AEDC5";
paths = (
{
closed = 1;
nodes = (
"357 0 OFFCURVE",
"406 48 OFFCURVE",
"406 119 CURVE SMOOTH",
"406 176 OFFCURVE",
"367 232 OFFCURVE",
"277 232 CURVE SMOOTH",
"201 232 OFFCURVE",
"136 185 OFFCURVE",
"78 114 CURVE",
"127 76 LINE",
"172 128 OFFCURVE",
"217 165 OFFCURVE",
"274 165 CURVE SMOOTH",
"311 165 OFFCURVE",
"332 147 OFFCURVE",
"332 117 CURVE SMOOTH",
"332 84 OFFCURVE",
"308 67 OFFCURVE",
"255 67 CURVE SMOOTH",
"157 67 OFFCURVE",
"104 165 OFFCURVE",
"104 256 CURVE SMOOTH",
"104 289 OFFCURVE",
"113 310 OFFCURVE",
"128 324 CURVE SMOOTH",
"152 346 OFFCURVE",
"183 352 OFFCURVE",
"257 352 CURVE SMOOTH",
"350 352 LINE",
"373 380 LINE",
"373 554 LINE",
"446 554 LINE",
"446 622 LINE",
"-7 622 LINE",
"-7 554 LINE",
"298 554 LINE",
"298 420 LINE",
"248 420 LINE SMOOTH",
"152 420 OFFCURVE",
"111 407 OFFCURVE",
"75 376 CURVE SMOOTH",
"46 351 OFFCURVE",
"29 314 OFFCURVE",
"29 262 CURVE SMOOTH",
"29 133 OFFCURVE",
"110 0 OFFCURVE",
"254 0 CURVE SMOOTH"
);
}
);
width = 439;
}
);
unicode = 0A2B;
},
{
glyphname = baguru;
lastChange = "2019-02-21 10:42:34 +0000";
layers = (
{
layerId = UUID0;
paths = (
{
closed = 1;
nodes = (
"88 145 OFFCURVE",
"173 69 OFFCURVE",
"307 69 CURVE SMOOTH",
"362 69 OFFCURVE",
"409 80 OFFCURVE",
"452 100 CURVE",
"446 176 LINE",
"405 153 OFFCURVE",
"357 143 OFFCURVE",
"307 143 CURVE SMOOTH",
"218 143 OFFCURVE",
"162 183 OFFCURVE",
"122 268 CURVE",
"120 225 LINE",
"172 294 OFFCURVE",
"231 322 OFFCURVE",
"313 322 CURVE SMOOTH",
"454 322 LINE",
"456 392 LINE",
"296 392 LINE SMOOTH",
"233 392 OFFCURVE",
"206 401 OFFCURVE",
"182 423 CURVE SMOOTH",
"152 451 OFFCURVE",
"141 496 OFFCURVE",
"141 554 CURVE",
"105 551 LINE",
"569 551 LINE",
"569 622 LINE",
"-7 622 LINE",
"-7 551 LINE",
"95 551 LINE",
"59 555 LINE",
"59 433 OFFCURVE",
"109 372 OFFCURVE",
"196 343 CURVE",
"189 361 LINE",
"122 338 OFFCURVE",
"71 293 OFFCURVE",
"41 248 CURVE"
);
},
{
closed = 1;
nodes = (
"519 0 LINE",
"519 551 LINE",
"616 551 LINE",
"616 622 LINE",
"342 622 LINE",
"342 551 LINE",
"438 551 LINE",
"438 0 LINE"
);
}
);
width = 608;
},
{
layerId = "397B4BA1-1DC1-423A-91EE-9CBCF179C3D0";
paths = (
{
closed = 1;
nodes = (
"85 146 OFFCURVE",
"169 69 OFFCURVE",
"299 69 CURVE SMOOTH",
"354 69 OFFCURVE",
"398 77 OFFCURVE",
"449 100 CURVE",
"443 215 LINE",
"413 196 OFFCURVE",
"365 182 OFFCURVE",
"315 182 CURVE SMOOTH",
"243 182 OFFCURVE",
"199 216 OFFCURVE",
"163 287 CURVE",
"165 219 LINE",
"218 292 OFFCURVE",
"252 303 OFFCURVE",
"341 303 CURVE SMOOTH",
"446 303 LINE",
"448 411 LINE",
"320 411 LINE SMOOTH",
"256 411 OFFCURVE",
"235 422 OFFCURVE",
"218 439 CURVE SMOOTH",
"196 462 OFFCURVE",
"187 501 OFFCURVE",
"187 549 CURVE",
"161 512 LINE",
"573 512 LINE",
"573 622 LINE",
"-7 622 LINE",
"-7 512 LINE",
"75 512 LINE",
"51 531 LINE",
"51 449 OFFCURVE",
"90 372 OFFCURVE",
"179 342 CURVE",
"187 369 LINE",
"127 348 OFFCURVE",
"64 296 OFFCURVE",
"33 251 CURVE"
);
},
{
closed = 1;
nodes = (
"577 0 LINE",
"577 512 LINE",
"665 512 LINE",
"665 622 LINE",
"334 622 LINE",
"334 512 LINE",
"442 512 LINE",
"442 0 LINE"
);
}
);
width = 657;
},
{
layerId = "AD832606-5186-48BF-AC4A-95D20F9D6762";
paths = (
{
closed = 1;
nodes = (
"93 163 OFFCURVE",
"171 95 OFFCURVE",
"289 95 CURVE SMOOTH",
"349 95 OFFCURVE",
"406 112 OFFCURVE",
"448 134 CURVE",
"442 159 LINE",
"401 136 OFFCURVE",
"344 121 OFFCURVE",
"289 121 CURVE SMOOTH",
"183 121 OFFCURVE",
"112 183 OFFCURVE",
"72 265 CURVE",
"68 240 LINE",
"118 314 OFFCURVE",
"173 370 OFFCURVE",
"292 370 CURVE SMOOTH",
"450 370 LINE",
"452 396 LINE",
"289 396 LINE SMOOTH",
"211 396 OFFCURVE",
"175 411 OFFCURVE",
"147 435 CURVE SMOOTH",
"102 473 OFFCURVE",
"91 535 OFFCURVE",
"91 612 CURVE",
"83 596 LINE",
"510 596 LINE",
"510 622 LINE",
"-7 622 LINE",
"-7 596 LINE",
"73 596 LINE",
"65 609 LINE",
"65 471 OFFCURVE",
"106 390 OFFCURVE",
"242 378 CURVE",
"252 385 LINE",
"155 381 OFFCURVE",
"105 337 OFFCURVE",
"47 256 CURVE"
);
},
{
closed = 1;
nodes = (
"465 0 LINE",
"465 596 LINE",
"572 596 LINE",
"572 622 LINE",
"326 622 LINE",
"326 596 LINE",
"439 596 LINE",
"439 0 LINE"
);
}
);
width = 565;
},
{
layerId = "F506C8C4-888D-41F0-91C9-49F2C7D2D9C4";
paths = (
{
closed = 1;
nodes = (
"86 113 OFFCURVE",
"188 53 OFFCURVE",
"311 53 CURVE SMOOTH",
"381 53 OFFCURVE",
"424 64 OFFCURVE",
"472 86 CURVE",
"465 235 LINE",
"427 206 OFFCURVE",
"386 191 OFFCURVE",
"325 191 CURVE SMOOTH",
"259 191 OFFCURVE",
"220 225 OFFCURVE",
"199 281 CURVE",
"198 202 LINE",
"240 259 OFFCURVE",
"272 277 OFFCURVE",
"342 277 CURVE SMOOTH",
"464 277 LINE",
"466 410 LINE",
"342 410 LINE SMOOTH",
"282 410 OFFCURVE",
"260 416 OFFCURVE",
"243 431 CURVE SMOOTH",
"229 443 OFFCURVE",
"223 465 OFFCURVE",
"223 490 CURVE",
"169 484 LINE",
"564 484 LINE",
"581 622 LINE",
"-7 622 LINE",
"-7 484 LINE",
"83 484 LINE",
"46 498 LINE",
"46 398 OFFCURVE",
"106 342 OFFCURVE",
"185 324 CURVE",
"204 367 LINE",
"128 352 OFFCURVE",
"70 306 OFFCURVE",
"28 242 CURVE"
);
},
{
closed = 1;
nodes = (
"620 0 LINE",
"620 484 LINE",
"697 484 LINE",
"697 622 LINE",
"352 622 LINE",
"352 484 LINE",
"443 484 LINE",
"443 0 LINE"
);
}
);
width = 690;
},
{
layerId = "C86CFEE0-D181-456A-AA08-2B118FAF25CE";
paths = (
{
closed = 1;
nodes = (
"82 155 OFFCURVE",
"129 95 OFFCURVE",
"227 95 CURVE SMOOTH",
"270 95 OFFCURVE",
"303 105 OFFCURVE",
"345 128 CURVE",
"340 154 LINE",
"297 130 OFFCURVE",
"274 121 OFFCURVE",
"227 121 CURVE SMOOTH",
"145 121 OFFCURVE",
"110 164 OFFCURVE",
"67 265 CURVE",
"65 242 LINE",
"109 331 OFFCURVE",
"158 370 OFFCURVE",
"245 370 CURVE SMOOTH",
"346 370 LINE",
"348 396 LINE",
"235 396 LINE SMOOTH",
"177 396 OFFCURVE",
"152 407 OFFCURVE",
"131 425 CURVE SMOOTH",
"97 454 OFFCURVE",
"82 506 OFFCURVE",
"82 600 CURVE",
"69 596 LINE",
"281 596 LINE",
"280 622 LINE",
"-7 622 LINE",
"-7 596 LINE",
"61 596 LINE",
"56 600 LINE",
"56 473 OFFCURVE",
"82 386 OFFCURVE",
"203 375 CURVE",
"194 383 LINE",
"124 378 OFFCURVE",
"74 324 OFFCURVE",
"42 256 CURVE"
);
},
{
closed = 1;
nodes = (
"352 0 LINE",
"352 596 LINE",
"436 596 LINE",
"436 622 LINE",
"241 622 LINE",
"241 596 LINE",
"326 596 LINE",
"326 0 LINE"
);
}
);
width = 429;
},
{
layerId = "CBEC276F-1F9B-404D-BC73-2CB92054D876";
paths = (
{
closed = 1;
nodes = (
"63 98 OFFCURVE",
"171 55 OFFCURVE",
"263 55 CURVE SMOOTH",
"308 55 OFFCURVE",
"347 64 OFFCURVE",
"385 86 CURVE",
"381 222 LINE",
"347 199 OFFCURVE",
"313 188 OFFCURVE",
"278 188 CURVE SMOOTH",
"216 188 OFFCURVE",
"191 209 OFFCURVE",
"166 276 CURVE",
"168 208 LINE",
"202 264 OFFCURVE",
"232 279 OFFCURVE",
"295 279 CURVE SMOOTH",
"364 279 LINE",
"366 408 LINE",
"287 408 LINE SMOOTH",
"240 408 OFFCURVE",
"223 412 OFFCURVE",
"208 423 CURVE SMOOTH",
"190 437 OFFCURVE",
"183 460 OFFCURVE",
"183 498 CURVE",
"127 489 LINE",
"457 489 LINE",
"457 622 LINE",
"-7 622 LINE",
"-7 489 LINE",
"59 489 LINE",
"33 498 LINE",
"33 405 OFFCURVE",
"80 352 OFFCURVE",
"151 319 CURVE",
"169 367 LINE",
"108 346 OFFCURVE",
"59 314 OFFCURVE",
"20 238 CURVE"
);
},
{
closed = 1;
nodes = (
"483 0 LINE",
"483 489 LINE",
"544 489 LINE",
"544 622 LINE",
"248 622 LINE",
"248 489 LINE",
"333 489 LINE",
"333 0 LINE"
);
}
);
width = 537;
},
{
layerId = "04B5D069-3E89-43E6-853C-EFCF876AEDC5";
paths = (
{
closed = 1;
nodes = (
"74 130 OFFCURVE",
"125 70 OFFCURVE",
"232 70 CURVE SMOOTH",
"263 70 OFFCURVE",
"298 74 OFFCURVE",
"332 93 CURVE",
"334 168 LINE",
"304 151 OFFCURVE",
"273 141 OFFCURVE",
"235 141 CURVE SMOOTH",
"171 141 OFFCURVE",
"135 174 OFFCURVE",
"103 267 CURVE",
"105 225 LINE",
"142 295 OFFCURVE",
"182 324 OFFCURVE",
"260 324 CURVE SMOOTH",
"325 324 LINE",
"327 391 LINE",
"255 391 LINE SMOOTH",
"204 391 OFFCURVE",
"181 395 OFFCURVE",
"160 412 CURVE SMOOTH",
"133 434 OFFCURVE",
"120 481 OFFCURVE",
"120 561 CURVE",
"97 554 LINE",
"412 554 LINE",
"412 622 LINE",
"-7 622 LINE",
"-7 554 LINE",
"65 554 LINE",
"44 564 LINE",
"44 435 OFFCURVE",
"79 369 OFFCURVE",
"161 341 CURVE",
"164 361 LINE",
"104 349 OFFCURVE",
"64 309 OFFCURVE",
"30 247 CURVE"
);
},
{
closed = 1;
nodes = (
"394 0 LINE",
"394 554 LINE",
"465 554 LINE",
"465 622 LINE",
"246 622 LINE",
"246 554 LINE",
"319 554 LINE",
"319 0 LINE"
);
}
);
width = 458;
}
);
unicode = 0A2C;
},
